%TF.GenerationSoftware,KiCad,Pcbnew,(6.0.1-0)*%
%TF.CreationDate,2022-02-24T13:14:32-08:00*%
%TF.ProjectId,Dog_Tracker,446f675f-5472-4616-936b-65722e6b6963,rev?*%
%TF.SameCoordinates,Original*%
%TF.FileFunction,Paste,Top*%
%TF.FilePolarity,Positive*%
%FSLAX46Y46*%
G04 Gerber Fmt 4.6, Leading zero omitted, Abs format (unit mm)*
G04 Created by KiCad (PCBNEW (6.0.1-0)) date 2022-02-24 13:14:32*
%MOMM*%
%LPD*%
G01*
G04 APERTURE LIST*
G04 Aperture macros list*
%AMRoundRect*
0 Rectangle with rounded corners*
0 $1 Rounding radius*
0 $2 $3 $4 $5 $6 $7 $8 $9 X,Y pos of 4 corners*
0 Add a 4 corners polygon primitive as box body*
4,1,4,$2,$3,$4,$5,$6,$7,$8,$9,$2,$3,0*
0 Add four circle primitives for the rounded corners*
1,1,$1+$1,$2,$3*
1,1,$1+$1,$4,$5*
1,1,$1+$1,$6,$7*
1,1,$1+$1,$8,$9*
0 Add four rect primitives between the rounded corners*
20,1,$1+$1,$2,$3,$4,$5,0*
20,1,$1+$1,$4,$5,$6,$7,0*
20,1,$1+$1,$6,$7,$8,$9,0*
20,1,$1+$1,$8,$9,$2,$3,0*%
G04 Aperture macros list end*
%ADD10RoundRect,0.135000X-0.185000X0.135000X-0.185000X-0.135000X0.185000X-0.135000X0.185000X0.135000X0*%
%ADD11RoundRect,0.135000X0.185000X-0.135000X0.185000X0.135000X-0.185000X0.135000X-0.185000X-0.135000X0*%
%ADD12R,0.864000X1.676000*%
%ADD13R,0.864000X1.422000*%
%ADD14R,10.008000X6.350000*%
%ADD15R,1.700000X1.450000*%
%ADD16R,1.700000X3.200000*%
%ADD17RoundRect,0.140000X0.170000X-0.140000X0.170000X0.140000X-0.170000X0.140000X-0.170000X-0.140000X0*%
%ADD18R,0.762000X0.203200*%
%ADD19R,0.529220X0.304220*%
%ADD20R,0.304220X0.529220*%
%ADD21RoundRect,0.135000X-0.135000X-0.185000X0.135000X-0.185000X0.135000X0.185000X-0.135000X0.185000X0*%
%ADD22RoundRect,0.140000X0.140000X0.170000X-0.140000X0.170000X-0.140000X-0.170000X0.140000X-0.170000X0*%
%ADD23R,0.600000X1.150000*%
%ADD24RoundRect,0.140000X-0.140000X-0.170000X0.140000X-0.170000X0.140000X0.170000X-0.140000X0.170000X0*%
G04 APERTURE END LIST*
D10*
%TO.C,R7*%
X83700000Y-118690000D03*
X83700000Y-119710000D03*
%TD*%
%TO.C,R8*%
X81150000Y-118640000D03*
X81150000Y-119660000D03*
%TD*%
D11*
%TO.C,R2*%
X59300000Y-112710000D03*
X59300000Y-111690000D03*
%TD*%
D12*
%TO.C,U3*%
X56989999Y-115169000D03*
D13*
X55719999Y-115042000D03*
X54449999Y-115042000D03*
X53179999Y-115042000D03*
X51909999Y-115042000D03*
D14*
X54449999Y-119527000D03*
D13*
X51909999Y-124012000D03*
X53179999Y-124012000D03*
X54449999Y-124012000D03*
X55719999Y-124012000D03*
X56989999Y-124012000D03*
%TD*%
D10*
%TO.C,R1*%
X60650000Y-111700000D03*
X60650000Y-112720000D03*
%TD*%
D15*
%TO.C,AE1*%
X53430000Y-80695000D03*
D16*
X62530000Y-79820000D03*
D15*
X53430000Y-78945000D03*
%TD*%
D10*
%TO.C,R4*%
X55749999Y-126007000D03*
X55749999Y-127027000D03*
%TD*%
%TO.C,R3*%
X53249999Y-125967000D03*
X53249999Y-126987000D03*
%TD*%
D11*
%TO.C,R5*%
X56100000Y-112370000D03*
X56100000Y-111350000D03*
%TD*%
D17*
%TO.C,C4*%
X90262500Y-84605000D03*
X90262500Y-83645000D03*
%TD*%
%TO.C,C3*%
X92212500Y-84475000D03*
X92212500Y-83515000D03*
%TD*%
%TO.C,C1*%
X51800000Y-109060000D03*
X51800000Y-108100000D03*
%TD*%
D18*
%TO.C,U5*%
X64485600Y-110450000D03*
X64485600Y-110805600D03*
X64485600Y-111161200D03*
X65400000Y-111161200D03*
X65400000Y-110805600D03*
X65400000Y-110450000D03*
%TD*%
D19*
%TO.C,U6*%
X90475000Y-87875000D03*
X90475000Y-86375000D03*
D20*
X91637500Y-86212500D03*
X91137500Y-86212500D03*
D19*
X92800000Y-87875000D03*
D20*
X92137500Y-86212500D03*
X91637500Y-88037500D03*
D19*
X90475000Y-87375000D03*
D20*
X92137500Y-88037500D03*
D19*
X92800000Y-86375000D03*
D20*
X91137500Y-88037500D03*
D19*
X92800000Y-86875000D03*
X90475000Y-86875000D03*
X92800000Y-87375000D03*
%TD*%
D17*
%TO.C,C2*%
X53200000Y-113250000D03*
X53200000Y-112290000D03*
%TD*%
D21*
%TO.C,R6*%
X57050000Y-125900000D03*
X58070000Y-125900000D03*
%TD*%
D22*
%TO.C,C6*%
X63258500Y-108750000D03*
X62298500Y-108750000D03*
%TD*%
D23*
%TO.C,U1*%
X51749999Y-110527000D03*
X50799999Y-110527000D03*
X49849999Y-110527000D03*
X49849999Y-113027000D03*
X51749999Y-113027000D03*
%TD*%
D24*
%TO.C,C5*%
X60870000Y-121950000D03*
X61830000Y-121950000D03*
%TD*%
M02*
