%TF.GenerationSoftware,KiCad,Pcbnew,(6.0.0)*%
%TF.CreationDate,2022-02-26T12:31:52-08:00*%
%TF.ProjectId,Dog_Tracker,446f675f-5472-4616-936b-65722e6b6963,rev?*%
%TF.SameCoordinates,Original*%
%TF.FileFunction,Copper,L2,Inr*%
%TF.FilePolarity,Positive*%
%FSLAX46Y46*%
G04 Gerber Fmt 4.6, Leading zero omitted, Abs format (unit mm)*
G04 Created by KiCad (PCBNEW (6.0.0)) date 2022-02-26 12:31:52*
%MOMM*%
%LPD*%
G01*
G04 APERTURE LIST*
%TA.AperFunction,ComponentPad*%
%ADD10C,1.524000*%
%TD*%
%TA.AperFunction,ComponentPad*%
%ADD11C,0.600000*%
%TD*%
%TA.AperFunction,ComponentPad*%
%ADD12C,1.665000*%
%TD*%
%TA.AperFunction,ViaPad*%
%ADD13C,0.580000*%
%TD*%
%TA.AperFunction,ViaPad*%
%ADD14C,0.800000*%
%TD*%
G04 APERTURE END LIST*
D10*
%TO.N,Net-(IC1-Pad11)*%
%TO.C,LS1*%
X101266000Y-85558000D03*
%TO.N,GND*%
X119173000Y-96607000D03*
%TD*%
D11*
%TO.N,GND*%
%TO.C,U3*%
X57452397Y-117939500D03*
X55450798Y-117939500D03*
X57452397Y-121114500D03*
X53449199Y-117939500D03*
X57452397Y-119527000D03*
X53449199Y-121114500D03*
X51447600Y-119527000D03*
X51447600Y-121114500D03*
X53449199Y-119527000D03*
X55450798Y-121114500D03*
X51447600Y-117939500D03*
X55450798Y-119527000D03*
%TD*%
D12*
%TO.N,/lora reset*%
%TO.C,IC1*%
X81200000Y-93740000D03*
%TO.N,unconnected-(IC1-Pad2)*%
X83740000Y-93740000D03*
%TO.N,unconnected-(IC1-Pad3)*%
X86280000Y-93740000D03*
%TO.N,/MISO*%
X88820000Y-93740000D03*
%TO.N,/MOSI*%
X91360000Y-93740000D03*
%TO.N,/SCK*%
X93900000Y-93740000D03*
%TO.N,/lora cs*%
X96440000Y-93740000D03*
%TO.N,unconnected-(IC1-Pad8)*%
X98980000Y-93740000D03*
%TO.N,/BUSY*%
X101520000Y-93740000D03*
%TO.N,/GPS_ON*%
X104060000Y-93740000D03*
%TO.N,Net-(IC1-Pad11)*%
X106600000Y-93740000D03*
%TO.N,unconnected-(IC1-Pad12)*%
X109140000Y-93740000D03*
%TO.N,GND*%
X111680000Y-93740000D03*
%TO.N,unconnected-(IC1-Pad14)*%
X114220000Y-93740000D03*
%TO.N,+3V3*%
X116760000Y-93740000D03*
%TO.N,unconnected-(IC1-Pad16)*%
X119300000Y-93740000D03*
%TO.N,+3V8*%
X109140000Y-114060000D03*
%TO.N,unconnected-(IC1-Pad18)*%
X106600000Y-114060000D03*
%TO.N,unconnected-(IC1-Pad19)*%
X104060000Y-114060000D03*
%TO.N,unconnected-(IC1-Pad20)*%
X101520000Y-114060000D03*
%TO.N,/gps reset*%
X98980000Y-114060000D03*
%TO.N,/wakeup*%
X96440000Y-114060000D03*
%TO.N,unconnected-(IC1-Pad23)*%
X93900000Y-114060000D03*
%TO.N,unconnected-(IC1-Pad24)*%
X91360000Y-114060000D03*
%TO.N,unconnected-(IC1-Pad25)*%
X88820000Y-114060000D03*
%TO.N,/pedometer cs*%
X86280000Y-114060000D03*
%TO.N,/I2C_SCL*%
X83740000Y-114060000D03*
%TO.N,/I2C_SDA*%
X81200000Y-114060000D03*
%TD*%
D13*
%TO.N,GND*%
X61500000Y-117500000D03*
X61500000Y-116000000D03*
X61500000Y-114500000D03*
%TO.N,+3V3*%
X81150000Y-120490000D03*
X83700000Y-120540000D03*
X89362500Y-84625000D03*
X52750000Y-109050000D03*
X45550000Y-95850000D03*
X66500000Y-110750000D03*
X52950000Y-110450000D03*
X49850000Y-109250000D03*
%TO.N,GND*%
X58400000Y-111650000D03*
X96800000Y-102425000D03*
X72000000Y-84000000D03*
D14*
X64830000Y-80820000D03*
D13*
X63570000Y-110810000D03*
X64500000Y-82500000D03*
X61378499Y-108727000D03*
X93162500Y-83525000D03*
X64500000Y-85500000D03*
X133500000Y-119500000D03*
X94212500Y-85875000D03*
X133500000Y-123000000D03*
X68000000Y-84000000D03*
X72000000Y-89500000D03*
X45750000Y-89900000D03*
X98475000Y-98075000D03*
X65877798Y-87772202D03*
D14*
X64830000Y-78820000D03*
D13*
X50375000Y-81050000D03*
X46800000Y-84575000D03*
X51800000Y-107200000D03*
X55750000Y-127900000D03*
X123000000Y-123000000D03*
X102225000Y-96950000D03*
X46228000Y-118872000D03*
X91312500Y-83575000D03*
D14*
X50800000Y-78920000D03*
D13*
X68000000Y-86500000D03*
X72000000Y-86500000D03*
X59000000Y-106500000D03*
X49200000Y-82125000D03*
X126492429Y-119468341D03*
X89150000Y-109950000D03*
X91110000Y-85020000D03*
X47975000Y-83250000D03*
X53200000Y-111250000D03*
X130000000Y-119500000D03*
X133500000Y-111500000D03*
D14*
X64830000Y-79820000D03*
D13*
X133500000Y-115500000D03*
X94212500Y-87525000D03*
X76000000Y-86500000D03*
X46228000Y-121412000D03*
X59000000Y-104000000D03*
X51500000Y-86000000D03*
X59000000Y-109000000D03*
X51500000Y-83000000D03*
X63500000Y-103800000D03*
X129954578Y-115479696D03*
X129984859Y-122992429D03*
X46228000Y-115824000D03*
X89212500Y-86875000D03*
X50800000Y-109250000D03*
X126492429Y-122977289D03*
X62771500Y-121973000D03*
X94212500Y-86725000D03*
X68000000Y-89500000D03*
X91725000Y-104775000D03*
X46375000Y-86350000D03*
X64500000Y-84000000D03*
X76000000Y-84000000D03*
X51475000Y-84500000D03*
%TO.N,/lora reset*%
X65360000Y-91850000D03*
%TO.N,/SCK*%
X91523000Y-89250000D03*
X65620000Y-95290000D03*
%TO.N,/MOSI*%
X67020000Y-95340000D03*
X91600000Y-90700000D03*
%TO.N,/MISO*%
X68112500Y-95375000D03*
X94112500Y-88825000D03*
%TO.N,/GPS_ON*%
X61750000Y-111750000D03*
%TO.N,/gps reset*%
X54500000Y-125350000D03*
%TO.N,/wakeup*%
X50900000Y-125350000D03*
%TO.N,/pedometer cs*%
X89522701Y-89302701D03*
%TO.N,/BUSY*%
X49750000Y-93840000D03*
%TD*%
%TA.AperFunction,Conductor*%
%TO.N,GND*%
G36*
X124965013Y-75803652D02*
G01*
X125406022Y-75816263D01*
X125407876Y-75816330D01*
X125774838Y-75832235D01*
X125779064Y-75832490D01*
X125944542Y-75845244D01*
X126218006Y-75866320D01*
X126219826Y-75866475D01*
X126586607Y-75900463D01*
X126590646Y-75900904D01*
X126991788Y-75951413D01*
X127026646Y-75955802D01*
X127028673Y-75956074D01*
X127394031Y-76008116D01*
X127398025Y-76008751D01*
X127830058Y-76084508D01*
X127832163Y-76084895D01*
X128103965Y-76137330D01*
X128195307Y-76154952D01*
X128199127Y-76155751D01*
X128626492Y-76252180D01*
X128628548Y-76252662D01*
X128828964Y-76301636D01*
X128988390Y-76340594D01*
X128992118Y-76341566D01*
X129209803Y-76401870D01*
X129413838Y-76458393D01*
X129415931Y-76458994D01*
X129771546Y-76564631D01*
X129775092Y-76565742D01*
X130190177Y-76702644D01*
X130192474Y-76703426D01*
X130542824Y-76826507D01*
X130546262Y-76827772D01*
X130953881Y-76984427D01*
X130956205Y-76985347D01*
X131000860Y-77003542D01*
X131300385Y-77125589D01*
X131303669Y-77126982D01*
X131582132Y-77249751D01*
X131702999Y-77303039D01*
X131705323Y-77304092D01*
X132042550Y-77461213D01*
X132045630Y-77462700D01*
X132176564Y-77528156D01*
X132435781Y-77657743D01*
X132438193Y-77658982D01*
X132675522Y-77784080D01*
X132754804Y-77825870D01*
X132767393Y-77832506D01*
X132770349Y-77834115D01*
X133150467Y-78047692D01*
X133152852Y-78049067D01*
X133473411Y-78238696D01*
X133476059Y-78240309D01*
X133845389Y-78471985D01*
X133847766Y-78473516D01*
X133918571Y-78520237D01*
X134158672Y-78678671D01*
X134161310Y-78680460D01*
X134518767Y-78929536D01*
X134521206Y-78931278D01*
X134821770Y-79151514D01*
X134824188Y-79153332D01*
X135110471Y-79374102D01*
X135169226Y-79419412D01*
X135171651Y-79421330D01*
X135460980Y-79655994D01*
X135463285Y-79657910D01*
X135795051Y-79940338D01*
X135797452Y-79942434D01*
X135808016Y-79951898D01*
X136074934Y-80191027D01*
X136077017Y-80192937D01*
X136394859Y-80491165D01*
X136397160Y-80493381D01*
X136524095Y-80618859D01*
X136661993Y-80755174D01*
X136663967Y-80757169D01*
X136967132Y-81070511D01*
X136969448Y-81072970D01*
X137220992Y-81347306D01*
X137222739Y-81349254D01*
X137510575Y-81677063D01*
X137512790Y-81679657D01*
X137614989Y-81802732D01*
X137750396Y-81965798D01*
X137752047Y-81967828D01*
X138023818Y-82309297D01*
X138025998Y-82312117D01*
X138249166Y-82609422D01*
X138250548Y-82611302D01*
X138477605Y-82926743D01*
X138505721Y-82965804D01*
X138507817Y-82968808D01*
X138715887Y-83276349D01*
X138717228Y-83278371D01*
X138955142Y-83645045D01*
X138957140Y-83648228D01*
X139149639Y-83965228D01*
X139150763Y-83967118D01*
X139314075Y-84247624D01*
X139370975Y-84345356D01*
X139372850Y-84348694D01*
X139549360Y-84674385D01*
X139550328Y-84676210D01*
X139727266Y-85016992D01*
X139752201Y-85065016D01*
X139753966Y-85068549D01*
X139914006Y-85401933D01*
X139914916Y-85403870D01*
X140098016Y-85802513D01*
X140099612Y-85806140D01*
X140217745Y-86086746D01*
X140242843Y-86146362D01*
X140243608Y-86148223D01*
X140389422Y-86510937D01*
X140407492Y-86555887D01*
X140408963Y-86559727D01*
X140535046Y-86905793D01*
X140535699Y-86907631D01*
X140679958Y-87323493D01*
X140681278Y-87327516D01*
X140789938Y-87678415D01*
X140790474Y-87680191D01*
X140914739Y-88103446D01*
X140915887Y-88107620D01*
X141006940Y-88462421D01*
X141007361Y-88464110D01*
X141108737Y-88883378D01*
X141111288Y-88893930D01*
X141112250Y-88898239D01*
X141152312Y-89093738D01*
X141185555Y-89255965D01*
X141185877Y-89257593D01*
X141269133Y-89693068D01*
X141269892Y-89697459D01*
X141321741Y-90033617D01*
X141325342Y-90056965D01*
X141325572Y-90058518D01*
X141387891Y-90498913D01*
X141388453Y-90503484D01*
X141425515Y-90858741D01*
X141426032Y-90863700D01*
X141426172Y-90865129D01*
X141456386Y-91191744D01*
X141467291Y-91309635D01*
X141467636Y-91314320D01*
X141472342Y-91400008D01*
X141487387Y-91673984D01*
X141487456Y-91675362D01*
X141507135Y-92123258D01*
X141507254Y-92128062D01*
X141509321Y-92486169D01*
X141509322Y-92487453D01*
X141508285Y-92722127D01*
X141507608Y-92875302D01*
X141507331Y-92937868D01*
X141507214Y-92942751D01*
X141502016Y-93062685D01*
X141491816Y-93298022D01*
X141491759Y-93299210D01*
X141488947Y-93352472D01*
X141468544Y-93738868D01*
X141467874Y-93751548D01*
X141467512Y-93756522D01*
X141458210Y-93856903D01*
X141434984Y-94107538D01*
X141434879Y-94108625D01*
X141396727Y-94484760D01*
X141388858Y-94562336D01*
X141388246Y-94567360D01*
X141361587Y-94754513D01*
X141339039Y-94912810D01*
X141338894Y-94913798D01*
X141270466Y-95368346D01*
X141269589Y-95373457D01*
X141262278Y-95411355D01*
X141206064Y-95702745D01*
X141204330Y-95711731D01*
X141204174Y-95712521D01*
X141173746Y-95864382D01*
X141112986Y-96167620D01*
X141111841Y-96172774D01*
X141031334Y-96502232D01*
X141031211Y-96502728D01*
X141001803Y-96619812D01*
X140916776Y-96958328D01*
X140915358Y-96963503D01*
X140890256Y-97048007D01*
X140820812Y-97281782D01*
X140820606Y-97282466D01*
X140682314Y-97738530D01*
X140680614Y-97743729D01*
X140573645Y-98048219D01*
X140573438Y-98048803D01*
X140410138Y-98506441D01*
X140408152Y-98511640D01*
X140291154Y-98798775D01*
X140291103Y-98798900D01*
X140100909Y-99260181D01*
X140098648Y-99265335D01*
X139991965Y-99494305D01*
X139975415Y-99529827D01*
X139975233Y-99530214D01*
X139755355Y-99997977D01*
X139752788Y-100003130D01*
X139630335Y-100235439D01*
X139630179Y-100235733D01*
X139374285Y-100718101D01*
X139371424Y-100723205D01*
X139264467Y-100904011D01*
X139264346Y-100904216D01*
X138958602Y-101418842D01*
X138955444Y-101423881D01*
X138906894Y-101497457D01*
X138906825Y-101497562D01*
X138772759Y-101700235D01*
X138511569Y-102095086D01*
X138508088Y-102100082D01*
X138507188Y-102101309D01*
X138031809Y-102749564D01*
X138031780Y-102749572D01*
X138031744Y-102749634D01*
X138031682Y-102749670D01*
X138031645Y-102749807D01*
X138031573Y-102749931D01*
X138031592Y-102750000D01*
X138031573Y-102750069D01*
X138031645Y-102750193D01*
X138031682Y-102750330D01*
X138031744Y-102750366D01*
X138031780Y-102750428D01*
X138031809Y-102750436D01*
X138038277Y-102759256D01*
X138038277Y-102759257D01*
X138508088Y-103399918D01*
X138511569Y-103404914D01*
X138523949Y-103423629D01*
X138900957Y-103993566D01*
X138906816Y-104002424D01*
X138906894Y-104002543D01*
X138955444Y-104076119D01*
X138958602Y-104081158D01*
X139264346Y-104595784D01*
X139264467Y-104595989D01*
X139371424Y-104776795D01*
X139374285Y-104781899D01*
X139478983Y-104979257D01*
X139630258Y-105264415D01*
X139752788Y-105496871D01*
X139755355Y-105502023D01*
X139975233Y-105969786D01*
X139975415Y-105970173D01*
X140098648Y-106234665D01*
X140100909Y-106239819D01*
X140291103Y-106701100D01*
X140393087Y-106951388D01*
X140408152Y-106988360D01*
X140410138Y-106993559D01*
X140573438Y-107451197D01*
X140573645Y-107451781D01*
X140680614Y-107756271D01*
X140682314Y-107761470D01*
X140820606Y-108217534D01*
X140820812Y-108218218D01*
X140915356Y-108536488D01*
X140916774Y-108541664D01*
X141031211Y-108997272D01*
X141031334Y-108997768D01*
X141056987Y-109102745D01*
X141111841Y-109327226D01*
X141112986Y-109332380D01*
X141194528Y-109739334D01*
X141204155Y-109787382D01*
X141204317Y-109788201D01*
X141237430Y-109959844D01*
X141269589Y-110126543D01*
X141270466Y-110131654D01*
X141338894Y-110586202D01*
X141339039Y-110587190D01*
X141340436Y-110596994D01*
X141388246Y-110932640D01*
X141388855Y-110937641D01*
X141425858Y-111302440D01*
X141434879Y-111391373D01*
X141434984Y-111392462D01*
X141467511Y-111743470D01*
X141467873Y-111748445D01*
X141474992Y-111883262D01*
X141491759Y-112200790D01*
X141491816Y-112201978D01*
X141503921Y-112481249D01*
X141507214Y-112557233D01*
X141507331Y-112562132D01*
X141509322Y-113012547D01*
X141509321Y-113013831D01*
X141507254Y-113371938D01*
X141507135Y-113376742D01*
X141487456Y-113824638D01*
X141487389Y-113825973D01*
X141474345Y-114063522D01*
X141467637Y-114185668D01*
X141467292Y-114190353D01*
X141427843Y-114616810D01*
X141426176Y-114634832D01*
X141426035Y-114636265D01*
X141388454Y-114996507D01*
X141387891Y-115001087D01*
X141325572Y-115441482D01*
X141325342Y-115443035D01*
X141269892Y-115802541D01*
X141269133Y-115806932D01*
X141204326Y-116145910D01*
X141185878Y-116242402D01*
X141185555Y-116244035D01*
X141112252Y-116601752D01*
X141111288Y-116606070D01*
X141007366Y-117035870D01*
X141006940Y-117037579D01*
X140915887Y-117392380D01*
X140914739Y-117396554D01*
X140790474Y-117819809D01*
X140789938Y-117821585D01*
X140681278Y-118172484D01*
X140679958Y-118176507D01*
X140535699Y-118592369D01*
X140535048Y-118594200D01*
X140447508Y-118834479D01*
X140408973Y-118940248D01*
X140407492Y-118944113D01*
X140243621Y-119351746D01*
X140242855Y-119353609D01*
X140099612Y-119693860D01*
X140098016Y-119697487D01*
X139922971Y-120078593D01*
X139914916Y-120096130D01*
X139914006Y-120098067D01*
X139753966Y-120431451D01*
X139752207Y-120434972D01*
X139550343Y-120823761D01*
X139549360Y-120825615D01*
X139372862Y-121151285D01*
X139370975Y-121154644D01*
X139150763Y-121532882D01*
X139149639Y-121534772D01*
X139030338Y-121731232D01*
X138957140Y-121851772D01*
X138955142Y-121854955D01*
X138717228Y-122221629D01*
X138715887Y-122223651D01*
X138507817Y-122531192D01*
X138505721Y-122534196D01*
X138250548Y-122888698D01*
X138249166Y-122890578D01*
X138027952Y-123185280D01*
X138026000Y-123187880D01*
X138023818Y-123190703D01*
X137752047Y-123532172D01*
X137750396Y-123534202D01*
X137512790Y-123820343D01*
X137510575Y-123822937D01*
X137222739Y-124150746D01*
X137220992Y-124152694D01*
X137048368Y-124340959D01*
X136969448Y-124427030D01*
X136967132Y-124429489D01*
X136663967Y-124742831D01*
X136661993Y-124744826D01*
X136397160Y-125006619D01*
X136394859Y-125008835D01*
X136077017Y-125307063D01*
X136074934Y-125308973D01*
X136006313Y-125370450D01*
X135797452Y-125557566D01*
X135795051Y-125559662D01*
X135463285Y-125842090D01*
X135460980Y-125844006D01*
X135171651Y-126078670D01*
X135169226Y-126080588D01*
X134824188Y-126346668D01*
X134821770Y-126348486D01*
X134582136Y-126524076D01*
X134521206Y-126568722D01*
X134518767Y-126570464D01*
X134161310Y-126819540D01*
X134158672Y-126821329D01*
X134039408Y-126900027D01*
X133874250Y-127009009D01*
X133847779Y-127026476D01*
X133845389Y-127028015D01*
X133476059Y-127259691D01*
X133473411Y-127261304D01*
X133152852Y-127450933D01*
X133150467Y-127452308D01*
X132995896Y-127539157D01*
X132770360Y-127665879D01*
X132767404Y-127667488D01*
X132754069Y-127674517D01*
X132438193Y-127841018D01*
X132435781Y-127842257D01*
X132176564Y-127971844D01*
X132045630Y-128037300D01*
X132042550Y-128038787D01*
X131705323Y-128195908D01*
X131702999Y-128196961D01*
X131587805Y-128247748D01*
X131303669Y-128373018D01*
X131300385Y-128374411D01*
X131124899Y-128445916D01*
X130956205Y-128514653D01*
X130953881Y-128515573D01*
X130546262Y-128672228D01*
X130542824Y-128673493D01*
X130192474Y-128796574D01*
X130190177Y-128797356D01*
X129775092Y-128934258D01*
X129771546Y-128935369D01*
X129415931Y-129041006D01*
X129413838Y-129041607D01*
X129280522Y-129078539D01*
X128992118Y-129158434D01*
X128988390Y-129159406D01*
X128860470Y-129190665D01*
X128628548Y-129247338D01*
X128626492Y-129247820D01*
X128199127Y-129344249D01*
X128195307Y-129345048D01*
X128134569Y-129356766D01*
X127832163Y-129415105D01*
X127830058Y-129415492D01*
X127398025Y-129491249D01*
X127394031Y-129491884D01*
X127028673Y-129543926D01*
X127026646Y-129544198D01*
X126590646Y-129599096D01*
X126586607Y-129599537D01*
X126219826Y-129633525D01*
X126218006Y-129633680D01*
X125944542Y-129654756D01*
X125779064Y-129667510D01*
X125774838Y-129667765D01*
X125407876Y-129683670D01*
X125406022Y-129683737D01*
X124965013Y-129696348D01*
X124960684Y-129696397D01*
X124594371Y-129694283D01*
X124592611Y-129694260D01*
X124369896Y-129689863D01*
X124150568Y-129685532D01*
X124146155Y-129685367D01*
X123781600Y-129665348D01*
X123779940Y-129665246D01*
X123337562Y-129635084D01*
X123333059Y-129634696D01*
X122971290Y-129596955D01*
X122969730Y-129596782D01*
X122728366Y-129568558D01*
X122527956Y-129545123D01*
X122523400Y-129544505D01*
X122466363Y-129535708D01*
X122165522Y-129489305D01*
X122164066Y-129489072D01*
X121723716Y-129415866D01*
X121719085Y-129415007D01*
X121617617Y-129394215D01*
X121366001Y-129342654D01*
X121364982Y-129342439D01*
X120950053Y-129252667D01*
X120926652Y-129247604D01*
X120921976Y-129246498D01*
X120575164Y-129157495D01*
X120573922Y-129157170D01*
X120140851Y-129041313D01*
X120138737Y-129040747D01*
X120134047Y-129039394D01*
X119979346Y-128991489D01*
X119794410Y-128934221D01*
X119793277Y-128933864D01*
X119361850Y-128795793D01*
X119357138Y-128794182D01*
X119025704Y-128673431D01*
X119024805Y-128673098D01*
X118597754Y-128513295D01*
X118593042Y-128511424D01*
X118271273Y-128375961D01*
X118270603Y-128375675D01*
X117848287Y-128193928D01*
X117843589Y-128191791D01*
X117532964Y-128042676D01*
X117532352Y-128042380D01*
X117115275Y-127838468D01*
X117110592Y-127836055D01*
X116812526Y-127674517D01*
X116811919Y-127674186D01*
X116400424Y-127447745D01*
X116395770Y-127445053D01*
X116112056Y-127272767D01*
X116111447Y-127272395D01*
X115714152Y-127028047D01*
X115705390Y-127022658D01*
X115700805Y-127019698D01*
X115433673Y-126838967D01*
X115433319Y-126838727D01*
X115031866Y-126564237D01*
X115027383Y-126561024D01*
X114779315Y-126374814D01*
X114381513Y-126073619D01*
X114377115Y-126070131D01*
X114232702Y-125950213D01*
X114152600Y-125883697D01*
X114152272Y-125883423D01*
X113962077Y-125724393D01*
X113755757Y-125551880D01*
X113751458Y-125548116D01*
X113557939Y-125370675D01*
X113557870Y-125370612D01*
X113156118Y-125000279D01*
X113151941Y-124996245D01*
X113133504Y-124977593D01*
X113004204Y-124846792D01*
X113004045Y-124846630D01*
X112593246Y-124429489D01*
X112584082Y-124420184D01*
X112580021Y-124415860D01*
X112521344Y-124350363D01*
X112521249Y-124350258D01*
X112047584Y-123820343D01*
X112043641Y-123815931D01*
X112039703Y-123811305D01*
X112039689Y-123811287D01*
X111532564Y-123185546D01*
X111532538Y-123185450D01*
X111532508Y-123185432D01*
X111532493Y-123185397D01*
X111532329Y-123185329D01*
X111532179Y-123185243D01*
X111532044Y-123185280D01*
X71300070Y-123185280D01*
X71299933Y-123185242D01*
X71299778Y-123185331D01*
X71299617Y-123185397D01*
X71299603Y-123185431D01*
X71299573Y-123185448D01*
X71299546Y-123185544D01*
X70880812Y-123697268D01*
X70792564Y-123805113D01*
X70788598Y-123809727D01*
X70338822Y-124308168D01*
X70309232Y-124340959D01*
X70309136Y-124341065D01*
X70252777Y-124403379D01*
X70248686Y-124407694D01*
X69827934Y-124830933D01*
X69827765Y-124831102D01*
X69681582Y-124977593D01*
X69677354Y-124981637D01*
X69458807Y-125181195D01*
X69275405Y-125348661D01*
X69112246Y-125496854D01*
X69083145Y-125523285D01*
X69078797Y-125527056D01*
X68682255Y-125855457D01*
X68681924Y-125855730D01*
X68458857Y-126039191D01*
X68454405Y-126042688D01*
X68057256Y-126340453D01*
X68056837Y-126340766D01*
X67810218Y-126524076D01*
X67805684Y-126527294D01*
X67741902Y-126570464D01*
X67405040Y-126798466D01*
X67404527Y-126798811D01*
X67138730Y-126976818D01*
X67134119Y-126979763D01*
X66728821Y-127226407D01*
X66728210Y-127226776D01*
X66446021Y-127396318D01*
X66441355Y-127398988D01*
X66030834Y-127622378D01*
X66030122Y-127622762D01*
X65733712Y-127781599D01*
X65729007Y-127783995D01*
X65313110Y-127984906D01*
X65312596Y-127985152D01*
X65129676Y-128071903D01*
X65003502Y-128131742D01*
X64998772Y-128133867D01*
X64577872Y-128312657D01*
X64576951Y-128313044D01*
X64257105Y-128445925D01*
X64252411Y-128447764D01*
X63828056Y-128604280D01*
X63826831Y-128604732D01*
X63825809Y-128605105D01*
X63802575Y-128613446D01*
X63496359Y-128723377D01*
X63491642Y-128724965D01*
X63061742Y-128860318D01*
X63060736Y-128860629D01*
X62722971Y-128963479D01*
X62718297Y-128964803D01*
X62284944Y-129078549D01*
X62283779Y-129078849D01*
X62137050Y-129115768D01*
X61938849Y-129165637D01*
X61934167Y-129166720D01*
X61498002Y-129258936D01*
X61496651Y-129259214D01*
X61145830Y-129329381D01*
X61141195Y-129330218D01*
X60872800Y-129373539D01*
X60702903Y-129400961D01*
X60701560Y-129401170D01*
X60608955Y-129415007D01*
X60345787Y-129454328D01*
X60341212Y-129454926D01*
X59901624Y-129504230D01*
X59900063Y-129504395D01*
X59802625Y-129514096D01*
X59540612Y-129540181D01*
X59536139Y-129540546D01*
X59096062Y-129568466D01*
X59094448Y-129568558D01*
X58966726Y-129574968D01*
X58732267Y-129586734D01*
X58727846Y-129586878D01*
X58388567Y-129591977D01*
X58288127Y-129593487D01*
X58286384Y-129593501D01*
X57922567Y-129593886D01*
X57918292Y-129593816D01*
X57589659Y-129582867D01*
X57479859Y-129579209D01*
X57478006Y-129579134D01*
X57378512Y-129574352D01*
X57113510Y-129561613D01*
X57109334Y-129561342D01*
X56754272Y-129532291D01*
X56673013Y-129525642D01*
X56671070Y-129525468D01*
X56307085Y-129490007D01*
X56302980Y-129489539D01*
X55869667Y-129432902D01*
X55867641Y-129432621D01*
X55505028Y-129379224D01*
X55501037Y-129378570D01*
X55301741Y-129342654D01*
X55071675Y-129301193D01*
X55069646Y-129300810D01*
X54924698Y-129272137D01*
X54709358Y-129229539D01*
X54705497Y-129228712D01*
X54360884Y-129149247D01*
X54280947Y-129130814D01*
X54278801Y-129130298D01*
X53921952Y-129041313D01*
X53918227Y-129040324D01*
X53499393Y-128922166D01*
X53497156Y-128921512D01*
X53144617Y-128814977D01*
X53141035Y-128813836D01*
X52728846Y-128675731D01*
X52726553Y-128674938D01*
X52718954Y-128672228D01*
X52379221Y-128551074D01*
X52375876Y-128549826D01*
X51971134Y-128392083D01*
X51968854Y-128391168D01*
X51627628Y-128250249D01*
X51624412Y-128248868D01*
X51319746Y-128112826D01*
X51228099Y-128071903D01*
X51225721Y-128070811D01*
X50891623Y-127913226D01*
X50888503Y-127911702D01*
X50501446Y-127715920D01*
X50499039Y-127714670D01*
X50172897Y-127540786D01*
X50169938Y-127539157D01*
X49878439Y-127373560D01*
X49792909Y-127324971D01*
X49790490Y-127323560D01*
X49473143Y-127133804D01*
X49470348Y-127132083D01*
X49147926Y-126927707D01*
X49104247Y-126900020D01*
X49101825Y-126898445D01*
X49012086Y-126838620D01*
X48794081Y-126693287D01*
X48791451Y-126691486D01*
X48534718Y-126510790D01*
X48437005Y-126442017D01*
X48434586Y-126440270D01*
X48137248Y-126220235D01*
X48134785Y-126218365D01*
X47792908Y-125952142D01*
X47790491Y-125950213D01*
X47504195Y-125715762D01*
X47501899Y-125713835D01*
X47173307Y-125431426D01*
X47170916Y-125429318D01*
X46896572Y-125181195D01*
X46894443Y-125179224D01*
X46675646Y-124971981D01*
X46579730Y-124881129D01*
X46577388Y-124878852D01*
X46315658Y-124617674D01*
X46313722Y-124615700D01*
X46059314Y-124350258D01*
X46013675Y-124302639D01*
X46011370Y-124300169D01*
X45874976Y-124150000D01*
X47050000Y-124150000D01*
X47600000Y-125000000D01*
X47609083Y-125006739D01*
X48347335Y-125554474D01*
X48375000Y-125575000D01*
X48389751Y-125574992D01*
X48389752Y-125574992D01*
X49476757Y-125574369D01*
X50388581Y-125573846D01*
X50456712Y-125593809D01*
X50485103Y-125618771D01*
X50569704Y-125719416D01*
X50686663Y-125797271D01*
X50820772Y-125839169D01*
X50829742Y-125839333D01*
X50829746Y-125839334D01*
X50894544Y-125840521D01*
X50961250Y-125841744D01*
X51018624Y-125826102D01*
X51088145Y-125807149D01*
X51088147Y-125807148D01*
X51096804Y-125804788D01*
X51216538Y-125731271D01*
X51310825Y-125627105D01*
X51311249Y-125626231D01*
X51362824Y-125583511D01*
X51412533Y-125573260D01*
X53986847Y-125571785D01*
X54054979Y-125591748D01*
X54083369Y-125616708D01*
X54169704Y-125719416D01*
X54286663Y-125797271D01*
X54420772Y-125839169D01*
X54429742Y-125839333D01*
X54429746Y-125839334D01*
X54494544Y-125840521D01*
X54561250Y-125841744D01*
X54618624Y-125826102D01*
X54688145Y-125807149D01*
X54688147Y-125807148D01*
X54696804Y-125804788D01*
X54816538Y-125731271D01*
X54830576Y-125715762D01*
X54904801Y-125633761D01*
X54904803Y-125633758D01*
X54910825Y-125627105D01*
X54911984Y-125624712D01*
X54964208Y-125581450D01*
X55013922Y-125571196D01*
X60594000Y-125568000D01*
X60594000Y-120483946D01*
X80654493Y-120483946D01*
X80655657Y-120492848D01*
X80655657Y-120492851D01*
X80663406Y-120552107D01*
X80672711Y-120623262D01*
X80729297Y-120751864D01*
X80735074Y-120758737D01*
X80735075Y-120758738D01*
X80789733Y-120823761D01*
X80819704Y-120859416D01*
X80936663Y-120937271D01*
X81070772Y-120979169D01*
X81079742Y-120979333D01*
X81079746Y-120979334D01*
X81144544Y-120980521D01*
X81211250Y-120981744D01*
X81268624Y-120966102D01*
X81338145Y-120947149D01*
X81338147Y-120947148D01*
X81346804Y-120944788D01*
X81466538Y-120871271D01*
X81560825Y-120767105D01*
X81602311Y-120681477D01*
X81618172Y-120648741D01*
X81618172Y-120648740D01*
X81622086Y-120640662D01*
X81640040Y-120533946D01*
X83204493Y-120533946D01*
X83205657Y-120542848D01*
X83205657Y-120542851D01*
X83217247Y-120631477D01*
X83222711Y-120673262D01*
X83279297Y-120801864D01*
X83285074Y-120808737D01*
X83285075Y-120808738D01*
X83331858Y-120864393D01*
X83369704Y-120909416D01*
X83486663Y-120987271D01*
X83620772Y-121029169D01*
X83629742Y-121029333D01*
X83629746Y-121029334D01*
X83694544Y-121030521D01*
X83761250Y-121031744D01*
X83818624Y-121016102D01*
X83888145Y-120997149D01*
X83888147Y-120997148D01*
X83896804Y-120994788D01*
X84016538Y-120921271D01*
X84110825Y-120817105D01*
X84142434Y-120751864D01*
X84168172Y-120698741D01*
X84168172Y-120698740D01*
X84172086Y-120690662D01*
X84195396Y-120552107D01*
X84195544Y-120540000D01*
X84175626Y-120400917D01*
X84138534Y-120319337D01*
X84121187Y-120281185D01*
X84121186Y-120281183D01*
X84117472Y-120273015D01*
X84025758Y-120166576D01*
X84018227Y-120161695D01*
X84018224Y-120161692D01*
X83915388Y-120095037D01*
X83915386Y-120095036D01*
X83907857Y-120090156D01*
X83899260Y-120087585D01*
X83899258Y-120087584D01*
X83819216Y-120063647D01*
X83773246Y-120049899D01*
X83764270Y-120049844D01*
X83764269Y-120049844D01*
X83705015Y-120049482D01*
X83632747Y-120049041D01*
X83497654Y-120087651D01*
X83378828Y-120162624D01*
X83285821Y-120267935D01*
X83226109Y-120395117D01*
X83224729Y-120403981D01*
X83224728Y-120403984D01*
X83208704Y-120506903D01*
X83204493Y-120533946D01*
X81640040Y-120533946D01*
X81645396Y-120502107D01*
X81645544Y-120490000D01*
X81625626Y-120350917D01*
X81567472Y-120223015D01*
X81475758Y-120116576D01*
X81468227Y-120111695D01*
X81468224Y-120111692D01*
X81365388Y-120045037D01*
X81365386Y-120045036D01*
X81357857Y-120040156D01*
X81349260Y-120037585D01*
X81349258Y-120037584D01*
X81269216Y-120013647D01*
X81223246Y-119999899D01*
X81214270Y-119999844D01*
X81214269Y-119999844D01*
X81155015Y-119999482D01*
X81082747Y-119999041D01*
X80947654Y-120037651D01*
X80828828Y-120112624D01*
X80735821Y-120217935D01*
X80676109Y-120345117D01*
X80674729Y-120353981D01*
X80674728Y-120353984D01*
X80662667Y-120431451D01*
X80654493Y-120483946D01*
X60594000Y-120483946D01*
X60594000Y-114045507D01*
X80162103Y-114045507D01*
X80179055Y-114247379D01*
X80234894Y-114442113D01*
X80237713Y-114447598D01*
X80324676Y-114616810D01*
X80324679Y-114616815D01*
X80327494Y-114622292D01*
X80453327Y-114781054D01*
X80458021Y-114785049D01*
X80501609Y-114822145D01*
X80607600Y-114912351D01*
X80784439Y-115011183D01*
X80977105Y-115073784D01*
X81178262Y-115097770D01*
X81184397Y-115097298D01*
X81184399Y-115097298D01*
X81374105Y-115082701D01*
X81374110Y-115082700D01*
X81380246Y-115082228D01*
X81386176Y-115080572D01*
X81386178Y-115080572D01*
X81477806Y-115054989D01*
X81575366Y-115027750D01*
X81604394Y-115013087D01*
X81750686Y-114939190D01*
X81750688Y-114939189D01*
X81756187Y-114936411D01*
X81915824Y-114811689D01*
X81942268Y-114781054D01*
X82044168Y-114663001D01*
X82048195Y-114658336D01*
X82148258Y-114482192D01*
X82212203Y-114289967D01*
X82237593Y-114088983D01*
X82237998Y-114060000D01*
X82236577Y-114045507D01*
X82702103Y-114045507D01*
X82719055Y-114247379D01*
X82774894Y-114442113D01*
X82777713Y-114447598D01*
X82864676Y-114616810D01*
X82864679Y-114616815D01*
X82867494Y-114622292D01*
X82993327Y-114781054D01*
X82998021Y-114785049D01*
X83041609Y-114822145D01*
X83147600Y-114912351D01*
X83324439Y-115011183D01*
X83517105Y-115073784D01*
X83718262Y-115097770D01*
X83724397Y-115097298D01*
X83724399Y-115097298D01*
X83914105Y-115082701D01*
X83914110Y-115082700D01*
X83920246Y-115082228D01*
X83926176Y-115080572D01*
X83926178Y-115080572D01*
X84017806Y-115054989D01*
X84115366Y-115027750D01*
X84144394Y-115013087D01*
X84290686Y-114939190D01*
X84290688Y-114939189D01*
X84296187Y-114936411D01*
X84455824Y-114811689D01*
X84482268Y-114781054D01*
X84584168Y-114663001D01*
X84588195Y-114658336D01*
X84688258Y-114482192D01*
X84752203Y-114289967D01*
X84777593Y-114088983D01*
X84777998Y-114060000D01*
X84776577Y-114045507D01*
X85242103Y-114045507D01*
X85259055Y-114247379D01*
X85314894Y-114442113D01*
X85317713Y-114447598D01*
X85404676Y-114616810D01*
X85404679Y-114616815D01*
X85407494Y-114622292D01*
X85533327Y-114781054D01*
X85538021Y-114785049D01*
X85581609Y-114822145D01*
X85687600Y-114912351D01*
X85864439Y-115011183D01*
X86057105Y-115073784D01*
X86258262Y-115097770D01*
X86264397Y-115097298D01*
X86264399Y-115097298D01*
X86454105Y-115082701D01*
X86454110Y-115082700D01*
X86460246Y-115082228D01*
X86466176Y-115080572D01*
X86466178Y-115080572D01*
X86557806Y-115054989D01*
X86655366Y-115027750D01*
X86684394Y-115013087D01*
X86830686Y-114939190D01*
X86830688Y-114939189D01*
X86836187Y-114936411D01*
X86995824Y-114811689D01*
X87022268Y-114781054D01*
X87124168Y-114663001D01*
X87128195Y-114658336D01*
X87228258Y-114482192D01*
X87292203Y-114289967D01*
X87317593Y-114088983D01*
X87317998Y-114060000D01*
X87316577Y-114045507D01*
X87782103Y-114045507D01*
X87799055Y-114247379D01*
X87854894Y-114442113D01*
X87857713Y-114447598D01*
X87944676Y-114616810D01*
X87944679Y-114616815D01*
X87947494Y-114622292D01*
X88073327Y-114781054D01*
X88078021Y-114785049D01*
X88121609Y-114822145D01*
X88227600Y-114912351D01*
X88404439Y-115011183D01*
X88597105Y-115073784D01*
X88798262Y-115097770D01*
X88804397Y-115097298D01*
X88804399Y-115097298D01*
X88994105Y-115082701D01*
X88994110Y-115082700D01*
X89000246Y-115082228D01*
X89006176Y-115080572D01*
X89006178Y-115080572D01*
X89097806Y-115054989D01*
X89195366Y-115027750D01*
X89224394Y-115013087D01*
X89370686Y-114939190D01*
X89370688Y-114939189D01*
X89376187Y-114936411D01*
X89535824Y-114811689D01*
X89562268Y-114781054D01*
X89664168Y-114663001D01*
X89668195Y-114658336D01*
X89768258Y-114482192D01*
X89832203Y-114289967D01*
X89857593Y-114088983D01*
X89857998Y-114060000D01*
X89856577Y-114045507D01*
X90322103Y-114045507D01*
X90339055Y-114247379D01*
X90394894Y-114442113D01*
X90397713Y-114447598D01*
X90484676Y-114616810D01*
X90484679Y-114616815D01*
X90487494Y-114622292D01*
X90613327Y-114781054D01*
X90618021Y-114785049D01*
X90661609Y-114822145D01*
X90767600Y-114912351D01*
X90944439Y-115011183D01*
X91137105Y-115073784D01*
X91338262Y-115097770D01*
X91344397Y-115097298D01*
X91344399Y-115097298D01*
X91534105Y-115082701D01*
X91534110Y-115082700D01*
X91540246Y-115082228D01*
X91546176Y-115080572D01*
X91546178Y-115080572D01*
X91637806Y-115054989D01*
X91735366Y-115027750D01*
X91764394Y-115013087D01*
X91910686Y-114939190D01*
X91910688Y-114939189D01*
X91916187Y-114936411D01*
X92075824Y-114811689D01*
X92102268Y-114781054D01*
X92204168Y-114663001D01*
X92208195Y-114658336D01*
X92308258Y-114482192D01*
X92372203Y-114289967D01*
X92397593Y-114088983D01*
X92397998Y-114060000D01*
X92396577Y-114045507D01*
X92862103Y-114045507D01*
X92879055Y-114247379D01*
X92934894Y-114442113D01*
X92937713Y-114447598D01*
X93024676Y-114616810D01*
X93024679Y-114616815D01*
X93027494Y-114622292D01*
X93153327Y-114781054D01*
X93158021Y-114785049D01*
X93201609Y-114822145D01*
X93307600Y-114912351D01*
X93484439Y-115011183D01*
X93677105Y-115073784D01*
X93878262Y-115097770D01*
X93884397Y-115097298D01*
X93884399Y-115097298D01*
X94074105Y-115082701D01*
X94074110Y-115082700D01*
X94080246Y-115082228D01*
X94086176Y-115080572D01*
X94086178Y-115080572D01*
X94177806Y-115054989D01*
X94275366Y-115027750D01*
X94304394Y-115013087D01*
X94450686Y-114939190D01*
X94450688Y-114939189D01*
X94456187Y-114936411D01*
X94615824Y-114811689D01*
X94642268Y-114781054D01*
X94744168Y-114663001D01*
X94748195Y-114658336D01*
X94848258Y-114482192D01*
X94912203Y-114289967D01*
X94937593Y-114088983D01*
X94937998Y-114060000D01*
X94936577Y-114045507D01*
X95402103Y-114045507D01*
X95419055Y-114247379D01*
X95474894Y-114442113D01*
X95477713Y-114447598D01*
X95564676Y-114616810D01*
X95564679Y-114616815D01*
X95567494Y-114622292D01*
X95693327Y-114781054D01*
X95698021Y-114785049D01*
X95741609Y-114822145D01*
X95847600Y-114912351D01*
X96024439Y-115011183D01*
X96217105Y-115073784D01*
X96418262Y-115097770D01*
X96424397Y-115097298D01*
X96424399Y-115097298D01*
X96614105Y-115082701D01*
X96614110Y-115082700D01*
X96620246Y-115082228D01*
X96626176Y-115080572D01*
X96626178Y-115080572D01*
X96717806Y-115054989D01*
X96815366Y-115027750D01*
X96844394Y-115013087D01*
X96990686Y-114939190D01*
X96990688Y-114939189D01*
X96996187Y-114936411D01*
X97155824Y-114811689D01*
X97182268Y-114781054D01*
X97284168Y-114663001D01*
X97288195Y-114658336D01*
X97388258Y-114482192D01*
X97452203Y-114289967D01*
X97477593Y-114088983D01*
X97477998Y-114060000D01*
X97476577Y-114045507D01*
X97942103Y-114045507D01*
X97959055Y-114247379D01*
X98014894Y-114442113D01*
X98017713Y-114447598D01*
X98104676Y-114616810D01*
X98104679Y-114616815D01*
X98107494Y-114622292D01*
X98233327Y-114781054D01*
X98238021Y-114785049D01*
X98281609Y-114822145D01*
X98387600Y-114912351D01*
X98564439Y-115011183D01*
X98757105Y-115073784D01*
X98958262Y-115097770D01*
X98964397Y-115097298D01*
X98964399Y-115097298D01*
X99154105Y-115082701D01*
X99154110Y-115082700D01*
X99160246Y-115082228D01*
X99166176Y-115080572D01*
X99166178Y-115080572D01*
X99257806Y-115054989D01*
X99355366Y-115027750D01*
X99384394Y-115013087D01*
X99530686Y-114939190D01*
X99530688Y-114939189D01*
X99536187Y-114936411D01*
X99695824Y-114811689D01*
X99722268Y-114781054D01*
X99824168Y-114663001D01*
X99828195Y-114658336D01*
X99928258Y-114482192D01*
X99992203Y-114289967D01*
X100017593Y-114088983D01*
X100017998Y-114060000D01*
X100016577Y-114045507D01*
X100482103Y-114045507D01*
X100499055Y-114247379D01*
X100554894Y-114442113D01*
X100557713Y-114447598D01*
X100644676Y-114616810D01*
X100644679Y-114616815D01*
X100647494Y-114622292D01*
X100773327Y-114781054D01*
X100778021Y-114785049D01*
X100821609Y-114822145D01*
X100927600Y-114912351D01*
X101104439Y-115011183D01*
X101297105Y-115073784D01*
X101498262Y-115097770D01*
X101504397Y-115097298D01*
X101504399Y-115097298D01*
X101694105Y-115082701D01*
X101694110Y-115082700D01*
X101700246Y-115082228D01*
X101706176Y-115080572D01*
X101706178Y-115080572D01*
X101797806Y-115054989D01*
X101895366Y-115027750D01*
X101924394Y-115013087D01*
X102070686Y-114939190D01*
X102070688Y-114939189D01*
X102076187Y-114936411D01*
X102235824Y-114811689D01*
X102262268Y-114781054D01*
X102364168Y-114663001D01*
X102368195Y-114658336D01*
X102468258Y-114482192D01*
X102532203Y-114289967D01*
X102557593Y-114088983D01*
X102557998Y-114060000D01*
X102556577Y-114045507D01*
X103022103Y-114045507D01*
X103039055Y-114247379D01*
X103094894Y-114442113D01*
X103097713Y-114447598D01*
X103184676Y-114616810D01*
X103184679Y-114616815D01*
X103187494Y-114622292D01*
X103313327Y-114781054D01*
X103318021Y-114785049D01*
X103361609Y-114822145D01*
X103467600Y-114912351D01*
X103644439Y-115011183D01*
X103837105Y-115073784D01*
X104038262Y-115097770D01*
X104044397Y-115097298D01*
X104044399Y-115097298D01*
X104234105Y-115082701D01*
X104234110Y-115082700D01*
X104240246Y-115082228D01*
X104246176Y-115080572D01*
X104246178Y-115080572D01*
X104337806Y-115054989D01*
X104435366Y-115027750D01*
X104464394Y-115013087D01*
X104610686Y-114939190D01*
X104610688Y-114939189D01*
X104616187Y-114936411D01*
X104775824Y-114811689D01*
X104802268Y-114781054D01*
X104904168Y-114663001D01*
X104908195Y-114658336D01*
X105008258Y-114482192D01*
X105072203Y-114289967D01*
X105097593Y-114088983D01*
X105097998Y-114060000D01*
X105096577Y-114045507D01*
X105562103Y-114045507D01*
X105579055Y-114247379D01*
X105634894Y-114442113D01*
X105637713Y-114447598D01*
X105724676Y-114616810D01*
X105724679Y-114616815D01*
X105727494Y-114622292D01*
X105853327Y-114781054D01*
X105858021Y-114785049D01*
X105901609Y-114822145D01*
X106007600Y-114912351D01*
X106184439Y-115011183D01*
X106377105Y-115073784D01*
X106578262Y-115097770D01*
X106584397Y-115097298D01*
X106584399Y-115097298D01*
X106774105Y-115082701D01*
X106774110Y-115082700D01*
X106780246Y-115082228D01*
X106786176Y-115080572D01*
X106786178Y-115080572D01*
X106877806Y-115054989D01*
X106975366Y-115027750D01*
X107004394Y-115013087D01*
X107150686Y-114939190D01*
X107150688Y-114939189D01*
X107156187Y-114936411D01*
X107315824Y-114811689D01*
X107342268Y-114781054D01*
X107444168Y-114663001D01*
X107448195Y-114658336D01*
X107548258Y-114482192D01*
X107612203Y-114289967D01*
X107637593Y-114088983D01*
X107637998Y-114060000D01*
X107636577Y-114045507D01*
X108102103Y-114045507D01*
X108119055Y-114247379D01*
X108174894Y-114442113D01*
X108177713Y-114447598D01*
X108264676Y-114616810D01*
X108264679Y-114616815D01*
X108267494Y-114622292D01*
X108393327Y-114781054D01*
X108398021Y-114785049D01*
X108441609Y-114822145D01*
X108547600Y-114912351D01*
X108724439Y-115011183D01*
X108917105Y-115073784D01*
X109118262Y-115097770D01*
X109124397Y-115097298D01*
X109124399Y-115097298D01*
X109314105Y-115082701D01*
X109314110Y-115082700D01*
X109320246Y-115082228D01*
X109326176Y-115080572D01*
X109326178Y-115080572D01*
X109417806Y-115054989D01*
X109515366Y-115027750D01*
X109544394Y-115013087D01*
X109690686Y-114939190D01*
X109690688Y-114939189D01*
X109696187Y-114936411D01*
X109855824Y-114811689D01*
X109882268Y-114781054D01*
X109984168Y-114663001D01*
X109988195Y-114658336D01*
X110088258Y-114482192D01*
X110152203Y-114289967D01*
X110177593Y-114088983D01*
X110177998Y-114060000D01*
X110158229Y-113858385D01*
X110156448Y-113852486D01*
X110156447Y-113852481D01*
X110101458Y-113670349D01*
X110099677Y-113664450D01*
X110004571Y-113485581D01*
X110000681Y-113480811D01*
X110000678Y-113480807D01*
X109880428Y-113333366D01*
X109880425Y-113333363D01*
X109876533Y-113328591D01*
X109859518Y-113314515D01*
X109725191Y-113203390D01*
X109725188Y-113203388D01*
X109720441Y-113199461D01*
X109542240Y-113103108D01*
X109445479Y-113073155D01*
X109354605Y-113045025D01*
X109354602Y-113045024D01*
X109348718Y-113043203D01*
X109342593Y-113042559D01*
X109342592Y-113042559D01*
X109153375Y-113022671D01*
X109153374Y-113022671D01*
X109147247Y-113022027D01*
X109063846Y-113029617D01*
X108951638Y-113039829D01*
X108951635Y-113039830D01*
X108945499Y-113040388D01*
X108939593Y-113042126D01*
X108939589Y-113042127D01*
X108832154Y-113073747D01*
X108751159Y-113097585D01*
X108571630Y-113191440D01*
X108413751Y-113318379D01*
X108283534Y-113473565D01*
X108185939Y-113651089D01*
X108124685Y-113844188D01*
X108123999Y-113850305D01*
X108123998Y-113850309D01*
X108122404Y-113864519D01*
X108102103Y-114045507D01*
X107636577Y-114045507D01*
X107618229Y-113858385D01*
X107616448Y-113852486D01*
X107616447Y-113852481D01*
X107561458Y-113670349D01*
X107559677Y-113664450D01*
X107464571Y-113485581D01*
X107460681Y-113480811D01*
X107460678Y-113480807D01*
X107340428Y-113333366D01*
X107340425Y-113333363D01*
X107336533Y-113328591D01*
X107319518Y-113314515D01*
X107185191Y-113203390D01*
X107185188Y-113203388D01*
X107180441Y-113199461D01*
X107002240Y-113103108D01*
X106905479Y-113073155D01*
X106814605Y-113045025D01*
X106814602Y-113045024D01*
X106808718Y-113043203D01*
X106802593Y-113042559D01*
X106802592Y-113042559D01*
X106613375Y-113022671D01*
X106613374Y-113022671D01*
X106607247Y-113022027D01*
X106523846Y-113029617D01*
X106411638Y-113039829D01*
X106411635Y-113039830D01*
X106405499Y-113040388D01*
X106399593Y-113042126D01*
X106399589Y-113042127D01*
X106292154Y-113073747D01*
X106211159Y-113097585D01*
X106031630Y-113191440D01*
X105873751Y-113318379D01*
X105743534Y-113473565D01*
X105645939Y-113651089D01*
X105584685Y-113844188D01*
X105583999Y-113850305D01*
X105583998Y-113850309D01*
X105582404Y-113864519D01*
X105562103Y-114045507D01*
X105096577Y-114045507D01*
X105078229Y-113858385D01*
X105076448Y-113852486D01*
X105076447Y-113852481D01*
X105021458Y-113670349D01*
X105019677Y-113664450D01*
X104924571Y-113485581D01*
X104920681Y-113480811D01*
X104920678Y-113480807D01*
X104800428Y-113333366D01*
X104800425Y-113333363D01*
X104796533Y-113328591D01*
X104779518Y-113314515D01*
X104645191Y-113203390D01*
X104645188Y-113203388D01*
X104640441Y-113199461D01*
X104462240Y-113103108D01*
X104365479Y-113073155D01*
X104274605Y-113045025D01*
X104274602Y-113045024D01*
X104268718Y-113043203D01*
X104262593Y-113042559D01*
X104262592Y-113042559D01*
X104073375Y-113022671D01*
X104073374Y-113022671D01*
X104067247Y-113022027D01*
X103983846Y-113029617D01*
X103871638Y-113039829D01*
X103871635Y-113039830D01*
X103865499Y-113040388D01*
X103859593Y-113042126D01*
X103859589Y-113042127D01*
X103752154Y-113073747D01*
X103671159Y-113097585D01*
X103491630Y-113191440D01*
X103333751Y-113318379D01*
X103203534Y-113473565D01*
X103105939Y-113651089D01*
X103044685Y-113844188D01*
X103043999Y-113850305D01*
X103043998Y-113850309D01*
X103042404Y-113864519D01*
X103022103Y-114045507D01*
X102556577Y-114045507D01*
X102538229Y-113858385D01*
X102536448Y-113852486D01*
X102536447Y-113852481D01*
X102481458Y-113670349D01*
X102479677Y-113664450D01*
X102384571Y-113485581D01*
X102380681Y-113480811D01*
X102380678Y-113480807D01*
X102260428Y-113333366D01*
X102260425Y-113333363D01*
X102256533Y-113328591D01*
X102239518Y-113314515D01*
X102105191Y-113203390D01*
X102105188Y-113203388D01*
X102100441Y-113199461D01*
X101922240Y-113103108D01*
X101825479Y-113073155D01*
X101734605Y-113045025D01*
X101734602Y-113045024D01*
X101728718Y-113043203D01*
X101722593Y-113042559D01*
X101722592Y-113042559D01*
X101533375Y-113022671D01*
X101533374Y-113022671D01*
X101527247Y-113022027D01*
X101443846Y-113029617D01*
X101331638Y-113039829D01*
X101331635Y-113039830D01*
X101325499Y-113040388D01*
X101319593Y-113042126D01*
X101319589Y-113042127D01*
X101212154Y-113073747D01*
X101131159Y-113097585D01*
X100951630Y-113191440D01*
X100793751Y-113318379D01*
X100663534Y-113473565D01*
X100565939Y-113651089D01*
X100504685Y-113844188D01*
X100503999Y-113850305D01*
X100503998Y-113850309D01*
X100502404Y-113864519D01*
X100482103Y-114045507D01*
X100016577Y-114045507D01*
X99998229Y-113858385D01*
X99996448Y-113852486D01*
X99996447Y-113852481D01*
X99941458Y-113670349D01*
X99939677Y-113664450D01*
X99844571Y-113485581D01*
X99840681Y-113480811D01*
X99840678Y-113480807D01*
X99720428Y-113333366D01*
X99720425Y-113333363D01*
X99716533Y-113328591D01*
X99699518Y-113314515D01*
X99565191Y-113203390D01*
X99565188Y-113203388D01*
X99560441Y-113199461D01*
X99382240Y-113103108D01*
X99285479Y-113073155D01*
X99194605Y-113045025D01*
X99194602Y-113045024D01*
X99188718Y-113043203D01*
X99182593Y-113042559D01*
X99182592Y-113042559D01*
X98993375Y-113022671D01*
X98993374Y-113022671D01*
X98987247Y-113022027D01*
X98903846Y-113029617D01*
X98791638Y-113039829D01*
X98791635Y-113039830D01*
X98785499Y-113040388D01*
X98779593Y-113042126D01*
X98779589Y-113042127D01*
X98672154Y-113073747D01*
X98591159Y-113097585D01*
X98411630Y-113191440D01*
X98253751Y-113318379D01*
X98123534Y-113473565D01*
X98025939Y-113651089D01*
X97964685Y-113844188D01*
X97963999Y-113850305D01*
X97963998Y-113850309D01*
X97962404Y-113864519D01*
X97942103Y-114045507D01*
X97476577Y-114045507D01*
X97458229Y-113858385D01*
X97456448Y-113852486D01*
X97456447Y-113852481D01*
X97401458Y-113670349D01*
X97399677Y-113664450D01*
X97304571Y-113485581D01*
X97300681Y-113480811D01*
X97300678Y-113480807D01*
X97180428Y-113333366D01*
X97180425Y-113333363D01*
X97176533Y-113328591D01*
X97159518Y-113314515D01*
X97025191Y-113203390D01*
X97025188Y-113203388D01*
X97020441Y-113199461D01*
X96842240Y-113103108D01*
X96745479Y-113073155D01*
X96654605Y-113045025D01*
X96654602Y-113045024D01*
X96648718Y-113043203D01*
X96642593Y-113042559D01*
X96642592Y-113042559D01*
X96453375Y-113022671D01*
X96453374Y-113022671D01*
X96447247Y-113022027D01*
X96363846Y-113029617D01*
X96251638Y-113039829D01*
X96251635Y-113039830D01*
X96245499Y-113040388D01*
X96239593Y-113042126D01*
X96239589Y-113042127D01*
X96132154Y-113073747D01*
X96051159Y-113097585D01*
X95871630Y-113191440D01*
X95713751Y-113318379D01*
X95583534Y-113473565D01*
X95485939Y-113651089D01*
X95424685Y-113844188D01*
X95423999Y-113850305D01*
X95423998Y-113850309D01*
X95422404Y-113864519D01*
X95402103Y-114045507D01*
X94936577Y-114045507D01*
X94918229Y-113858385D01*
X94916448Y-113852486D01*
X94916447Y-113852481D01*
X94861458Y-113670349D01*
X94859677Y-113664450D01*
X94764571Y-113485581D01*
X94760681Y-113480811D01*
X94760678Y-113480807D01*
X94640428Y-113333366D01*
X94640425Y-113333363D01*
X94636533Y-113328591D01*
X94619518Y-113314515D01*
X94485191Y-113203390D01*
X94485188Y-113203388D01*
X94480441Y-113199461D01*
X94302240Y-113103108D01*
X94205479Y-113073155D01*
X94114605Y-113045025D01*
X94114602Y-113045024D01*
X94108718Y-113043203D01*
X94102593Y-113042559D01*
X94102592Y-113042559D01*
X93913375Y-113022671D01*
X93913374Y-113022671D01*
X93907247Y-113022027D01*
X93823846Y-113029617D01*
X93711638Y-113039829D01*
X93711635Y-113039830D01*
X93705499Y-113040388D01*
X93699593Y-113042126D01*
X93699589Y-113042127D01*
X93592154Y-113073747D01*
X93511159Y-113097585D01*
X93331630Y-113191440D01*
X93173751Y-113318379D01*
X93043534Y-113473565D01*
X92945939Y-113651089D01*
X92884685Y-113844188D01*
X92883999Y-113850305D01*
X92883998Y-113850309D01*
X92882404Y-113864519D01*
X92862103Y-114045507D01*
X92396577Y-114045507D01*
X92378229Y-113858385D01*
X92376448Y-113852486D01*
X92376447Y-113852481D01*
X92321458Y-113670349D01*
X92319677Y-113664450D01*
X92224571Y-113485581D01*
X92220681Y-113480811D01*
X92220678Y-113480807D01*
X92100428Y-113333366D01*
X92100425Y-113333363D01*
X92096533Y-113328591D01*
X92079518Y-113314515D01*
X91945191Y-113203390D01*
X91945188Y-113203388D01*
X91940441Y-113199461D01*
X91762240Y-113103108D01*
X91665479Y-113073155D01*
X91574605Y-113045025D01*
X91574602Y-113045024D01*
X91568718Y-113043203D01*
X91562593Y-113042559D01*
X91562592Y-113042559D01*
X91373375Y-113022671D01*
X91373374Y-113022671D01*
X91367247Y-113022027D01*
X91283846Y-113029617D01*
X91171638Y-113039829D01*
X91171635Y-113039830D01*
X91165499Y-113040388D01*
X91159593Y-113042126D01*
X91159589Y-113042127D01*
X91052154Y-113073747D01*
X90971159Y-113097585D01*
X90791630Y-113191440D01*
X90633751Y-113318379D01*
X90503534Y-113473565D01*
X90405939Y-113651089D01*
X90344685Y-113844188D01*
X90343999Y-113850305D01*
X90343998Y-113850309D01*
X90342404Y-113864519D01*
X90322103Y-114045507D01*
X89856577Y-114045507D01*
X89838229Y-113858385D01*
X89836448Y-113852486D01*
X89836447Y-113852481D01*
X89781458Y-113670349D01*
X89779677Y-113664450D01*
X89684571Y-113485581D01*
X89680681Y-113480811D01*
X89680678Y-113480807D01*
X89560428Y-113333366D01*
X89560425Y-113333363D01*
X89556533Y-113328591D01*
X89539518Y-113314515D01*
X89405191Y-113203390D01*
X89405188Y-113203388D01*
X89400441Y-113199461D01*
X89222240Y-113103108D01*
X89125479Y-113073155D01*
X89034605Y-113045025D01*
X89034602Y-113045024D01*
X89028718Y-113043203D01*
X89022593Y-113042559D01*
X89022592Y-113042559D01*
X88833375Y-113022671D01*
X88833374Y-113022671D01*
X88827247Y-113022027D01*
X88743846Y-113029617D01*
X88631638Y-113039829D01*
X88631635Y-113039830D01*
X88625499Y-113040388D01*
X88619593Y-113042126D01*
X88619589Y-113042127D01*
X88512154Y-113073747D01*
X88431159Y-113097585D01*
X88251630Y-113191440D01*
X88093751Y-113318379D01*
X87963534Y-113473565D01*
X87865939Y-113651089D01*
X87804685Y-113844188D01*
X87803999Y-113850305D01*
X87803998Y-113850309D01*
X87802404Y-113864519D01*
X87782103Y-114045507D01*
X87316577Y-114045507D01*
X87298229Y-113858385D01*
X87296448Y-113852486D01*
X87296447Y-113852481D01*
X87241458Y-113670349D01*
X87239677Y-113664450D01*
X87144571Y-113485581D01*
X87140681Y-113480811D01*
X87140678Y-113480807D01*
X87020428Y-113333366D01*
X87020425Y-113333363D01*
X87016533Y-113328591D01*
X86999518Y-113314515D01*
X86865191Y-113203390D01*
X86865188Y-113203388D01*
X86860441Y-113199461D01*
X86682240Y-113103108D01*
X86585479Y-113073155D01*
X86494605Y-113045025D01*
X86494602Y-113045024D01*
X86488718Y-113043203D01*
X86482593Y-113042559D01*
X86482592Y-113042559D01*
X86293375Y-113022671D01*
X86293374Y-113022671D01*
X86287247Y-113022027D01*
X86203846Y-113029617D01*
X86091638Y-113039829D01*
X86091635Y-113039830D01*
X86085499Y-113040388D01*
X86079593Y-113042126D01*
X86079589Y-113042127D01*
X85972154Y-113073747D01*
X85891159Y-113097585D01*
X85711630Y-113191440D01*
X85553751Y-113318379D01*
X85423534Y-113473565D01*
X85325939Y-113651089D01*
X85264685Y-113844188D01*
X85263999Y-113850305D01*
X85263998Y-113850309D01*
X85262404Y-113864519D01*
X85242103Y-114045507D01*
X84776577Y-114045507D01*
X84758229Y-113858385D01*
X84756448Y-113852486D01*
X84756447Y-113852481D01*
X84701458Y-113670349D01*
X84699677Y-113664450D01*
X84604571Y-113485581D01*
X84600681Y-113480811D01*
X84600678Y-113480807D01*
X84480428Y-113333366D01*
X84480425Y-113333363D01*
X84476533Y-113328591D01*
X84459518Y-113314515D01*
X84325191Y-113203390D01*
X84325188Y-113203388D01*
X84320441Y-113199461D01*
X84142240Y-113103108D01*
X84045479Y-113073155D01*
X83954605Y-113045025D01*
X83954602Y-113045024D01*
X83948718Y-113043203D01*
X83942593Y-113042559D01*
X83942592Y-113042559D01*
X83753375Y-113022671D01*
X83753374Y-113022671D01*
X83747247Y-113022027D01*
X83663846Y-113029617D01*
X83551638Y-113039829D01*
X83551635Y-113039830D01*
X83545499Y-113040388D01*
X83539593Y-113042126D01*
X83539589Y-113042127D01*
X83432154Y-113073747D01*
X83351159Y-113097585D01*
X83171630Y-113191440D01*
X83013751Y-113318379D01*
X82883534Y-113473565D01*
X82785939Y-113651089D01*
X82724685Y-113844188D01*
X82723999Y-113850305D01*
X82723998Y-113850309D01*
X82722404Y-113864519D01*
X82702103Y-114045507D01*
X82236577Y-114045507D01*
X82218229Y-113858385D01*
X82216448Y-113852486D01*
X82216447Y-113852481D01*
X82161458Y-113670349D01*
X82159677Y-113664450D01*
X82064571Y-113485581D01*
X82060681Y-113480811D01*
X82060678Y-113480807D01*
X81940428Y-113333366D01*
X81940425Y-113333363D01*
X81936533Y-113328591D01*
X81919518Y-113314515D01*
X81785191Y-113203390D01*
X81785188Y-113203388D01*
X81780441Y-113199461D01*
X81602240Y-113103108D01*
X81505479Y-113073155D01*
X81414605Y-113045025D01*
X81414602Y-113045024D01*
X81408718Y-113043203D01*
X81402593Y-113042559D01*
X81402592Y-113042559D01*
X81213375Y-113022671D01*
X81213374Y-113022671D01*
X81207247Y-113022027D01*
X81123846Y-113029617D01*
X81011638Y-113039829D01*
X81011635Y-113039830D01*
X81005499Y-113040388D01*
X80999593Y-113042126D01*
X80999589Y-113042127D01*
X80892154Y-113073747D01*
X80811159Y-113097585D01*
X80631630Y-113191440D01*
X80473751Y-113318379D01*
X80343534Y-113473565D01*
X80245939Y-113651089D01*
X80184685Y-113844188D01*
X80183999Y-113850305D01*
X80183998Y-113850309D01*
X80182404Y-113864519D01*
X80162103Y-114045507D01*
X60594000Y-114045507D01*
X60594000Y-113717000D01*
X47052000Y-113717000D01*
X47051997Y-113730537D01*
X47051997Y-113730539D01*
X47050024Y-124026556D01*
X47050000Y-124150000D01*
X45874976Y-124150000D01*
X45762856Y-124026556D01*
X45761055Y-124024529D01*
X45476422Y-123697268D01*
X45474179Y-123694617D01*
X45239509Y-123409287D01*
X45237868Y-123407248D01*
X44969226Y-123066424D01*
X44967057Y-123063591D01*
X44944438Y-123033160D01*
X44746824Y-122767295D01*
X44745410Y-122765353D01*
X44493314Y-122411620D01*
X44491248Y-122408629D01*
X44286055Y-122102237D01*
X44284724Y-122100209D01*
X44049830Y-121734425D01*
X44047847Y-121731232D01*
X43858177Y-121415543D01*
X43856995Y-121413534D01*
X43639829Y-121036448D01*
X43637957Y-121033079D01*
X43464246Y-120708912D01*
X43463207Y-120706932D01*
X43306147Y-120400917D01*
X43264271Y-120319325D01*
X43262529Y-120315796D01*
X43246115Y-120281185D01*
X43105171Y-119983998D01*
X43104271Y-119982058D01*
X42924044Y-119584740D01*
X42922433Y-119581031D01*
X42781814Y-119242556D01*
X42781045Y-119240661D01*
X42619977Y-118834479D01*
X42618514Y-118830606D01*
X42494935Y-118486371D01*
X42494291Y-118484531D01*
X42352770Y-118070265D01*
X42351468Y-118066235D01*
X42245204Y-117717253D01*
X42244677Y-117715474D01*
X42123069Y-117293929D01*
X42121941Y-117289750D01*
X42033195Y-116937040D01*
X42032777Y-116935329D01*
X41931429Y-116507347D01*
X41930485Y-116503025D01*
X41878684Y-116244035D01*
X41859377Y-116147505D01*
X41859069Y-116145910D01*
X41778378Y-115712788D01*
X41778295Y-115712347D01*
X41777549Y-115707899D01*
X41724170Y-115350647D01*
X41723948Y-115349093D01*
X41689528Y-115097298D01*
X41664035Y-114910813D01*
X41663495Y-114906236D01*
X41627875Y-114548451D01*
X41627737Y-114546983D01*
X41588925Y-114104691D01*
X41588601Y-114099992D01*
X41588225Y-114092487D01*
X41575469Y-113838315D01*
X41570665Y-113742594D01*
X41570604Y-113741216D01*
X41560793Y-113491023D01*
X41553137Y-113295788D01*
X41553042Y-113291041D01*
X41552812Y-113073747D01*
X41552666Y-112935468D01*
X41552671Y-112934184D01*
X41556765Y-112486148D01*
X41556905Y-112481249D01*
X41573857Y-112128584D01*
X41573920Y-112127397D01*
X41595982Y-111743946D01*
X61254493Y-111743946D01*
X61255657Y-111752848D01*
X61255657Y-111752851D01*
X61257495Y-111766903D01*
X61272711Y-111883262D01*
X61329297Y-112011864D01*
X61335074Y-112018737D01*
X61335075Y-112018738D01*
X61342108Y-112027105D01*
X61419704Y-112119416D01*
X61536663Y-112197271D01*
X61670772Y-112239169D01*
X61679742Y-112239333D01*
X61679746Y-112239334D01*
X61744544Y-112240521D01*
X61811250Y-112241744D01*
X61868624Y-112226102D01*
X61938145Y-112207149D01*
X61938147Y-112207148D01*
X61946804Y-112204788D01*
X62066538Y-112131271D01*
X62160825Y-112027105D01*
X62222086Y-111900662D01*
X62245396Y-111762107D01*
X62245544Y-111750000D01*
X62225626Y-111610917D01*
X62167472Y-111483015D01*
X62075758Y-111376576D01*
X62068227Y-111371695D01*
X62068224Y-111371692D01*
X61965388Y-111305037D01*
X61965386Y-111305036D01*
X61957857Y-111300156D01*
X61949260Y-111297585D01*
X61949258Y-111297584D01*
X61869216Y-111273647D01*
X61823246Y-111259899D01*
X61814270Y-111259844D01*
X61814269Y-111259844D01*
X61755015Y-111259482D01*
X61682747Y-111259041D01*
X61547654Y-111297651D01*
X61428828Y-111372624D01*
X61422886Y-111379352D01*
X61422885Y-111379353D01*
X61411308Y-111392462D01*
X61335821Y-111477935D01*
X61276109Y-111605117D01*
X61274729Y-111613981D01*
X61274728Y-111613984D01*
X61264188Y-111681682D01*
X61254493Y-111743946D01*
X41595982Y-111743946D01*
X41599799Y-111677602D01*
X41600185Y-111672622D01*
X41634119Y-111324303D01*
X41634230Y-111323214D01*
X41636161Y-111305037D01*
X41682137Y-110872108D01*
X41682776Y-110867062D01*
X41706841Y-110703644D01*
X41733235Y-110524403D01*
X41733385Y-110523415D01*
X41742910Y-110462107D01*
X41745732Y-110443946D01*
X52454493Y-110443946D01*
X52455657Y-110452848D01*
X52455657Y-110452851D01*
X52459602Y-110483015D01*
X52472711Y-110583262D01*
X52529297Y-110711864D01*
X52535074Y-110718737D01*
X52535075Y-110718738D01*
X52571531Y-110762107D01*
X52619704Y-110819416D01*
X52736663Y-110897271D01*
X52745233Y-110899948D01*
X52745232Y-110899948D01*
X52849874Y-110932640D01*
X52870772Y-110939169D01*
X52879742Y-110939333D01*
X52879746Y-110939334D01*
X52944544Y-110940521D01*
X53011250Y-110941744D01*
X53068624Y-110926102D01*
X53138145Y-110907149D01*
X53138147Y-110907148D01*
X53146804Y-110904788D01*
X53266538Y-110831271D01*
X53345581Y-110743946D01*
X66004493Y-110743946D01*
X66005657Y-110752848D01*
X66005657Y-110752851D01*
X66021253Y-110872112D01*
X66022711Y-110883262D01*
X66079297Y-111011864D01*
X66085074Y-111018737D01*
X66085075Y-111018738D01*
X66092108Y-111027105D01*
X66169704Y-111119416D01*
X66286663Y-111197271D01*
X66420772Y-111239169D01*
X66429742Y-111239333D01*
X66429746Y-111239334D01*
X66494544Y-111240521D01*
X66561250Y-111241744D01*
X66618624Y-111226102D01*
X66688145Y-111207149D01*
X66688147Y-111207148D01*
X66696804Y-111204788D01*
X66816538Y-111131271D01*
X66910825Y-111027105D01*
X66972086Y-110900662D01*
X66995396Y-110762107D01*
X66995544Y-110750000D01*
X66975626Y-110610917D01*
X66917472Y-110483015D01*
X66825758Y-110376576D01*
X66818227Y-110371695D01*
X66818224Y-110371692D01*
X66715388Y-110305037D01*
X66715386Y-110305036D01*
X66707857Y-110300156D01*
X66699260Y-110297585D01*
X66699258Y-110297584D01*
X66619216Y-110273647D01*
X66573246Y-110259899D01*
X66564270Y-110259844D01*
X66564269Y-110259844D01*
X66505015Y-110259482D01*
X66432747Y-110259041D01*
X66297654Y-110297651D01*
X66178828Y-110372624D01*
X66085821Y-110477935D01*
X66026109Y-110605117D01*
X66024729Y-110613981D01*
X66024728Y-110613984D01*
X66006079Y-110733761D01*
X66004493Y-110743946D01*
X53345581Y-110743946D01*
X53360825Y-110727105D01*
X53389569Y-110667777D01*
X53418172Y-110608741D01*
X53418172Y-110608740D01*
X53422086Y-110600662D01*
X53445396Y-110462107D01*
X53445544Y-110450000D01*
X53425626Y-110310917D01*
X53367472Y-110183015D01*
X53275758Y-110076576D01*
X53268227Y-110071695D01*
X53268224Y-110071692D01*
X53165388Y-110005037D01*
X53165386Y-110005036D01*
X53157857Y-110000156D01*
X53149260Y-109997585D01*
X53149258Y-109997584D01*
X53069216Y-109973647D01*
X53023246Y-109959899D01*
X53014270Y-109959844D01*
X53014269Y-109959844D01*
X52955015Y-109959482D01*
X52882747Y-109959041D01*
X52747654Y-109997651D01*
X52628828Y-110072624D01*
X52535821Y-110177935D01*
X52476109Y-110305117D01*
X52474729Y-110313981D01*
X52474728Y-110313984D01*
X52463924Y-110383378D01*
X52454493Y-110443946D01*
X41745732Y-110443946D01*
X41803593Y-110071533D01*
X41804482Y-110066494D01*
X41870846Y-109731009D01*
X41871020Y-109730146D01*
X41876226Y-109704788D01*
X41952390Y-109333761D01*
X41963865Y-109277862D01*
X41965035Y-109272713D01*
X41972209Y-109243946D01*
X49354493Y-109243946D01*
X49355657Y-109252848D01*
X49355657Y-109252851D01*
X49365367Y-109327105D01*
X49372711Y-109383262D01*
X49429297Y-109511864D01*
X49435074Y-109518737D01*
X49435075Y-109518738D01*
X49442108Y-109527105D01*
X49519704Y-109619416D01*
X49636663Y-109697271D01*
X49770772Y-109739169D01*
X49779742Y-109739333D01*
X49779746Y-109739334D01*
X49844544Y-109740521D01*
X49911250Y-109741744D01*
X49968624Y-109726102D01*
X50038145Y-109707149D01*
X50038147Y-109707148D01*
X50046804Y-109704788D01*
X50166538Y-109631271D01*
X50260825Y-109527105D01*
X50310480Y-109424617D01*
X50318172Y-109408741D01*
X50318172Y-109408740D01*
X50322086Y-109400662D01*
X50345396Y-109262107D01*
X50345544Y-109250000D01*
X50325626Y-109110917D01*
X50295176Y-109043946D01*
X52254493Y-109043946D01*
X52255657Y-109052848D01*
X52255657Y-109052851D01*
X52264413Y-109119807D01*
X52272711Y-109183262D01*
X52329297Y-109311864D01*
X52335074Y-109318737D01*
X52335075Y-109318738D01*
X52410731Y-109408741D01*
X52419704Y-109419416D01*
X52536663Y-109497271D01*
X52670772Y-109539169D01*
X52679742Y-109539333D01*
X52679746Y-109539334D01*
X52744544Y-109540521D01*
X52811250Y-109541744D01*
X52895636Y-109518738D01*
X52938145Y-109507149D01*
X52938147Y-109507148D01*
X52946804Y-109504788D01*
X53066538Y-109431271D01*
X53160825Y-109327105D01*
X53222086Y-109200662D01*
X53245396Y-109062107D01*
X53245544Y-109050000D01*
X53225626Y-108910917D01*
X53174096Y-108797584D01*
X53171187Y-108791185D01*
X53171186Y-108791183D01*
X53167472Y-108783015D01*
X53075758Y-108676576D01*
X53068227Y-108671695D01*
X53068224Y-108671692D01*
X52965388Y-108605037D01*
X52965386Y-108605036D01*
X52957857Y-108600156D01*
X52949260Y-108597585D01*
X52949258Y-108597584D01*
X52869216Y-108573647D01*
X52823246Y-108559899D01*
X52814270Y-108559844D01*
X52814269Y-108559844D01*
X52755015Y-108559482D01*
X52682747Y-108559041D01*
X52547654Y-108597651D01*
X52428828Y-108672624D01*
X52335821Y-108777935D01*
X52276109Y-108905117D01*
X52274729Y-108913981D01*
X52274728Y-108913984D01*
X52261784Y-108997122D01*
X52254493Y-109043946D01*
X50295176Y-109043946D01*
X50267472Y-108983015D01*
X50175758Y-108876576D01*
X50168227Y-108871695D01*
X50168224Y-108871692D01*
X50065388Y-108805037D01*
X50065386Y-108805036D01*
X50057857Y-108800156D01*
X50049260Y-108797585D01*
X50049258Y-108797584D01*
X49961054Y-108771206D01*
X49923246Y-108759899D01*
X49914270Y-108759844D01*
X49914269Y-108759844D01*
X49855015Y-108759482D01*
X49782747Y-108759041D01*
X49647654Y-108797651D01*
X49528828Y-108872624D01*
X49435821Y-108977935D01*
X49376109Y-109105117D01*
X49374729Y-109113981D01*
X49374728Y-109113984D01*
X49359975Y-109208741D01*
X49354493Y-109243946D01*
X41972209Y-109243946D01*
X42046404Y-108946409D01*
X42046602Y-108945625D01*
X42162589Y-108492891D01*
X42164034Y-108487712D01*
X42259240Y-108172663D01*
X42259448Y-108171981D01*
X42387646Y-107756271D01*
X42399300Y-107718483D01*
X42401019Y-107713311D01*
X42508458Y-107412039D01*
X42508667Y-107411457D01*
X42673405Y-106956578D01*
X42675415Y-106951388D01*
X42729793Y-106819715D01*
X42792714Y-106667353D01*
X42792856Y-106667012D01*
X42984293Y-106208861D01*
X42986592Y-106203687D01*
X43109886Y-105942291D01*
X43109980Y-105942093D01*
X43129772Y-105900500D01*
X43331207Y-105477169D01*
X43333796Y-105472033D01*
X43371243Y-105401796D01*
X43456074Y-105242684D01*
X43477560Y-105202641D01*
X43713347Y-104763194D01*
X43716233Y-104758103D01*
X43822303Y-104580711D01*
X43822425Y-104580507D01*
X44044782Y-104210226D01*
X67447819Y-104210226D01*
X67483907Y-104475395D01*
X67558792Y-104732317D01*
X67560752Y-104736570D01*
X67560753Y-104736571D01*
X67575733Y-104769064D01*
X67670831Y-104975348D01*
X67703072Y-105024524D01*
X67814996Y-105195236D01*
X67815000Y-105195241D01*
X67817562Y-105199149D01*
X67995760Y-105398803D01*
X68201512Y-105569925D01*
X68205505Y-105572348D01*
X68426306Y-105706334D01*
X68426310Y-105706336D01*
X68430298Y-105708756D01*
X68434606Y-105710563D01*
X68434607Y-105710563D01*
X68672776Y-105810436D01*
X68672781Y-105810438D01*
X68677091Y-105812245D01*
X68681623Y-105813396D01*
X68681626Y-105813397D01*
X68931933Y-105876967D01*
X68931936Y-105876968D01*
X68936470Y-105878119D01*
X68941126Y-105878588D01*
X68941127Y-105878588D01*
X69155602Y-105900184D01*
X69155603Y-105900184D01*
X69158741Y-105900500D01*
X69317944Y-105900500D01*
X69320267Y-105900327D01*
X69320277Y-105900327D01*
X69512212Y-105886064D01*
X69512216Y-105886063D01*
X69516877Y-105885717D01*
X69521441Y-105884684D01*
X69521443Y-105884684D01*
X69660765Y-105853158D01*
X69777891Y-105826655D01*
X69811984Y-105813397D01*
X70022956Y-105731355D01*
X70022958Y-105731354D01*
X70027309Y-105729662D01*
X70068125Y-105706334D01*
X70113730Y-105680268D01*
X70259650Y-105596868D01*
X70469811Y-105431190D01*
X70653175Y-105236269D01*
X70805714Y-105016385D01*
X70924076Y-104776371D01*
X70932358Y-104750500D01*
X71004239Y-104525942D01*
X71005662Y-104521497D01*
X71048678Y-104257364D01*
X71049295Y-104210226D01*
X129447819Y-104210226D01*
X129483907Y-104475395D01*
X129558792Y-104732317D01*
X129560752Y-104736570D01*
X129560753Y-104736571D01*
X129575733Y-104769064D01*
X129670831Y-104975348D01*
X129703072Y-105024524D01*
X129814996Y-105195236D01*
X129815000Y-105195241D01*
X129817562Y-105199149D01*
X129995760Y-105398803D01*
X130201512Y-105569925D01*
X130205505Y-105572348D01*
X130426306Y-105706334D01*
X130426310Y-105706336D01*
X130430298Y-105708756D01*
X130434606Y-105710563D01*
X130434607Y-105710563D01*
X130672776Y-105810436D01*
X130672781Y-105810438D01*
X130677091Y-105812245D01*
X130681623Y-105813396D01*
X130681626Y-105813397D01*
X130931933Y-105876967D01*
X130931936Y-105876968D01*
X130936470Y-105878119D01*
X130941126Y-105878588D01*
X130941127Y-105878588D01*
X131155602Y-105900184D01*
X131155603Y-105900184D01*
X131158741Y-105900500D01*
X131317944Y-105900500D01*
X131320267Y-105900327D01*
X131320277Y-105900327D01*
X131512212Y-105886064D01*
X131512216Y-105886063D01*
X131516877Y-105885717D01*
X131521441Y-105884684D01*
X131521443Y-105884684D01*
X131660765Y-105853158D01*
X131777891Y-105826655D01*
X131811984Y-105813397D01*
X132022956Y-105731355D01*
X132022958Y-105731354D01*
X132027309Y-105729662D01*
X132068125Y-105706334D01*
X132113730Y-105680268D01*
X132259650Y-105596868D01*
X132469811Y-105431190D01*
X132653175Y-105236269D01*
X132805714Y-105016385D01*
X132924076Y-104776371D01*
X132932358Y-104750500D01*
X133004239Y-104525942D01*
X133005662Y-104521497D01*
X133048678Y-104257364D01*
X133052014Y-104002543D01*
X133052120Y-103994451D01*
X133052120Y-103994448D01*
X133052181Y-103989774D01*
X133016093Y-103724605D01*
X132941208Y-103467683D01*
X132829169Y-103224652D01*
X132796928Y-103175476D01*
X132685004Y-103004764D01*
X132685000Y-103004759D01*
X132682438Y-103000851D01*
X132504240Y-102801197D01*
X132298488Y-102630075D01*
X132250266Y-102600813D01*
X132073694Y-102493666D01*
X132073690Y-102493664D01*
X132069702Y-102491244D01*
X132015810Y-102468645D01*
X131827224Y-102389564D01*
X131827219Y-102389562D01*
X131822909Y-102387755D01*
X131818377Y-102386604D01*
X131818374Y-102386603D01*
X131568067Y-102323033D01*
X131568064Y-102323032D01*
X131563530Y-102321881D01*
X131558874Y-102321412D01*
X131558873Y-102321412D01*
X131344398Y-102299816D01*
X131344397Y-102299816D01*
X131341259Y-102299500D01*
X131182056Y-102299500D01*
X131179733Y-102299673D01*
X131179723Y-102299673D01*
X130987788Y-102313936D01*
X130987784Y-102313937D01*
X130983123Y-102314283D01*
X130978559Y-102315316D01*
X130978557Y-102315316D01*
X130839235Y-102346842D01*
X130722109Y-102373345D01*
X130717757Y-102375037D01*
X130717755Y-102375038D01*
X130477044Y-102468645D01*
X130477042Y-102468646D01*
X130472691Y-102470338D01*
X130468637Y-102472655D01*
X130468635Y-102472656D01*
X130386270Y-102519732D01*
X130240350Y-102603132D01*
X130030189Y-102768810D01*
X129846825Y-102963731D01*
X129694286Y-103183615D01*
X129575924Y-103423629D01*
X129494338Y-103678503D01*
X129451322Y-103942636D01*
X129447819Y-104210226D01*
X71049295Y-104210226D01*
X71052014Y-104002543D01*
X71052120Y-103994451D01*
X71052120Y-103994448D01*
X71052181Y-103989774D01*
X71016093Y-103724605D01*
X70941208Y-103467683D01*
X70829169Y-103224652D01*
X70796928Y-103175476D01*
X70685004Y-103004764D01*
X70685000Y-103004759D01*
X70682438Y-103000851D01*
X70504240Y-102801197D01*
X70298488Y-102630075D01*
X70250266Y-102600813D01*
X70073694Y-102493666D01*
X70073690Y-102493664D01*
X70069702Y-102491244D01*
X70015810Y-102468645D01*
X69827224Y-102389564D01*
X69827219Y-102389562D01*
X69822909Y-102387755D01*
X69818377Y-102386604D01*
X69818374Y-102386603D01*
X69568067Y-102323033D01*
X69568064Y-102323032D01*
X69563530Y-102321881D01*
X69558874Y-102321412D01*
X69558873Y-102321412D01*
X69344398Y-102299816D01*
X69344397Y-102299816D01*
X69341259Y-102299500D01*
X69182056Y-102299500D01*
X69179733Y-102299673D01*
X69179723Y-102299673D01*
X68987788Y-102313936D01*
X68987784Y-102313937D01*
X68983123Y-102314283D01*
X68978559Y-102315316D01*
X68978557Y-102315316D01*
X68839235Y-102346842D01*
X68722109Y-102373345D01*
X68717757Y-102375037D01*
X68717755Y-102375038D01*
X68477044Y-102468645D01*
X68477042Y-102468646D01*
X68472691Y-102470338D01*
X68468637Y-102472655D01*
X68468635Y-102472656D01*
X68386270Y-102519732D01*
X68240350Y-102603132D01*
X68030189Y-102768810D01*
X67846825Y-102963731D01*
X67694286Y-103183615D01*
X67575924Y-103423629D01*
X67494338Y-103678503D01*
X67451322Y-103942636D01*
X67447819Y-104210226D01*
X44044782Y-104210226D01*
X44124920Y-104076776D01*
X44129780Y-104068681D01*
X44132949Y-104063676D01*
X44179688Y-103993566D01*
X44577236Y-103398691D01*
X44580741Y-103393712D01*
X45053527Y-102755329D01*
X45053527Y-102755328D01*
X45057150Y-102750436D01*
X45057182Y-102750427D01*
X45057217Y-102750366D01*
X45057277Y-102750332D01*
X45057315Y-102750194D01*
X45057388Y-102750067D01*
X45057369Y-102750000D01*
X45057388Y-102749933D01*
X45057315Y-102749806D01*
X45057277Y-102749668D01*
X45057217Y-102749634D01*
X45057182Y-102749573D01*
X45057150Y-102749564D01*
X44867633Y-102493666D01*
X44580741Y-102106288D01*
X44577236Y-102101309D01*
X44179688Y-101506434D01*
X44179609Y-101506316D01*
X44132949Y-101436324D01*
X44129780Y-101431318D01*
X44125314Y-101423881D01*
X43822303Y-100919289D01*
X43716233Y-100741897D01*
X43713347Y-100736806D01*
X43456042Y-100257256D01*
X43455885Y-100256962D01*
X43333796Y-100027967D01*
X43331205Y-100022828D01*
X43109980Y-99557907D01*
X43109886Y-99557709D01*
X42986586Y-99296299D01*
X42984293Y-99291139D01*
X42792856Y-98832988D01*
X42792655Y-98832505D01*
X42778578Y-98798416D01*
X42675415Y-98548612D01*
X42673405Y-98543422D01*
X42508667Y-98088543D01*
X42508458Y-98087961D01*
X42434785Y-97881372D01*
X42401013Y-97786670D01*
X42399293Y-97781497D01*
X42396621Y-97772830D01*
X42363607Y-97665777D01*
X118478777Y-97665777D01*
X118488074Y-97677793D01*
X118531069Y-97707898D01*
X118540555Y-97713376D01*
X118731993Y-97802645D01*
X118742285Y-97806391D01*
X118946309Y-97861059D01*
X118957104Y-97862962D01*
X119167525Y-97881372D01*
X119178475Y-97881372D01*
X119388896Y-97862962D01*
X119399691Y-97861059D01*
X119603715Y-97806391D01*
X119614007Y-97802645D01*
X119805445Y-97713376D01*
X119814931Y-97707898D01*
X119858764Y-97677207D01*
X119867139Y-97666729D01*
X119860071Y-97653281D01*
X119185812Y-96979022D01*
X119171868Y-96971408D01*
X119170035Y-96971539D01*
X119163420Y-96975790D01*
X118485207Y-97654003D01*
X118478777Y-97665777D01*
X42363607Y-97665777D01*
X42259448Y-97328019D01*
X42259240Y-97327337D01*
X42164034Y-97012288D01*
X42162589Y-97007109D01*
X42061487Y-96612475D01*
X117898628Y-96612475D01*
X117917038Y-96822896D01*
X117918941Y-96833691D01*
X117973609Y-97037715D01*
X117977355Y-97048007D01*
X118066623Y-97239441D01*
X118072103Y-97248932D01*
X118102794Y-97292765D01*
X118113271Y-97301140D01*
X118126718Y-97294072D01*
X118800978Y-96619812D01*
X118807356Y-96608132D01*
X119537408Y-96608132D01*
X119537539Y-96609965D01*
X119541790Y-96616580D01*
X120220003Y-97294793D01*
X120231777Y-97301223D01*
X120243793Y-97291926D01*
X120273897Y-97248932D01*
X120279377Y-97239441D01*
X120368645Y-97048007D01*
X120372391Y-97037715D01*
X120427059Y-96833691D01*
X120428962Y-96822896D01*
X120447372Y-96612475D01*
X120447372Y-96601525D01*
X120428962Y-96391104D01*
X120427059Y-96380309D01*
X120372391Y-96176285D01*
X120368645Y-96165993D01*
X120279377Y-95974559D01*
X120273897Y-95965068D01*
X120243206Y-95921235D01*
X120232729Y-95912860D01*
X120219282Y-95919928D01*
X119545022Y-96594188D01*
X119537408Y-96608132D01*
X118807356Y-96608132D01*
X118808592Y-96605868D01*
X118808461Y-96604035D01*
X118804210Y-96597420D01*
X118125997Y-95919207D01*
X118114223Y-95912777D01*
X118102207Y-95922074D01*
X118072103Y-95965068D01*
X118066623Y-95974559D01*
X117977355Y-96165993D01*
X117973609Y-96176285D01*
X117918941Y-96380309D01*
X117917038Y-96391104D01*
X117898628Y-96601525D01*
X117898628Y-96612475D01*
X42061487Y-96612475D01*
X42046602Y-96554375D01*
X42046404Y-96553591D01*
X41965035Y-96227287D01*
X41963865Y-96222138D01*
X41889958Y-95862107D01*
X41886230Y-95843946D01*
X45054493Y-95843946D01*
X45055657Y-95852848D01*
X45055657Y-95852851D01*
X45070332Y-95965068D01*
X45072711Y-95983262D01*
X45129297Y-96111864D01*
X45135074Y-96118737D01*
X45135075Y-96118738D01*
X45213924Y-96212540D01*
X45219704Y-96219416D01*
X45336663Y-96297271D01*
X45470772Y-96339169D01*
X45479742Y-96339333D01*
X45479746Y-96339334D01*
X45544544Y-96340521D01*
X45611250Y-96341744D01*
X45668624Y-96326102D01*
X45738145Y-96307149D01*
X45738147Y-96307148D01*
X45746804Y-96304788D01*
X45866538Y-96231271D01*
X45960825Y-96127105D01*
X46022086Y-96000662D01*
X46045396Y-95862107D01*
X46045544Y-95850000D01*
X46025626Y-95710917D01*
X45967472Y-95583015D01*
X45875758Y-95476576D01*
X45868227Y-95471695D01*
X45868224Y-95471692D01*
X45765388Y-95405037D01*
X45765386Y-95405036D01*
X45757857Y-95400156D01*
X45749260Y-95397585D01*
X45749258Y-95397584D01*
X45651491Y-95368346D01*
X45623246Y-95359899D01*
X45614270Y-95359844D01*
X45614269Y-95359844D01*
X45555015Y-95359482D01*
X45482747Y-95359041D01*
X45347654Y-95397651D01*
X45228828Y-95472624D01*
X45222886Y-95479352D01*
X45222885Y-95479353D01*
X45197354Y-95508262D01*
X45135821Y-95577935D01*
X45076109Y-95705117D01*
X45074729Y-95713981D01*
X45074728Y-95713984D01*
X45056330Y-95832149D01*
X45054493Y-95843946D01*
X41886230Y-95843946D01*
X41871014Y-95769824D01*
X41870841Y-95768968D01*
X41865129Y-95740092D01*
X41804482Y-95433506D01*
X41803593Y-95428467D01*
X41781139Y-95283946D01*
X65124493Y-95283946D01*
X65125657Y-95292848D01*
X65125657Y-95292851D01*
X65140664Y-95407609D01*
X65142711Y-95423262D01*
X65199297Y-95551864D01*
X65205074Y-95558737D01*
X65205075Y-95558738D01*
X65247345Y-95609024D01*
X65289704Y-95659416D01*
X65406663Y-95737271D01*
X65540772Y-95779169D01*
X65549742Y-95779333D01*
X65549746Y-95779334D01*
X65614544Y-95780521D01*
X65681250Y-95781744D01*
X65774685Y-95756271D01*
X65808145Y-95747149D01*
X65808147Y-95747148D01*
X65816804Y-95744788D01*
X65936538Y-95671271D01*
X66030825Y-95567105D01*
X66071742Y-95482652D01*
X66088172Y-95448741D01*
X66088172Y-95448740D01*
X66092086Y-95440662D01*
X66110040Y-95333946D01*
X66524493Y-95333946D01*
X66525657Y-95342848D01*
X66525657Y-95342851D01*
X66536849Y-95428434D01*
X66542711Y-95473262D01*
X66577297Y-95551864D01*
X66592344Y-95586061D01*
X66599297Y-95601864D01*
X66605074Y-95608737D01*
X66605075Y-95608738D01*
X66651858Y-95664393D01*
X66689704Y-95709416D01*
X66806663Y-95787271D01*
X66815233Y-95789948D01*
X66815232Y-95789948D01*
X66918693Y-95822271D01*
X66940772Y-95829169D01*
X66949742Y-95829333D01*
X66949746Y-95829334D01*
X67014544Y-95830521D01*
X67081250Y-95831744D01*
X67138624Y-95816102D01*
X67208145Y-95797149D01*
X67208147Y-95797148D01*
X67216804Y-95794788D01*
X67336538Y-95721271D01*
X67430825Y-95617105D01*
X67444137Y-95589629D01*
X67491839Y-95537046D01*
X67560398Y-95518600D01*
X67628045Y-95540147D01*
X67672857Y-95593820D01*
X67691797Y-95636864D01*
X67697574Y-95643737D01*
X67697575Y-95643738D01*
X67766696Y-95725967D01*
X67782204Y-95744416D01*
X67899163Y-95822271D01*
X67966218Y-95843220D01*
X68011113Y-95857246D01*
X68033272Y-95864169D01*
X68042242Y-95864333D01*
X68042246Y-95864334D01*
X68107044Y-95865521D01*
X68173750Y-95866744D01*
X68257373Y-95843946D01*
X68300645Y-95832149D01*
X68300647Y-95832148D01*
X68309304Y-95829788D01*
X68429038Y-95756271D01*
X68523325Y-95652105D01*
X68574117Y-95547271D01*
X118478860Y-95547271D01*
X118485928Y-95560718D01*
X119160188Y-96234978D01*
X119174132Y-96242592D01*
X119175965Y-96242461D01*
X119182580Y-96238210D01*
X119860793Y-95559997D01*
X119867223Y-95548223D01*
X119857926Y-95536207D01*
X119814931Y-95506102D01*
X119805445Y-95500624D01*
X119614007Y-95411355D01*
X119603715Y-95407609D01*
X119399691Y-95352941D01*
X119388896Y-95351038D01*
X119178475Y-95332628D01*
X119167525Y-95332628D01*
X118957104Y-95351038D01*
X118946309Y-95352941D01*
X118742285Y-95407609D01*
X118731993Y-95411355D01*
X118540559Y-95500623D01*
X118531068Y-95506103D01*
X118487235Y-95536794D01*
X118478860Y-95547271D01*
X68574117Y-95547271D01*
X68584586Y-95525662D01*
X68607896Y-95387107D01*
X68608044Y-95375000D01*
X68588126Y-95235917D01*
X68549479Y-95150917D01*
X68533687Y-95116185D01*
X68533686Y-95116183D01*
X68529972Y-95108015D01*
X68438258Y-95001576D01*
X68430727Y-94996695D01*
X68430724Y-94996692D01*
X68327888Y-94930037D01*
X68327886Y-94930036D01*
X68320357Y-94925156D01*
X68311760Y-94922585D01*
X68311758Y-94922584D01*
X68219645Y-94895037D01*
X68185746Y-94884899D01*
X68176770Y-94884844D01*
X68176769Y-94884844D01*
X68117515Y-94884482D01*
X68045247Y-94884041D01*
X67910154Y-94922651D01*
X67791328Y-94997624D01*
X67785386Y-95004352D01*
X67785385Y-95004353D01*
X67766213Y-95026061D01*
X67698321Y-95102935D01*
X67694507Y-95111058D01*
X67694506Y-95111060D01*
X67688604Y-95123631D01*
X67641546Y-95176792D01*
X67573217Y-95196072D01*
X67505312Y-95175350D01*
X67459849Y-95122230D01*
X67441188Y-95081187D01*
X67441187Y-95081185D01*
X67437472Y-95073015D01*
X67345758Y-94966576D01*
X67338227Y-94961695D01*
X67338224Y-94961692D01*
X67235388Y-94895037D01*
X67235386Y-94895036D01*
X67227857Y-94890156D01*
X67219260Y-94887585D01*
X67219258Y-94887584D01*
X67129780Y-94860825D01*
X67093246Y-94849899D01*
X67084270Y-94849844D01*
X67084269Y-94849844D01*
X67025015Y-94849482D01*
X67011086Y-94849397D01*
X110935157Y-94849397D01*
X110944453Y-94861412D01*
X111002685Y-94902187D01*
X111012175Y-94907665D01*
X111214789Y-95002146D01*
X111225081Y-95005892D01*
X111441021Y-95063753D01*
X111451816Y-95065656D01*
X111674525Y-95085141D01*
X111685475Y-95085141D01*
X111908184Y-95065656D01*
X111918979Y-95063753D01*
X112134919Y-95005892D01*
X112145211Y-95002146D01*
X112347825Y-94907665D01*
X112357315Y-94902187D01*
X112416386Y-94860825D01*
X112424760Y-94850349D01*
X112417691Y-94836901D01*
X111692812Y-94112022D01*
X111678868Y-94104408D01*
X111677035Y-94104539D01*
X111670420Y-94108790D01*
X110941587Y-94837623D01*
X110935157Y-94849397D01*
X67011086Y-94849397D01*
X66952747Y-94849041D01*
X66817654Y-94887651D01*
X66698828Y-94962624D01*
X66692886Y-94969352D01*
X66692885Y-94969353D01*
X66661974Y-95004353D01*
X66605821Y-95067935D01*
X66546109Y-95195117D01*
X66544729Y-95203981D01*
X66544728Y-95203984D01*
X66528704Y-95306903D01*
X66524493Y-95333946D01*
X66110040Y-95333946D01*
X66115396Y-95302107D01*
X66115544Y-95290000D01*
X66095626Y-95150917D01*
X66037472Y-95023015D01*
X65945758Y-94916576D01*
X65938227Y-94911695D01*
X65938224Y-94911692D01*
X65835388Y-94845037D01*
X65835386Y-94845036D01*
X65827857Y-94840156D01*
X65819260Y-94837585D01*
X65819258Y-94837584D01*
X65739216Y-94813647D01*
X65693246Y-94799899D01*
X65684270Y-94799844D01*
X65684269Y-94799844D01*
X65625015Y-94799482D01*
X65552747Y-94799041D01*
X65417654Y-94837651D01*
X65298828Y-94912624D01*
X65292886Y-94919352D01*
X65292885Y-94919353D01*
X65289330Y-94923378D01*
X65205821Y-95017935D01*
X65146109Y-95145117D01*
X65144729Y-95153981D01*
X65144728Y-95153984D01*
X65133244Y-95227745D01*
X65124493Y-95283946D01*
X41781139Y-95283946D01*
X41733385Y-94976585D01*
X41733235Y-94975597D01*
X41700291Y-94751880D01*
X41682776Y-94632934D01*
X41682137Y-94627888D01*
X41666186Y-94477691D01*
X41634224Y-94176729D01*
X41634119Y-94175697D01*
X41632234Y-94156343D01*
X41611864Y-93947261D01*
X41600825Y-93833946D01*
X49254493Y-93833946D01*
X49255657Y-93842848D01*
X49255657Y-93842851D01*
X49269311Y-93947261D01*
X49272711Y-93973262D01*
X49329297Y-94101864D01*
X49335074Y-94108737D01*
X49335075Y-94108738D01*
X49407518Y-94194919D01*
X49419704Y-94209416D01*
X49536663Y-94287271D01*
X49670772Y-94329169D01*
X49679742Y-94329333D01*
X49679746Y-94329334D01*
X49744544Y-94330521D01*
X49811250Y-94331744D01*
X49868624Y-94316102D01*
X49938145Y-94297149D01*
X49938147Y-94297148D01*
X49946804Y-94294788D01*
X50066538Y-94221271D01*
X50160825Y-94117105D01*
X50201687Y-94032765D01*
X50218172Y-93998741D01*
X50218172Y-93998740D01*
X50222086Y-93990662D01*
X50245396Y-93852107D01*
X50245544Y-93840000D01*
X50229148Y-93725507D01*
X80162103Y-93725507D01*
X80165458Y-93765458D01*
X80175809Y-93888720D01*
X80179055Y-93927379D01*
X80180754Y-93933304D01*
X80231141Y-94109024D01*
X80234894Y-94122113D01*
X80237713Y-94127598D01*
X80324676Y-94296810D01*
X80324679Y-94296815D01*
X80327494Y-94302292D01*
X80453327Y-94461054D01*
X80458021Y-94465049D01*
X80572333Y-94562336D01*
X80607600Y-94592351D01*
X80784439Y-94691183D01*
X80977105Y-94753784D01*
X81178262Y-94777770D01*
X81184397Y-94777298D01*
X81184399Y-94777298D01*
X81374105Y-94762701D01*
X81374110Y-94762700D01*
X81380246Y-94762228D01*
X81386176Y-94760572D01*
X81386178Y-94760572D01*
X81477806Y-94734989D01*
X81575366Y-94707750D01*
X81604394Y-94693087D01*
X81750686Y-94619190D01*
X81750688Y-94619189D01*
X81756187Y-94616411D01*
X81915824Y-94491689D01*
X81929758Y-94475547D01*
X82044168Y-94343001D01*
X82048195Y-94338336D01*
X82148258Y-94162192D01*
X82161043Y-94123761D01*
X82199476Y-94008226D01*
X82212203Y-93969967D01*
X82237593Y-93768983D01*
X82237998Y-93740000D01*
X82236577Y-93725507D01*
X82702103Y-93725507D01*
X82705458Y-93765458D01*
X82715809Y-93888720D01*
X82719055Y-93927379D01*
X82720754Y-93933304D01*
X82771141Y-94109024D01*
X82774894Y-94122113D01*
X82777713Y-94127598D01*
X82864676Y-94296810D01*
X82864679Y-94296815D01*
X82867494Y-94302292D01*
X82993327Y-94461054D01*
X82998021Y-94465049D01*
X83112333Y-94562336D01*
X83147600Y-94592351D01*
X83324439Y-94691183D01*
X83517105Y-94753784D01*
X83718262Y-94777770D01*
X83724397Y-94777298D01*
X83724399Y-94777298D01*
X83914105Y-94762701D01*
X83914110Y-94762700D01*
X83920246Y-94762228D01*
X83926176Y-94760572D01*
X83926178Y-94760572D01*
X84017806Y-94734989D01*
X84115366Y-94707750D01*
X84144394Y-94693087D01*
X84290686Y-94619190D01*
X84290688Y-94619189D01*
X84296187Y-94616411D01*
X84455824Y-94491689D01*
X84469758Y-94475547D01*
X84584168Y-94343001D01*
X84588195Y-94338336D01*
X84688258Y-94162192D01*
X84701043Y-94123761D01*
X84739476Y-94008226D01*
X84752203Y-93969967D01*
X84777593Y-93768983D01*
X84777998Y-93740000D01*
X84776577Y-93725507D01*
X85242103Y-93725507D01*
X85245458Y-93765458D01*
X85255809Y-93888720D01*
X85259055Y-93927379D01*
X85260754Y-93933304D01*
X85311141Y-94109024D01*
X85314894Y-94122113D01*
X85317713Y-94127598D01*
X85404676Y-94296810D01*
X85404679Y-94296815D01*
X85407494Y-94302292D01*
X85533327Y-94461054D01*
X85538021Y-94465049D01*
X85652333Y-94562336D01*
X85687600Y-94592351D01*
X85864439Y-94691183D01*
X86057105Y-94753784D01*
X86258262Y-94777770D01*
X86264397Y-94777298D01*
X86264399Y-94777298D01*
X86454105Y-94762701D01*
X86454110Y-94762700D01*
X86460246Y-94762228D01*
X86466176Y-94760572D01*
X86466178Y-94760572D01*
X86557806Y-94734989D01*
X86655366Y-94707750D01*
X86684394Y-94693087D01*
X86830686Y-94619190D01*
X86830688Y-94619189D01*
X86836187Y-94616411D01*
X86995824Y-94491689D01*
X87009758Y-94475547D01*
X87124168Y-94343001D01*
X87128195Y-94338336D01*
X87228258Y-94162192D01*
X87241043Y-94123761D01*
X87279476Y-94008226D01*
X87292203Y-93969967D01*
X87317593Y-93768983D01*
X87317998Y-93740000D01*
X87316577Y-93725507D01*
X87782103Y-93725507D01*
X87785458Y-93765458D01*
X87795809Y-93888720D01*
X87799055Y-93927379D01*
X87800754Y-93933304D01*
X87851141Y-94109024D01*
X87854894Y-94122113D01*
X87857713Y-94127598D01*
X87944676Y-94296810D01*
X87944679Y-94296815D01*
X87947494Y-94302292D01*
X88073327Y-94461054D01*
X88078021Y-94465049D01*
X88192333Y-94562336D01*
X88227600Y-94592351D01*
X88404439Y-94691183D01*
X88597105Y-94753784D01*
X88798262Y-94777770D01*
X88804397Y-94777298D01*
X88804399Y-94777298D01*
X88994105Y-94762701D01*
X88994110Y-94762700D01*
X89000246Y-94762228D01*
X89006176Y-94760572D01*
X89006178Y-94760572D01*
X89097806Y-94734989D01*
X89195366Y-94707750D01*
X89224394Y-94693087D01*
X89370686Y-94619190D01*
X89370688Y-94619189D01*
X89376187Y-94616411D01*
X89535824Y-94491689D01*
X89549758Y-94475547D01*
X89664168Y-94343001D01*
X89668195Y-94338336D01*
X89768258Y-94162192D01*
X89781043Y-94123761D01*
X89819476Y-94008226D01*
X89832203Y-93969967D01*
X89857593Y-93768983D01*
X89857998Y-93740000D01*
X89856577Y-93725507D01*
X90322103Y-93725507D01*
X90325458Y-93765458D01*
X90335809Y-93888720D01*
X90339055Y-93927379D01*
X90340754Y-93933304D01*
X90391141Y-94109024D01*
X90394894Y-94122113D01*
X90397713Y-94127598D01*
X90484676Y-94296810D01*
X90484679Y-94296815D01*
X90487494Y-94302292D01*
X90613327Y-94461054D01*
X90618021Y-94465049D01*
X90732333Y-94562336D01*
X90767600Y-94592351D01*
X90944439Y-94691183D01*
X91137105Y-94753784D01*
X91338262Y-94777770D01*
X91344397Y-94777298D01*
X91344399Y-94777298D01*
X91534105Y-94762701D01*
X91534110Y-94762700D01*
X91540246Y-94762228D01*
X91546176Y-94760572D01*
X91546178Y-94760572D01*
X91637806Y-94734989D01*
X91735366Y-94707750D01*
X91764394Y-94693087D01*
X91910686Y-94619190D01*
X91910688Y-94619189D01*
X91916187Y-94616411D01*
X92075824Y-94491689D01*
X92089758Y-94475547D01*
X92204168Y-94343001D01*
X92208195Y-94338336D01*
X92308258Y-94162192D01*
X92321043Y-94123761D01*
X92359476Y-94008226D01*
X92372203Y-93969967D01*
X92397593Y-93768983D01*
X92397998Y-93740000D01*
X92396577Y-93725507D01*
X92862103Y-93725507D01*
X92865458Y-93765458D01*
X92875809Y-93888720D01*
X92879055Y-93927379D01*
X92880754Y-93933304D01*
X92931141Y-94109024D01*
X92934894Y-94122113D01*
X92937713Y-94127598D01*
X93024676Y-94296810D01*
X93024679Y-94296815D01*
X93027494Y-94302292D01*
X93153327Y-94461054D01*
X93158021Y-94465049D01*
X93272333Y-94562336D01*
X93307600Y-94592351D01*
X93484439Y-94691183D01*
X93677105Y-94753784D01*
X93878262Y-94777770D01*
X93884397Y-94777298D01*
X93884399Y-94777298D01*
X94074105Y-94762701D01*
X94074110Y-94762700D01*
X94080246Y-94762228D01*
X94086176Y-94760572D01*
X94086178Y-94760572D01*
X94177806Y-94734989D01*
X94275366Y-94707750D01*
X94304394Y-94693087D01*
X94450686Y-94619190D01*
X94450688Y-94619189D01*
X94456187Y-94616411D01*
X94615824Y-94491689D01*
X94629758Y-94475547D01*
X94744168Y-94343001D01*
X94748195Y-94338336D01*
X94848258Y-94162192D01*
X94861043Y-94123761D01*
X94899476Y-94008226D01*
X94912203Y-93969967D01*
X94937593Y-93768983D01*
X94937998Y-93740000D01*
X94936577Y-93725507D01*
X95402103Y-93725507D01*
X95405458Y-93765458D01*
X95415809Y-93888720D01*
X95419055Y-93927379D01*
X95420754Y-93933304D01*
X95471141Y-94109024D01*
X95474894Y-94122113D01*
X95477713Y-94127598D01*
X95564676Y-94296810D01*
X95564679Y-94296815D01*
X95567494Y-94302292D01*
X95693327Y-94461054D01*
X95698021Y-94465049D01*
X95812333Y-94562336D01*
X95847600Y-94592351D01*
X96024439Y-94691183D01*
X96217105Y-94753784D01*
X96418262Y-94777770D01*
X96424397Y-94777298D01*
X96424399Y-94777298D01*
X96614105Y-94762701D01*
X96614110Y-94762700D01*
X96620246Y-94762228D01*
X96626176Y-94760572D01*
X96626178Y-94760572D01*
X96717806Y-94734989D01*
X96815366Y-94707750D01*
X96844394Y-94693087D01*
X96990686Y-94619190D01*
X96990688Y-94619189D01*
X96996187Y-94616411D01*
X97155824Y-94491689D01*
X97169758Y-94475547D01*
X97284168Y-94343001D01*
X97288195Y-94338336D01*
X97388258Y-94162192D01*
X97401043Y-94123761D01*
X97439476Y-94008226D01*
X97452203Y-93969967D01*
X97477593Y-93768983D01*
X97477998Y-93740000D01*
X97476577Y-93725507D01*
X97942103Y-93725507D01*
X97945458Y-93765458D01*
X97955809Y-93888720D01*
X97959055Y-93927379D01*
X97960754Y-93933304D01*
X98011141Y-94109024D01*
X98014894Y-94122113D01*
X98017713Y-94127598D01*
X98104676Y-94296810D01*
X98104679Y-94296815D01*
X98107494Y-94302292D01*
X98233327Y-94461054D01*
X98238021Y-94465049D01*
X98352333Y-94562336D01*
X98387600Y-94592351D01*
X98564439Y-94691183D01*
X98757105Y-94753784D01*
X98958262Y-94777770D01*
X98964397Y-94777298D01*
X98964399Y-94777298D01*
X99154105Y-94762701D01*
X99154110Y-94762700D01*
X99160246Y-94762228D01*
X99166176Y-94760572D01*
X99166178Y-94760572D01*
X99257806Y-94734989D01*
X99355366Y-94707750D01*
X99384394Y-94693087D01*
X99530686Y-94619190D01*
X99530688Y-94619189D01*
X99536187Y-94616411D01*
X99695824Y-94491689D01*
X99709758Y-94475547D01*
X99824168Y-94343001D01*
X99828195Y-94338336D01*
X99928258Y-94162192D01*
X99941043Y-94123761D01*
X99979476Y-94008226D01*
X99992203Y-93969967D01*
X100017593Y-93768983D01*
X100017998Y-93740000D01*
X100016577Y-93725507D01*
X100482103Y-93725507D01*
X100485458Y-93765458D01*
X100495809Y-93888720D01*
X100499055Y-93927379D01*
X100500754Y-93933304D01*
X100551141Y-94109024D01*
X100554894Y-94122113D01*
X100557713Y-94127598D01*
X100644676Y-94296810D01*
X100644679Y-94296815D01*
X100647494Y-94302292D01*
X100773327Y-94461054D01*
X100778021Y-94465049D01*
X100892333Y-94562336D01*
X100927600Y-94592351D01*
X101104439Y-94691183D01*
X101297105Y-94753784D01*
X101498262Y-94777770D01*
X101504397Y-94777298D01*
X101504399Y-94777298D01*
X101694105Y-94762701D01*
X101694110Y-94762700D01*
X101700246Y-94762228D01*
X101706176Y-94760572D01*
X101706178Y-94760572D01*
X101797806Y-94734989D01*
X101895366Y-94707750D01*
X101924394Y-94693087D01*
X102070686Y-94619190D01*
X102070688Y-94619189D01*
X102076187Y-94616411D01*
X102235824Y-94491689D01*
X102249758Y-94475547D01*
X102364168Y-94343001D01*
X102368195Y-94338336D01*
X102468258Y-94162192D01*
X102481043Y-94123761D01*
X102519476Y-94008226D01*
X102532203Y-93969967D01*
X102557593Y-93768983D01*
X102557998Y-93740000D01*
X102556577Y-93725507D01*
X103022103Y-93725507D01*
X103025458Y-93765458D01*
X103035809Y-93888720D01*
X103039055Y-93927379D01*
X103040754Y-93933304D01*
X103091141Y-94109024D01*
X103094894Y-94122113D01*
X103097713Y-94127598D01*
X103184676Y-94296810D01*
X103184679Y-94296815D01*
X103187494Y-94302292D01*
X103313327Y-94461054D01*
X103318021Y-94465049D01*
X103432333Y-94562336D01*
X103467600Y-94592351D01*
X103644439Y-94691183D01*
X103837105Y-94753784D01*
X104038262Y-94777770D01*
X104044397Y-94777298D01*
X104044399Y-94777298D01*
X104234105Y-94762701D01*
X104234110Y-94762700D01*
X104240246Y-94762228D01*
X104246176Y-94760572D01*
X104246178Y-94760572D01*
X104337806Y-94734989D01*
X104435366Y-94707750D01*
X104464394Y-94693087D01*
X104610686Y-94619190D01*
X104610688Y-94619189D01*
X104616187Y-94616411D01*
X104775824Y-94491689D01*
X104789758Y-94475547D01*
X104904168Y-94343001D01*
X104908195Y-94338336D01*
X105008258Y-94162192D01*
X105021043Y-94123761D01*
X105059476Y-94008226D01*
X105072203Y-93969967D01*
X105097593Y-93768983D01*
X105097998Y-93740000D01*
X105096577Y-93725507D01*
X105562103Y-93725507D01*
X105565458Y-93765458D01*
X105575809Y-93888720D01*
X105579055Y-93927379D01*
X105580754Y-93933304D01*
X105631141Y-94109024D01*
X105634894Y-94122113D01*
X105637713Y-94127598D01*
X105724676Y-94296810D01*
X105724679Y-94296815D01*
X105727494Y-94302292D01*
X105853327Y-94461054D01*
X105858021Y-94465049D01*
X105972333Y-94562336D01*
X106007600Y-94592351D01*
X106184439Y-94691183D01*
X106377105Y-94753784D01*
X106578262Y-94777770D01*
X106584397Y-94777298D01*
X106584399Y-94777298D01*
X106774105Y-94762701D01*
X106774110Y-94762700D01*
X106780246Y-94762228D01*
X106786176Y-94760572D01*
X106786178Y-94760572D01*
X106877806Y-94734989D01*
X106975366Y-94707750D01*
X107004394Y-94693087D01*
X107150686Y-94619190D01*
X107150688Y-94619189D01*
X107156187Y-94616411D01*
X107315824Y-94491689D01*
X107329758Y-94475547D01*
X107444168Y-94343001D01*
X107448195Y-94338336D01*
X107548258Y-94162192D01*
X107561043Y-94123761D01*
X107599476Y-94008226D01*
X107612203Y-93969967D01*
X107637593Y-93768983D01*
X107637998Y-93740000D01*
X107636577Y-93725507D01*
X108102103Y-93725507D01*
X108105458Y-93765458D01*
X108115809Y-93888720D01*
X108119055Y-93927379D01*
X108120754Y-93933304D01*
X108171141Y-94109024D01*
X108174894Y-94122113D01*
X108177713Y-94127598D01*
X108264676Y-94296810D01*
X108264679Y-94296815D01*
X108267494Y-94302292D01*
X108393327Y-94461054D01*
X108398021Y-94465049D01*
X108512333Y-94562336D01*
X108547600Y-94592351D01*
X108724439Y-94691183D01*
X108917105Y-94753784D01*
X109118262Y-94777770D01*
X109124397Y-94777298D01*
X109124399Y-94777298D01*
X109314105Y-94762701D01*
X109314110Y-94762700D01*
X109320246Y-94762228D01*
X109326176Y-94760572D01*
X109326178Y-94760572D01*
X109417806Y-94734989D01*
X109515366Y-94707750D01*
X109544394Y-94693087D01*
X109690686Y-94619190D01*
X109690688Y-94619189D01*
X109696187Y-94616411D01*
X109855824Y-94491689D01*
X109869758Y-94475547D01*
X109984168Y-94343001D01*
X109988195Y-94338336D01*
X110088258Y-94162192D01*
X110101043Y-94123761D01*
X110131313Y-94032765D01*
X110171795Y-93974441D01*
X110237383Y-93947261D01*
X110307253Y-93959856D01*
X110359223Y-94008226D01*
X110372578Y-94039926D01*
X110414108Y-94194919D01*
X110417854Y-94205211D01*
X110512335Y-94407825D01*
X110517813Y-94417315D01*
X110559175Y-94476386D01*
X110569651Y-94484760D01*
X110583099Y-94477691D01*
X111307978Y-93752812D01*
X111314356Y-93741132D01*
X112044408Y-93741132D01*
X112044539Y-93742965D01*
X112048790Y-93749580D01*
X112777623Y-94478413D01*
X112789397Y-94484843D01*
X112801412Y-94475547D01*
X112842187Y-94417315D01*
X112847665Y-94407825D01*
X112942146Y-94205211D01*
X112945892Y-94194919D01*
X112987650Y-94039076D01*
X113024602Y-93978453D01*
X113088463Y-93947432D01*
X113158957Y-93955860D01*
X113213704Y-94001063D01*
X113230476Y-94036957D01*
X113251141Y-94109024D01*
X113254894Y-94122113D01*
X113257713Y-94127598D01*
X113344676Y-94296810D01*
X113344679Y-94296815D01*
X113347494Y-94302292D01*
X113473327Y-94461054D01*
X113478021Y-94465049D01*
X113592333Y-94562336D01*
X113627600Y-94592351D01*
X113804439Y-94691183D01*
X113997105Y-94753784D01*
X114198262Y-94777770D01*
X114204397Y-94777298D01*
X114204399Y-94777298D01*
X114394105Y-94762701D01*
X114394110Y-94762700D01*
X114400246Y-94762228D01*
X114406176Y-94760572D01*
X114406178Y-94760572D01*
X114497806Y-94734989D01*
X114595366Y-94707750D01*
X114624394Y-94693087D01*
X114770686Y-94619190D01*
X114770688Y-94619189D01*
X114776187Y-94616411D01*
X114935824Y-94491689D01*
X114949758Y-94475547D01*
X115064168Y-94343001D01*
X115068195Y-94338336D01*
X115168258Y-94162192D01*
X115181043Y-94123761D01*
X115219476Y-94008226D01*
X115232203Y-93969967D01*
X115257593Y-93768983D01*
X115257998Y-93740000D01*
X115256577Y-93725507D01*
X115722103Y-93725507D01*
X115725458Y-93765458D01*
X115735809Y-93888720D01*
X115739055Y-93927379D01*
X115740754Y-93933304D01*
X115791141Y-94109024D01*
X115794894Y-94122113D01*
X115797713Y-94127598D01*
X115884676Y-94296810D01*
X115884679Y-94296815D01*
X115887494Y-94302292D01*
X116013327Y-94461054D01*
X116018021Y-94465049D01*
X116132333Y-94562336D01*
X116167600Y-94592351D01*
X116344439Y-94691183D01*
X116537105Y-94753784D01*
X116738262Y-94777770D01*
X116744397Y-94777298D01*
X116744399Y-94777298D01*
X116934105Y-94762701D01*
X116934110Y-94762700D01*
X116940246Y-94762228D01*
X116946176Y-94760572D01*
X116946178Y-94760572D01*
X117037806Y-94734989D01*
X117135366Y-94707750D01*
X117164394Y-94693087D01*
X117310686Y-94619190D01*
X117310688Y-94619189D01*
X117316187Y-94616411D01*
X117475824Y-94491689D01*
X117489758Y-94475547D01*
X117604168Y-94343001D01*
X117608195Y-94338336D01*
X117708258Y-94162192D01*
X117721043Y-94123761D01*
X117759476Y-94008226D01*
X117772203Y-93969967D01*
X117797593Y-93768983D01*
X117797998Y-93740000D01*
X117796577Y-93725507D01*
X118262103Y-93725507D01*
X118265458Y-93765458D01*
X118275809Y-93888720D01*
X118279055Y-93927379D01*
X118280754Y-93933304D01*
X118331141Y-94109024D01*
X118334894Y-94122113D01*
X118337713Y-94127598D01*
X118424676Y-94296810D01*
X118424679Y-94296815D01*
X118427494Y-94302292D01*
X118553327Y-94461054D01*
X118558021Y-94465049D01*
X118672333Y-94562336D01*
X118707600Y-94592351D01*
X118884439Y-94691183D01*
X119077105Y-94753784D01*
X119278262Y-94777770D01*
X119284397Y-94777298D01*
X119284399Y-94777298D01*
X119474105Y-94762701D01*
X119474110Y-94762700D01*
X119480246Y-94762228D01*
X119486176Y-94760572D01*
X119486178Y-94760572D01*
X119577806Y-94734989D01*
X119675366Y-94707750D01*
X119704394Y-94693087D01*
X119850686Y-94619190D01*
X119850688Y-94619189D01*
X119856187Y-94616411D01*
X120015824Y-94491689D01*
X120029758Y-94475547D01*
X120144168Y-94343001D01*
X120148195Y-94338336D01*
X120248258Y-94162192D01*
X120261043Y-94123761D01*
X120299476Y-94008226D01*
X120312203Y-93969967D01*
X120337593Y-93768983D01*
X120337998Y-93740000D01*
X120318229Y-93538385D01*
X120316448Y-93532486D01*
X120316447Y-93532481D01*
X120261458Y-93350349D01*
X120259677Y-93344450D01*
X120164571Y-93165581D01*
X120160681Y-93160811D01*
X120160678Y-93160807D01*
X120040428Y-93013366D01*
X120040425Y-93013363D01*
X120036533Y-93008591D01*
X120029899Y-93003103D01*
X119885191Y-92883390D01*
X119885188Y-92883388D01*
X119880441Y-92879461D01*
X119702240Y-92783108D01*
X119605479Y-92753156D01*
X119514605Y-92725025D01*
X119514602Y-92725024D01*
X119508718Y-92723203D01*
X119502593Y-92722559D01*
X119502592Y-92722559D01*
X119313375Y-92702671D01*
X119313374Y-92702671D01*
X119307247Y-92702027D01*
X119223846Y-92709617D01*
X119111638Y-92719829D01*
X119111635Y-92719830D01*
X119105499Y-92720388D01*
X119099593Y-92722126D01*
X119099589Y-92722127D01*
X118954417Y-92764853D01*
X118911159Y-92777585D01*
X118731630Y-92871440D01*
X118573751Y-92998379D01*
X118443534Y-93153565D01*
X118345939Y-93331089D01*
X118284685Y-93524188D01*
X118283999Y-93530305D01*
X118283998Y-93530309D01*
X118266423Y-93686994D01*
X118262103Y-93725507D01*
X117796577Y-93725507D01*
X117778229Y-93538385D01*
X117776448Y-93532486D01*
X117776447Y-93532481D01*
X117721458Y-93350349D01*
X117719677Y-93344450D01*
X117624571Y-93165581D01*
X117620681Y-93160811D01*
X117620678Y-93160807D01*
X117500428Y-93013366D01*
X117500425Y-93013363D01*
X117496533Y-93008591D01*
X117489899Y-93003103D01*
X117345191Y-92883390D01*
X117345188Y-92883388D01*
X117340441Y-92879461D01*
X117162240Y-92783108D01*
X117065479Y-92753156D01*
X116974605Y-92725025D01*
X116974602Y-92725024D01*
X116968718Y-92723203D01*
X116962593Y-92722559D01*
X116962592Y-92722559D01*
X116773375Y-92702671D01*
X116773374Y-92702671D01*
X116767247Y-92702027D01*
X116683846Y-92709617D01*
X116571638Y-92719829D01*
X116571635Y-92719830D01*
X116565499Y-92720388D01*
X116559593Y-92722126D01*
X116559589Y-92722127D01*
X116414417Y-92764853D01*
X116371159Y-92777585D01*
X116191630Y-92871440D01*
X116033751Y-92998379D01*
X115903534Y-93153565D01*
X115805939Y-93331089D01*
X115744685Y-93524188D01*
X115743999Y-93530305D01*
X115743998Y-93530309D01*
X115726423Y-93686994D01*
X115722103Y-93725507D01*
X115256577Y-93725507D01*
X115238229Y-93538385D01*
X115236448Y-93532486D01*
X115236447Y-93532481D01*
X115181458Y-93350349D01*
X115179677Y-93344450D01*
X115084571Y-93165581D01*
X115080681Y-93160811D01*
X115080678Y-93160807D01*
X114960428Y-93013366D01*
X114960425Y-93013363D01*
X114956533Y-93008591D01*
X114949899Y-93003103D01*
X114805191Y-92883390D01*
X114805188Y-92883388D01*
X114800441Y-92879461D01*
X114622240Y-92783108D01*
X114525479Y-92753156D01*
X114434605Y-92725025D01*
X114434602Y-92725024D01*
X114428718Y-92723203D01*
X114422593Y-92722559D01*
X114422592Y-92722559D01*
X114233375Y-92702671D01*
X114233374Y-92702671D01*
X114227247Y-92702027D01*
X114143846Y-92709617D01*
X114031638Y-92719829D01*
X114031635Y-92719830D01*
X114025499Y-92720388D01*
X114019593Y-92722126D01*
X114019589Y-92722127D01*
X113874417Y-92764853D01*
X113831159Y-92777585D01*
X113651630Y-92871440D01*
X113493751Y-92998379D01*
X113363534Y-93153565D01*
X113265939Y-93331089D01*
X113259462Y-93351508D01*
X113229412Y-93446238D01*
X113189749Y-93505122D01*
X113124547Y-93533214D01*
X113054507Y-93521597D01*
X113001867Y-93473957D01*
X112987603Y-93440750D01*
X112945892Y-93285081D01*
X112942146Y-93274789D01*
X112847665Y-93072175D01*
X112842187Y-93062685D01*
X112800825Y-93003614D01*
X112790349Y-92995240D01*
X112776901Y-93002309D01*
X112052022Y-93727188D01*
X112044408Y-93741132D01*
X111314356Y-93741132D01*
X111315592Y-93738868D01*
X111315461Y-93737035D01*
X111311210Y-93730420D01*
X110582377Y-93001587D01*
X110570603Y-92995157D01*
X110558588Y-93004453D01*
X110517813Y-93062685D01*
X110512335Y-93072175D01*
X110417854Y-93274789D01*
X110414108Y-93285081D01*
X110372318Y-93441043D01*
X110335366Y-93501666D01*
X110271505Y-93532687D01*
X110201011Y-93524259D01*
X110146264Y-93479056D01*
X110129989Y-93444849D01*
X110101459Y-93350352D01*
X110101458Y-93350349D01*
X110099677Y-93344450D01*
X110004571Y-93165581D01*
X110000681Y-93160811D01*
X110000678Y-93160807D01*
X109880428Y-93013366D01*
X109880425Y-93013363D01*
X109876533Y-93008591D01*
X109869899Y-93003103D01*
X109725191Y-92883390D01*
X109725188Y-92883388D01*
X109720441Y-92879461D01*
X109542240Y-92783108D01*
X109445479Y-92753156D01*
X109354605Y-92725025D01*
X109354602Y-92725024D01*
X109348718Y-92723203D01*
X109342593Y-92722559D01*
X109342592Y-92722559D01*
X109153375Y-92702671D01*
X109153374Y-92702671D01*
X109147247Y-92702027D01*
X109063846Y-92709617D01*
X108951638Y-92719829D01*
X108951635Y-92719830D01*
X108945499Y-92720388D01*
X108939593Y-92722126D01*
X108939589Y-92722127D01*
X108794417Y-92764853D01*
X108751159Y-92777585D01*
X108571630Y-92871440D01*
X108413751Y-92998379D01*
X108283534Y-93153565D01*
X108185939Y-93331089D01*
X108124685Y-93524188D01*
X108123999Y-93530305D01*
X108123998Y-93530309D01*
X108106423Y-93686994D01*
X108102103Y-93725507D01*
X107636577Y-93725507D01*
X107618229Y-93538385D01*
X107616448Y-93532486D01*
X107616447Y-93532481D01*
X107561458Y-93350349D01*
X107559677Y-93344450D01*
X107464571Y-93165581D01*
X107460681Y-93160811D01*
X107460678Y-93160807D01*
X107340428Y-93013366D01*
X107340425Y-93013363D01*
X107336533Y-93008591D01*
X107329899Y-93003103D01*
X107185191Y-92883390D01*
X107185188Y-92883388D01*
X107180441Y-92879461D01*
X107002240Y-92783108D01*
X106905479Y-92753156D01*
X106814605Y-92725025D01*
X106814602Y-92725024D01*
X106808718Y-92723203D01*
X106802593Y-92722559D01*
X106802592Y-92722559D01*
X106613375Y-92702671D01*
X106613374Y-92702671D01*
X106607247Y-92702027D01*
X106523846Y-92709617D01*
X106411638Y-92719829D01*
X106411635Y-92719830D01*
X106405499Y-92720388D01*
X106399593Y-92722126D01*
X106399589Y-92722127D01*
X106254417Y-92764853D01*
X106211159Y-92777585D01*
X106031630Y-92871440D01*
X105873751Y-92998379D01*
X105743534Y-93153565D01*
X105645939Y-93331089D01*
X105584685Y-93524188D01*
X105583999Y-93530305D01*
X105583998Y-93530309D01*
X105566423Y-93686994D01*
X105562103Y-93725507D01*
X105096577Y-93725507D01*
X105078229Y-93538385D01*
X105076448Y-93532486D01*
X105076447Y-93532481D01*
X105021458Y-93350349D01*
X105019677Y-93344450D01*
X104924571Y-93165581D01*
X104920681Y-93160811D01*
X104920678Y-93160807D01*
X104800428Y-93013366D01*
X104800425Y-93013363D01*
X104796533Y-93008591D01*
X104789899Y-93003103D01*
X104645191Y-92883390D01*
X104645188Y-92883388D01*
X104640441Y-92879461D01*
X104462240Y-92783108D01*
X104365479Y-92753156D01*
X104274605Y-92725025D01*
X104274602Y-92725024D01*
X104268718Y-92723203D01*
X104262593Y-92722559D01*
X104262592Y-92722559D01*
X104073375Y-92702671D01*
X104073374Y-92702671D01*
X104067247Y-92702027D01*
X103983846Y-92709617D01*
X103871638Y-92719829D01*
X103871635Y-92719830D01*
X103865499Y-92720388D01*
X103859593Y-92722126D01*
X103859589Y-92722127D01*
X103714417Y-92764853D01*
X103671159Y-92777585D01*
X103491630Y-92871440D01*
X103333751Y-92998379D01*
X103203534Y-93153565D01*
X103105939Y-93331089D01*
X103044685Y-93524188D01*
X103043999Y-93530305D01*
X103043998Y-93530309D01*
X103026423Y-93686994D01*
X103022103Y-93725507D01*
X102556577Y-93725507D01*
X102538229Y-93538385D01*
X102536448Y-93532486D01*
X102536447Y-93532481D01*
X102481458Y-93350349D01*
X102479677Y-93344450D01*
X102384571Y-93165581D01*
X102380681Y-93160811D01*
X102380678Y-93160807D01*
X102260428Y-93013366D01*
X102260425Y-93013363D01*
X102256533Y-93008591D01*
X102249899Y-93003103D01*
X102105191Y-92883390D01*
X102105188Y-92883388D01*
X102100441Y-92879461D01*
X101922240Y-92783108D01*
X101825479Y-92753156D01*
X101734605Y-92725025D01*
X101734602Y-92725024D01*
X101728718Y-92723203D01*
X101722593Y-92722559D01*
X101722592Y-92722559D01*
X101533375Y-92702671D01*
X101533374Y-92702671D01*
X101527247Y-92702027D01*
X101443846Y-92709617D01*
X101331638Y-92719829D01*
X101331635Y-92719830D01*
X101325499Y-92720388D01*
X101319593Y-92722126D01*
X101319589Y-92722127D01*
X101174417Y-92764853D01*
X101131159Y-92777585D01*
X100951630Y-92871440D01*
X100793751Y-92998379D01*
X100663534Y-93153565D01*
X100565939Y-93331089D01*
X100504685Y-93524188D01*
X100503999Y-93530305D01*
X100503998Y-93530309D01*
X100486423Y-93686994D01*
X100482103Y-93725507D01*
X100016577Y-93725507D01*
X99998229Y-93538385D01*
X99996448Y-93532486D01*
X99996447Y-93532481D01*
X99941458Y-93350349D01*
X99939677Y-93344450D01*
X99844571Y-93165581D01*
X99840681Y-93160811D01*
X99840678Y-93160807D01*
X99720428Y-93013366D01*
X99720425Y-93013363D01*
X99716533Y-93008591D01*
X99709899Y-93003103D01*
X99565191Y-92883390D01*
X99565188Y-92883388D01*
X99560441Y-92879461D01*
X99382240Y-92783108D01*
X99285479Y-92753156D01*
X99194605Y-92725025D01*
X99194602Y-92725024D01*
X99188718Y-92723203D01*
X99182593Y-92722559D01*
X99182592Y-92722559D01*
X98993375Y-92702671D01*
X98993374Y-92702671D01*
X98987247Y-92702027D01*
X98903846Y-92709617D01*
X98791638Y-92719829D01*
X98791635Y-92719830D01*
X98785499Y-92720388D01*
X98779593Y-92722126D01*
X98779589Y-92722127D01*
X98634417Y-92764853D01*
X98591159Y-92777585D01*
X98411630Y-92871440D01*
X98253751Y-92998379D01*
X98123534Y-93153565D01*
X98025939Y-93331089D01*
X97964685Y-93524188D01*
X97963999Y-93530305D01*
X97963998Y-93530309D01*
X97946423Y-93686994D01*
X97942103Y-93725507D01*
X97476577Y-93725507D01*
X97458229Y-93538385D01*
X97456448Y-93532486D01*
X97456447Y-93532481D01*
X97401458Y-93350349D01*
X97399677Y-93344450D01*
X97304571Y-93165581D01*
X97300681Y-93160811D01*
X97300678Y-93160807D01*
X97180428Y-93013366D01*
X97180425Y-93013363D01*
X97176533Y-93008591D01*
X97169899Y-93003103D01*
X97025191Y-92883390D01*
X97025188Y-92883388D01*
X97020441Y-92879461D01*
X96842240Y-92783108D01*
X96745479Y-92753156D01*
X96654605Y-92725025D01*
X96654602Y-92725024D01*
X96648718Y-92723203D01*
X96642593Y-92722559D01*
X96642592Y-92722559D01*
X96453375Y-92702671D01*
X96453374Y-92702671D01*
X96447247Y-92702027D01*
X96363846Y-92709617D01*
X96251638Y-92719829D01*
X96251635Y-92719830D01*
X96245499Y-92720388D01*
X96239593Y-92722126D01*
X96239589Y-92722127D01*
X96094417Y-92764853D01*
X96051159Y-92777585D01*
X95871630Y-92871440D01*
X95713751Y-92998379D01*
X95583534Y-93153565D01*
X95485939Y-93331089D01*
X95424685Y-93524188D01*
X95423999Y-93530305D01*
X95423998Y-93530309D01*
X95406423Y-93686994D01*
X95402103Y-93725507D01*
X94936577Y-93725507D01*
X94918229Y-93538385D01*
X94916448Y-93532486D01*
X94916447Y-93532481D01*
X94861458Y-93350349D01*
X94859677Y-93344450D01*
X94764571Y-93165581D01*
X94760681Y-93160811D01*
X94760678Y-93160807D01*
X94640428Y-93013366D01*
X94640425Y-93013363D01*
X94636533Y-93008591D01*
X94629899Y-93003103D01*
X94485191Y-92883390D01*
X94485188Y-92883388D01*
X94480441Y-92879461D01*
X94302240Y-92783108D01*
X94205479Y-92753156D01*
X94114605Y-92725025D01*
X94114602Y-92725024D01*
X94108718Y-92723203D01*
X94102593Y-92722559D01*
X94102592Y-92722559D01*
X93913375Y-92702671D01*
X93913374Y-92702671D01*
X93907247Y-92702027D01*
X93823846Y-92709617D01*
X93711638Y-92719829D01*
X93711635Y-92719830D01*
X93705499Y-92720388D01*
X93699593Y-92722126D01*
X93699589Y-92722127D01*
X93554417Y-92764853D01*
X93511159Y-92777585D01*
X93331630Y-92871440D01*
X93173751Y-92998379D01*
X93043534Y-93153565D01*
X92945939Y-93331089D01*
X92884685Y-93524188D01*
X92883999Y-93530305D01*
X92883998Y-93530309D01*
X92866423Y-93686994D01*
X92862103Y-93725507D01*
X92396577Y-93725507D01*
X92378229Y-93538385D01*
X92376448Y-93532486D01*
X92376447Y-93532481D01*
X92321458Y-93350349D01*
X92319677Y-93344450D01*
X92224571Y-93165581D01*
X92220681Y-93160811D01*
X92220678Y-93160807D01*
X92100428Y-93013366D01*
X92100425Y-93013363D01*
X92096533Y-93008591D01*
X92089899Y-93003103D01*
X91945191Y-92883390D01*
X91945188Y-92883388D01*
X91940441Y-92879461D01*
X91762240Y-92783108D01*
X91665479Y-92753156D01*
X91574605Y-92725025D01*
X91574602Y-92725024D01*
X91568718Y-92723203D01*
X91562593Y-92722559D01*
X91562592Y-92722559D01*
X91373375Y-92702671D01*
X91373374Y-92702671D01*
X91367247Y-92702027D01*
X91283846Y-92709617D01*
X91171638Y-92719829D01*
X91171635Y-92719830D01*
X91165499Y-92720388D01*
X91159593Y-92722126D01*
X91159589Y-92722127D01*
X91014417Y-92764853D01*
X90971159Y-92777585D01*
X90791630Y-92871440D01*
X90633751Y-92998379D01*
X90503534Y-93153565D01*
X90405939Y-93331089D01*
X90344685Y-93524188D01*
X90343999Y-93530305D01*
X90343998Y-93530309D01*
X90326423Y-93686994D01*
X90322103Y-93725507D01*
X89856577Y-93725507D01*
X89838229Y-93538385D01*
X89836448Y-93532486D01*
X89836447Y-93532481D01*
X89781458Y-93350349D01*
X89779677Y-93344450D01*
X89684571Y-93165581D01*
X89680681Y-93160811D01*
X89680678Y-93160807D01*
X89560428Y-93013366D01*
X89560425Y-93013363D01*
X89556533Y-93008591D01*
X89549899Y-93003103D01*
X89405191Y-92883390D01*
X89405188Y-92883388D01*
X89400441Y-92879461D01*
X89222240Y-92783108D01*
X89125479Y-92753156D01*
X89034605Y-92725025D01*
X89034602Y-92725024D01*
X89028718Y-92723203D01*
X89022593Y-92722559D01*
X89022592Y-92722559D01*
X88833375Y-92702671D01*
X88833374Y-92702671D01*
X88827247Y-92702027D01*
X88743846Y-92709617D01*
X88631638Y-92719829D01*
X88631635Y-92719830D01*
X88625499Y-92720388D01*
X88619593Y-92722126D01*
X88619589Y-92722127D01*
X88474417Y-92764853D01*
X88431159Y-92777585D01*
X88251630Y-92871440D01*
X88093751Y-92998379D01*
X87963534Y-93153565D01*
X87865939Y-93331089D01*
X87804685Y-93524188D01*
X87803999Y-93530305D01*
X87803998Y-93530309D01*
X87786423Y-93686994D01*
X87782103Y-93725507D01*
X87316577Y-93725507D01*
X87298229Y-93538385D01*
X87296448Y-93532486D01*
X87296447Y-93532481D01*
X87241458Y-93350349D01*
X87239677Y-93344450D01*
X87144571Y-93165581D01*
X87140681Y-93160811D01*
X87140678Y-93160807D01*
X87020428Y-93013366D01*
X87020425Y-93013363D01*
X87016533Y-93008591D01*
X87009899Y-93003103D01*
X86865191Y-92883390D01*
X86865188Y-92883388D01*
X86860441Y-92879461D01*
X86682240Y-92783108D01*
X86585479Y-92753156D01*
X86494605Y-92725025D01*
X86494602Y-92725024D01*
X86488718Y-92723203D01*
X86482593Y-92722559D01*
X86482592Y-92722559D01*
X86293375Y-92702671D01*
X86293374Y-92702671D01*
X86287247Y-92702027D01*
X86203846Y-92709617D01*
X86091638Y-92719829D01*
X86091635Y-92719830D01*
X86085499Y-92720388D01*
X86079593Y-92722126D01*
X86079589Y-92722127D01*
X85934417Y-92764853D01*
X85891159Y-92777585D01*
X85711630Y-92871440D01*
X85553751Y-92998379D01*
X85423534Y-93153565D01*
X85325939Y-93331089D01*
X85264685Y-93524188D01*
X85263999Y-93530305D01*
X85263998Y-93530309D01*
X85246423Y-93686994D01*
X85242103Y-93725507D01*
X84776577Y-93725507D01*
X84758229Y-93538385D01*
X84756448Y-93532486D01*
X84756447Y-93532481D01*
X84701458Y-93350349D01*
X84699677Y-93344450D01*
X84604571Y-93165581D01*
X84600681Y-93160811D01*
X84600678Y-93160807D01*
X84480428Y-93013366D01*
X84480425Y-93013363D01*
X84476533Y-93008591D01*
X84469899Y-93003103D01*
X84325191Y-92883390D01*
X84325188Y-92883388D01*
X84320441Y-92879461D01*
X84142240Y-92783108D01*
X84045479Y-92753156D01*
X83954605Y-92725025D01*
X83954602Y-92725024D01*
X83948718Y-92723203D01*
X83942593Y-92722559D01*
X83942592Y-92722559D01*
X83753375Y-92702671D01*
X83753374Y-92702671D01*
X83747247Y-92702027D01*
X83663846Y-92709617D01*
X83551638Y-92719829D01*
X83551635Y-92719830D01*
X83545499Y-92720388D01*
X83539593Y-92722126D01*
X83539589Y-92722127D01*
X83394417Y-92764853D01*
X83351159Y-92777585D01*
X83171630Y-92871440D01*
X83013751Y-92998379D01*
X82883534Y-93153565D01*
X82785939Y-93331089D01*
X82724685Y-93524188D01*
X82723999Y-93530305D01*
X82723998Y-93530309D01*
X82706423Y-93686994D01*
X82702103Y-93725507D01*
X82236577Y-93725507D01*
X82218229Y-93538385D01*
X82216448Y-93532486D01*
X82216447Y-93532481D01*
X82161458Y-93350349D01*
X82159677Y-93344450D01*
X82064571Y-93165581D01*
X82060681Y-93160811D01*
X82060678Y-93160807D01*
X81940428Y-93013366D01*
X81940425Y-93013363D01*
X81936533Y-93008591D01*
X81929899Y-93003103D01*
X81785191Y-92883390D01*
X81785188Y-92883388D01*
X81780441Y-92879461D01*
X81602240Y-92783108D01*
X81505479Y-92753156D01*
X81414605Y-92725025D01*
X81414602Y-92725024D01*
X81408718Y-92723203D01*
X81402593Y-92722559D01*
X81402592Y-92722559D01*
X81213375Y-92702671D01*
X81213374Y-92702671D01*
X81207247Y-92702027D01*
X81123846Y-92709617D01*
X81011638Y-92719829D01*
X81011635Y-92719830D01*
X81005499Y-92720388D01*
X80999593Y-92722126D01*
X80999589Y-92722127D01*
X80854417Y-92764853D01*
X80811159Y-92777585D01*
X80631630Y-92871440D01*
X80473751Y-92998379D01*
X80343534Y-93153565D01*
X80245939Y-93331089D01*
X80184685Y-93524188D01*
X80183999Y-93530305D01*
X80183998Y-93530309D01*
X80166423Y-93686994D01*
X80162103Y-93725507D01*
X50229148Y-93725507D01*
X50225626Y-93700917D01*
X50167472Y-93573015D01*
X50075758Y-93466576D01*
X50068227Y-93461695D01*
X50068224Y-93461692D01*
X49965388Y-93395037D01*
X49965386Y-93395036D01*
X49957857Y-93390156D01*
X49949260Y-93387585D01*
X49949258Y-93387584D01*
X49869216Y-93363647D01*
X49823246Y-93349899D01*
X49814270Y-93349844D01*
X49814269Y-93349844D01*
X49755015Y-93349482D01*
X49682747Y-93349041D01*
X49547654Y-93387651D01*
X49428828Y-93462624D01*
X49335821Y-93567935D01*
X49276109Y-93695117D01*
X49274729Y-93703981D01*
X49274728Y-93703984D01*
X49256997Y-93817866D01*
X49254493Y-93833946D01*
X41600825Y-93833946D01*
X41600185Y-93827378D01*
X41599799Y-93822398D01*
X41573920Y-93372603D01*
X41573857Y-93371416D01*
X41556905Y-93018751D01*
X41556765Y-93013852D01*
X41553254Y-92629651D01*
X110935240Y-92629651D01*
X110942309Y-92643099D01*
X111667188Y-93367978D01*
X111681132Y-93375592D01*
X111682965Y-93375461D01*
X111689580Y-93371210D01*
X112418413Y-92642377D01*
X112424843Y-92630603D01*
X112415547Y-92618588D01*
X112357315Y-92577813D01*
X112347825Y-92572335D01*
X112145211Y-92477854D01*
X112134919Y-92474108D01*
X111918979Y-92416247D01*
X111908184Y-92414344D01*
X111685475Y-92394859D01*
X111674525Y-92394859D01*
X111451816Y-92414344D01*
X111441021Y-92416247D01*
X111225081Y-92474108D01*
X111214789Y-92477854D01*
X111012175Y-92572335D01*
X111002685Y-92577813D01*
X110943614Y-92619175D01*
X110935240Y-92629651D01*
X41553254Y-92629651D01*
X41552671Y-92565816D01*
X41552666Y-92564532D01*
X41552901Y-92341579D01*
X41553042Y-92208959D01*
X41553137Y-92204212D01*
X41567264Y-91843946D01*
X64864493Y-91843946D01*
X64865657Y-91852848D01*
X64865657Y-91852851D01*
X64867495Y-91866903D01*
X64882711Y-91983262D01*
X64939297Y-92111864D01*
X64945074Y-92118737D01*
X64945075Y-92118738D01*
X64952108Y-92127105D01*
X65029704Y-92219416D01*
X65146663Y-92297271D01*
X65280772Y-92339169D01*
X65289742Y-92339333D01*
X65289746Y-92339334D01*
X65354544Y-92340521D01*
X65421250Y-92341744D01*
X65478624Y-92326102D01*
X65548145Y-92307149D01*
X65548147Y-92307148D01*
X65556804Y-92304788D01*
X65676538Y-92231271D01*
X65770825Y-92127105D01*
X65832086Y-92000662D01*
X65855396Y-91862107D01*
X65855544Y-91850000D01*
X65835626Y-91710917D01*
X65777472Y-91583015D01*
X65685758Y-91476576D01*
X65678227Y-91471695D01*
X65678224Y-91471692D01*
X65575388Y-91405037D01*
X65575386Y-91405036D01*
X65567857Y-91400156D01*
X65559260Y-91397585D01*
X65559258Y-91397584D01*
X65479216Y-91373647D01*
X65433246Y-91359899D01*
X65424270Y-91359844D01*
X65424269Y-91359844D01*
X65365015Y-91359482D01*
X65292747Y-91359041D01*
X65157654Y-91397651D01*
X65038828Y-91472624D01*
X64945821Y-91577935D01*
X64886109Y-91705117D01*
X64884729Y-91713981D01*
X64884728Y-91713984D01*
X64883822Y-91719807D01*
X64864493Y-91843946D01*
X41567264Y-91843946D01*
X41570604Y-91758784D01*
X41570665Y-91757406D01*
X41588601Y-91400008D01*
X41588925Y-91395309D01*
X41592033Y-91359899D01*
X41606803Y-91191579D01*
X41627737Y-90953017D01*
X41627875Y-90951549D01*
X41653521Y-90693946D01*
X91104493Y-90693946D01*
X91105657Y-90702848D01*
X91105657Y-90702851D01*
X91107495Y-90716903D01*
X91122711Y-90833262D01*
X91179297Y-90961864D01*
X91185074Y-90968737D01*
X91185075Y-90968738D01*
X91192108Y-90977105D01*
X91269704Y-91069416D01*
X91386663Y-91147271D01*
X91520772Y-91189169D01*
X91529742Y-91189333D01*
X91529746Y-91189334D01*
X91594544Y-91190521D01*
X91661250Y-91191744D01*
X91718624Y-91176102D01*
X91788145Y-91157149D01*
X91788147Y-91157148D01*
X91796804Y-91154788D01*
X91916538Y-91081271D01*
X92010825Y-90977105D01*
X92072086Y-90850662D01*
X92095396Y-90712107D01*
X92095544Y-90700000D01*
X92075626Y-90560917D01*
X92017472Y-90433015D01*
X91925758Y-90326576D01*
X91918227Y-90321695D01*
X91918224Y-90321692D01*
X91815388Y-90255037D01*
X91815386Y-90255036D01*
X91807857Y-90250156D01*
X91799260Y-90247585D01*
X91799258Y-90247584D01*
X91719216Y-90223647D01*
X91673246Y-90209899D01*
X91664270Y-90209844D01*
X91664269Y-90209844D01*
X91605015Y-90209482D01*
X91532747Y-90209041D01*
X91397654Y-90247651D01*
X91278828Y-90322624D01*
X91185821Y-90427935D01*
X91126109Y-90555117D01*
X91124729Y-90563981D01*
X91124728Y-90563984D01*
X91106897Y-90678508D01*
X91104493Y-90693946D01*
X41653521Y-90693946D01*
X41663495Y-90593764D01*
X41664036Y-90589180D01*
X41664088Y-90588804D01*
X41723950Y-90150896D01*
X41724170Y-90149353D01*
X41737974Y-90056965D01*
X41777552Y-89792083D01*
X41778297Y-89787644D01*
X41778378Y-89787212D01*
X41859071Y-89354081D01*
X41859387Y-89352446D01*
X41870547Y-89296647D01*
X89027194Y-89296647D01*
X89028358Y-89305549D01*
X89028358Y-89305552D01*
X89041852Y-89408741D01*
X89045412Y-89435963D01*
X89101998Y-89564565D01*
X89107775Y-89571438D01*
X89107776Y-89571439D01*
X89114809Y-89579806D01*
X89192405Y-89672117D01*
X89309364Y-89749972D01*
X89443473Y-89791870D01*
X89452443Y-89792034D01*
X89452447Y-89792035D01*
X89517245Y-89793222D01*
X89583951Y-89794445D01*
X89641325Y-89778803D01*
X89710846Y-89759850D01*
X89710848Y-89759849D01*
X89719505Y-89757489D01*
X89839239Y-89683972D01*
X89933526Y-89579806D01*
X89994787Y-89453363D01*
X90018097Y-89314808D01*
X90018245Y-89302701D01*
X90009831Y-89243946D01*
X91027493Y-89243946D01*
X91028657Y-89252848D01*
X91028657Y-89252851D01*
X91041681Y-89352446D01*
X91045711Y-89383262D01*
X91102297Y-89511864D01*
X91108074Y-89518737D01*
X91108075Y-89518738D01*
X91115108Y-89527105D01*
X91192704Y-89619416D01*
X91309663Y-89697271D01*
X91443772Y-89739169D01*
X91452742Y-89739333D01*
X91452746Y-89739334D01*
X91517544Y-89740521D01*
X91584250Y-89741744D01*
X91641624Y-89726102D01*
X91711145Y-89707149D01*
X91711147Y-89707148D01*
X91719804Y-89704788D01*
X91839538Y-89631271D01*
X91933825Y-89527105D01*
X91977983Y-89435963D01*
X91991172Y-89408741D01*
X91991172Y-89408740D01*
X91995086Y-89400662D01*
X92018396Y-89262107D01*
X92018544Y-89250000D01*
X91998626Y-89110917D01*
X91959065Y-89023907D01*
X91944187Y-88991185D01*
X91944186Y-88991183D01*
X91940472Y-88983015D01*
X91848758Y-88876576D01*
X91841227Y-88871695D01*
X91841224Y-88871692D01*
X91759847Y-88818946D01*
X93616993Y-88818946D01*
X93618157Y-88827848D01*
X93618157Y-88827851D01*
X93631784Y-88932054D01*
X93635211Y-88958262D01*
X93691797Y-89086864D01*
X93697574Y-89093737D01*
X93697575Y-89093738D01*
X93758894Y-89166685D01*
X93782204Y-89194416D01*
X93899163Y-89272271D01*
X93907733Y-89274948D01*
X93907732Y-89274948D01*
X94012118Y-89307560D01*
X94033272Y-89314169D01*
X94042242Y-89314333D01*
X94042246Y-89314334D01*
X94107044Y-89315521D01*
X94173750Y-89316744D01*
X94242925Y-89297885D01*
X94300645Y-89282149D01*
X94300647Y-89282148D01*
X94309304Y-89279788D01*
X94429038Y-89206271D01*
X94523325Y-89102105D01*
X94575721Y-88993959D01*
X94580672Y-88983741D01*
X94580672Y-88983740D01*
X94584586Y-88975662D01*
X94607896Y-88837107D01*
X94608044Y-88825000D01*
X94588126Y-88685917D01*
X94529972Y-88558015D01*
X94438258Y-88451576D01*
X94430727Y-88446695D01*
X94430724Y-88446692D01*
X94327888Y-88380037D01*
X94327886Y-88380036D01*
X94320357Y-88375156D01*
X94311760Y-88372585D01*
X94311758Y-88372584D01*
X94231716Y-88348647D01*
X94185746Y-88334899D01*
X94176770Y-88334844D01*
X94176769Y-88334844D01*
X94117515Y-88334482D01*
X94045247Y-88334041D01*
X93910154Y-88372651D01*
X93791328Y-88447624D01*
X93698321Y-88552935D01*
X93638609Y-88680117D01*
X93637229Y-88688981D01*
X93637228Y-88688984D01*
X93619159Y-88805037D01*
X93616993Y-88818946D01*
X91759847Y-88818946D01*
X91738388Y-88805037D01*
X91738386Y-88805036D01*
X91730857Y-88800156D01*
X91722260Y-88797585D01*
X91722258Y-88797584D01*
X91642216Y-88773647D01*
X91596246Y-88759899D01*
X91587270Y-88759844D01*
X91587269Y-88759844D01*
X91528015Y-88759482D01*
X91455747Y-88759041D01*
X91320654Y-88797651D01*
X91201828Y-88872624D01*
X91108821Y-88977935D01*
X91049109Y-89105117D01*
X91047729Y-89113981D01*
X91047728Y-89113984D01*
X91036276Y-89187540D01*
X91027493Y-89243946D01*
X90009831Y-89243946D01*
X89998327Y-89163618D01*
X89940173Y-89035716D01*
X89848459Y-88929277D01*
X89840928Y-88924396D01*
X89840925Y-88924393D01*
X89738089Y-88857738D01*
X89738087Y-88857737D01*
X89730558Y-88852857D01*
X89721961Y-88850286D01*
X89721959Y-88850285D01*
X89621306Y-88820184D01*
X89595947Y-88812600D01*
X89586971Y-88812545D01*
X89586970Y-88812545D01*
X89527716Y-88812183D01*
X89455448Y-88811742D01*
X89320355Y-88850352D01*
X89201529Y-88925325D01*
X89195587Y-88932053D01*
X89195586Y-88932054D01*
X89157073Y-88975662D01*
X89108522Y-89030636D01*
X89048810Y-89157818D01*
X89047430Y-89166682D01*
X89047429Y-89166685D01*
X89030573Y-89274948D01*
X89027194Y-89296647D01*
X41870547Y-89296647D01*
X41930485Y-88996975D01*
X41931429Y-88992653D01*
X41960987Y-88867834D01*
X42032790Y-88564618D01*
X42033195Y-88562960D01*
X42036151Y-88551215D01*
X42121941Y-88210250D01*
X42123069Y-88206071D01*
X42244677Y-87784526D01*
X42245204Y-87782747D01*
X42351468Y-87433765D01*
X42352770Y-87429735D01*
X42494291Y-87015469D01*
X42494935Y-87013629D01*
X42618514Y-86669394D01*
X42619977Y-86665521D01*
X42781045Y-86259339D01*
X42781814Y-86257444D01*
X42922433Y-85918969D01*
X42924044Y-85915260D01*
X43104271Y-85517942D01*
X43105172Y-85516000D01*
X43183405Y-85351042D01*
X43262535Y-85184193D01*
X43264277Y-85180663D01*
X43299779Y-85111492D01*
X43363396Y-84987540D01*
X43463207Y-84793068D01*
X43464246Y-84791088D01*
X43637957Y-84466921D01*
X43639829Y-84463552D01*
X43856995Y-84086466D01*
X43858177Y-84084457D01*
X44047847Y-83768768D01*
X44049830Y-83765575D01*
X44284724Y-83399791D01*
X44286055Y-83397763D01*
X44491248Y-83091371D01*
X44493330Y-83088357D01*
X44745410Y-82734647D01*
X44746824Y-82732705D01*
X44967057Y-82436409D01*
X44969226Y-82433576D01*
X45237868Y-82092752D01*
X45239509Y-82090713D01*
X45474179Y-81805383D01*
X45476422Y-81802732D01*
X45761055Y-81475471D01*
X45762856Y-81473444D01*
X46011370Y-81199831D01*
X46013675Y-81197361D01*
X46135252Y-81070511D01*
X46313722Y-80884300D01*
X46315658Y-80882326D01*
X46577388Y-80621148D01*
X46579742Y-80618859D01*
X46592780Y-80606510D01*
X46697497Y-80507322D01*
X46894443Y-80320776D01*
X46896572Y-80318805D01*
X47170916Y-80070682D01*
X47173307Y-80068574D01*
X47501899Y-79786165D01*
X47504195Y-79784238D01*
X47790491Y-79549787D01*
X47792908Y-79547858D01*
X48134785Y-79281635D01*
X48137248Y-79279765D01*
X48434586Y-79059730D01*
X48437016Y-79057975D01*
X48470039Y-79034733D01*
X48791451Y-78808514D01*
X48794081Y-78806713D01*
X48986148Y-78678671D01*
X49101837Y-78601547D01*
X49104258Y-78599973D01*
X49140182Y-78577202D01*
X49297731Y-78477335D01*
X49470348Y-78367917D01*
X49473143Y-78366196D01*
X49790490Y-78176440D01*
X49792915Y-78175026D01*
X49850248Y-78142456D01*
X50009027Y-78052255D01*
X50169938Y-77960843D01*
X50172897Y-77959214D01*
X50499039Y-77785330D01*
X50501446Y-77784080D01*
X50888503Y-77588298D01*
X50891623Y-77586774D01*
X51225721Y-77429189D01*
X51228099Y-77428097D01*
X51453406Y-77327491D01*
X51624412Y-77251132D01*
X51627628Y-77249751D01*
X51968854Y-77108832D01*
X51971144Y-77107913D01*
X52285627Y-76985347D01*
X52308245Y-76976532D01*
X52378979Y-76970432D01*
X52441783Y-77003542D01*
X52476716Y-77065349D01*
X52480000Y-77093931D01*
X52480000Y-86070000D01*
X63280000Y-86070000D01*
X63280000Y-85544496D01*
X100298937Y-85544496D01*
X100314732Y-85732590D01*
X100366760Y-85914034D01*
X100369576Y-85919513D01*
X100446916Y-86070000D01*
X100453040Y-86081917D01*
X100456865Y-86086743D01*
X100456867Y-86086746D01*
X100566456Y-86225014D01*
X100566460Y-86225019D01*
X100570285Y-86229844D01*
X100714030Y-86352180D01*
X100719408Y-86355186D01*
X100719410Y-86355187D01*
X100796415Y-86398224D01*
X100878800Y-86444267D01*
X101058317Y-86502595D01*
X101245745Y-86524945D01*
X101251880Y-86524473D01*
X101251882Y-86524473D01*
X101427803Y-86510937D01*
X101427807Y-86510936D01*
X101433945Y-86510464D01*
X101439877Y-86508808D01*
X101439881Y-86508807D01*
X101609804Y-86461363D01*
X101609808Y-86461362D01*
X101615748Y-86459703D01*
X101695297Y-86419520D01*
X101778728Y-86377377D01*
X101778730Y-86377376D01*
X101784229Y-86374598D01*
X101932970Y-86258388D01*
X101936996Y-86253724D01*
X101936999Y-86253721D01*
X102052278Y-86120169D01*
X102052279Y-86120167D01*
X102056307Y-86115501D01*
X102149542Y-85951378D01*
X102209123Y-85772272D01*
X102232780Y-85585005D01*
X102233157Y-85558000D01*
X102214738Y-85370145D01*
X102160181Y-85189445D01*
X102071566Y-85022783D01*
X102052490Y-84999393D01*
X101978571Y-84908761D01*
X101952266Y-84876508D01*
X101946475Y-84871717D01*
X101811577Y-84760120D01*
X101811574Y-84760118D01*
X101806827Y-84756191D01*
X101640788Y-84666414D01*
X101460474Y-84610597D01*
X101454356Y-84609954D01*
X101454351Y-84609953D01*
X101278881Y-84591511D01*
X101278879Y-84591511D01*
X101272752Y-84590867D01*
X101157125Y-84601390D01*
X101090914Y-84607415D01*
X101090913Y-84607415D01*
X101084773Y-84607974D01*
X100903697Y-84661268D01*
X100736420Y-84748718D01*
X100589316Y-84866993D01*
X100467986Y-85011588D01*
X100465016Y-85016991D01*
X100465015Y-85016992D01*
X100411501Y-85114334D01*
X100377052Y-85176996D01*
X100319978Y-85356917D01*
X100298937Y-85544496D01*
X63280000Y-85544496D01*
X63280000Y-84618946D01*
X88866993Y-84618946D01*
X88868157Y-84627848D01*
X88868157Y-84627851D01*
X88883963Y-84748718D01*
X88885211Y-84758262D01*
X88941797Y-84886864D01*
X88947574Y-84893737D01*
X88947575Y-84893738D01*
X88954608Y-84902105D01*
X89032204Y-84994416D01*
X89149163Y-85072271D01*
X89283272Y-85114169D01*
X89292242Y-85114333D01*
X89292246Y-85114334D01*
X89357044Y-85115521D01*
X89423750Y-85116744D01*
X89481124Y-85101102D01*
X89550645Y-85082149D01*
X89550647Y-85082148D01*
X89559304Y-85079788D01*
X89679038Y-85006271D01*
X89773325Y-84902105D01*
X89834586Y-84775662D01*
X89857896Y-84637107D01*
X89858044Y-84625000D01*
X89838126Y-84485917D01*
X89779972Y-84358015D01*
X89688258Y-84251576D01*
X89680727Y-84246695D01*
X89680724Y-84246692D01*
X89577888Y-84180037D01*
X89577886Y-84180036D01*
X89570357Y-84175156D01*
X89561760Y-84172585D01*
X89561758Y-84172584D01*
X89481716Y-84148647D01*
X89435746Y-84134899D01*
X89426770Y-84134844D01*
X89426769Y-84134844D01*
X89367515Y-84134482D01*
X89295247Y-84134041D01*
X89160154Y-84172651D01*
X89041328Y-84247624D01*
X88948321Y-84352935D01*
X88888609Y-84480117D01*
X88887229Y-84488981D01*
X88887228Y-84488984D01*
X88871265Y-84591511D01*
X88866993Y-84618946D01*
X63280000Y-84618946D01*
X63280000Y-76880168D01*
X63300002Y-76812047D01*
X63353658Y-76765554D01*
X63423932Y-76755450D01*
X63443835Y-76759983D01*
X63491642Y-76775035D01*
X63496357Y-76776622D01*
X63825803Y-76894893D01*
X63826823Y-76895265D01*
X64252411Y-77052236D01*
X64257105Y-77054075D01*
X64426332Y-77124381D01*
X64576951Y-77186956D01*
X64577872Y-77187343D01*
X64998772Y-77366133D01*
X65003502Y-77368258D01*
X65312596Y-77514848D01*
X65313110Y-77515094D01*
X65464646Y-77588298D01*
X65729007Y-77716005D01*
X65733712Y-77718401D01*
X66030122Y-77877238D01*
X66030834Y-77877622D01*
X66441355Y-78101012D01*
X66446021Y-78103682D01*
X66728210Y-78273224D01*
X66728821Y-78273593D01*
X67134119Y-78520237D01*
X67138730Y-78523182D01*
X67404527Y-78701189D01*
X67405040Y-78701534D01*
X67560437Y-78806713D01*
X67744476Y-78931278D01*
X67805679Y-78972703D01*
X67810218Y-78975924D01*
X68056837Y-79159234D01*
X68057256Y-79159547D01*
X68454405Y-79457312D01*
X68458857Y-79460809D01*
X68681924Y-79644270D01*
X68682255Y-79644543D01*
X69078797Y-79972944D01*
X69083145Y-79976715D01*
X69275405Y-80151339D01*
X69318870Y-80191027D01*
X69677354Y-80518363D01*
X69681582Y-80522407D01*
X69827765Y-80668898D01*
X69827934Y-80669067D01*
X70248686Y-81092306D01*
X70252777Y-81096621D01*
X70309040Y-81158829D01*
X70309136Y-81158935D01*
X70788595Y-81690269D01*
X70792561Y-81694884D01*
X71299546Y-82314456D01*
X71299573Y-82314552D01*
X71299603Y-82314569D01*
X71299617Y-82314603D01*
X71299778Y-82314669D01*
X71299933Y-82314758D01*
X71300070Y-82314720D01*
X111532044Y-82314720D01*
X111532179Y-82314757D01*
X111532329Y-82314671D01*
X111532493Y-82314603D01*
X111532508Y-82314568D01*
X111532538Y-82314550D01*
X111532564Y-82314454D01*
X112039712Y-81688684D01*
X112043650Y-81684058D01*
X112045036Y-81682508D01*
X112374004Y-81314473D01*
X112521249Y-81149742D01*
X112521344Y-81149637D01*
X112580021Y-81084140D01*
X112584082Y-81079816D01*
X112903789Y-80755174D01*
X113004045Y-80653370D01*
X113004212Y-80653200D01*
X113038159Y-80618859D01*
X113151950Y-80503746D01*
X113156118Y-80499721D01*
X113557939Y-80129325D01*
X113621895Y-80070682D01*
X113751458Y-79951884D01*
X113755757Y-79948120D01*
X114152272Y-79616577D01*
X114152600Y-79616303D01*
X114249094Y-79536175D01*
X114377115Y-79429869D01*
X114381513Y-79426381D01*
X114779269Y-79125221D01*
X115027394Y-78938968D01*
X115031866Y-78935763D01*
X115433319Y-78661273D01*
X115433673Y-78661033D01*
X115700805Y-78480302D01*
X115705390Y-78477342D01*
X116037273Y-78273224D01*
X116111447Y-78227605D01*
X116112056Y-78227233D01*
X116395770Y-78054947D01*
X116400424Y-78052255D01*
X116717050Y-77878019D01*
X116811919Y-77825814D01*
X116812526Y-77825483D01*
X117110592Y-77663945D01*
X117115275Y-77661532D01*
X117532352Y-77457620D01*
X117532964Y-77457324D01*
X117843589Y-77308209D01*
X117848287Y-77306072D01*
X118270603Y-77124325D01*
X118271273Y-77124039D01*
X118593042Y-76988576D01*
X118597754Y-76986705D01*
X119024805Y-76826902D01*
X119025704Y-76826569D01*
X119357138Y-76705818D01*
X119361850Y-76704207D01*
X119793277Y-76566136D01*
X119794410Y-76565779D01*
X120014883Y-76497506D01*
X120134047Y-76460606D01*
X120138739Y-76459252D01*
X120139704Y-76458994D01*
X120177161Y-76448973D01*
X120573922Y-76342830D01*
X120575164Y-76342505D01*
X120921976Y-76253502D01*
X120926652Y-76252396D01*
X120950053Y-76247333D01*
X121364982Y-76157561D01*
X121366001Y-76157346D01*
X121617617Y-76105785D01*
X121719085Y-76084993D01*
X121723716Y-76084134D01*
X122164066Y-76010928D01*
X122165522Y-76010695D01*
X122466363Y-75964292D01*
X122523400Y-75955495D01*
X122527956Y-75954877D01*
X122785718Y-75924736D01*
X122969730Y-75903218D01*
X122971290Y-75903045D01*
X123333059Y-75865304D01*
X123337562Y-75864916D01*
X123779940Y-75834754D01*
X123781602Y-75834652D01*
X124146155Y-75814633D01*
X124150568Y-75814468D01*
X124369896Y-75810137D01*
X124592611Y-75805740D01*
X124594371Y-75805717D01*
X124960684Y-75803603D01*
X124965013Y-75803652D01*
G37*
%TD.AperFunction*%
%TD*%
M02*
