M48
; DRILL file {KiCad (6.0.0)} date Sat Feb 26 01:06:44 2022
; FORMAT={-:-/ absolute / inch / decimal}
; #@! TF.CreationDate,2022-02-26T01:06:44-08:00
; #@! TF.GenerationSoftware,Kicad,Pcbnew,(6.0.0)
; #@! TF.FileFunction,Plated,1,4,PTH
FMAT,2
INCH
; #@! TA.AperFunction,Plated,PTH,ComponentDrill
T1C0.0118
; #@! TA.AperFunction,Plated,PTH,ViaDrill
T2C0.0157
; #@! TA.AperFunction,Plated,PTH,ComponentDrill
T3C0.0300
; #@! TA.AperFunction,Plated,PTH,ComponentDrill
T4C0.0437
%
G90
G05
T1
X2.0255Y-4.6433
X2.0255Y-4.7058
X2.0255Y-4.7683
X2.1043Y-4.6433
X2.1043Y-4.7058
X2.1043Y-4.7683
X2.1831Y-4.6433
X2.1831Y-4.7058
X2.1831Y-4.7683
X2.2619Y-4.6433
X2.2619Y-4.7058
X2.2619Y-4.7683
T2
X1.7933Y-3.7736
X1.8012Y-3.5394
X1.82Y-4.56
X1.82Y-4.68
X1.82Y-4.78
X1.8258Y-3.3996
X1.8425Y-3.3297
X1.8888Y-3.2776
X1.9134Y-4.5295
X1.937Y-3.2333
X1.9587Y-3.6945
X1.9626Y-4.3012
X1.9833Y-3.1909
X2.0Y-3.1071
X2.0Y-4.3012
X2.0039Y-4.935
X2.0266Y-3.3268
X2.0276Y-3.2677
X2.0276Y-3.3858
X2.0394Y-4.2205
X2.0768Y-4.2933
X2.0846Y-4.3484
X2.0945Y-4.3799
X2.1457Y-4.935
X2.1949Y-5.0354
X2.2992Y-4.3957
X2.3228Y-4.0945
X2.3228Y-4.1929
X2.3228Y-4.2913
X2.4165Y-4.2806
X2.4311Y-4.3996
X2.4713Y-4.8021
X2.5Y-4.0866
X2.5028Y-4.3626
X2.5394Y-3.248
X2.5394Y-3.3071
X2.5394Y-3.3661
X2.5524Y-3.1031
X2.5524Y-3.1425
X2.5524Y-3.1819
X2.5732Y-3.6161
X2.5835Y-3.7516
X2.5936Y-3.4556
X2.6181Y-4.3602
X2.6386Y-3.7535
X2.6772Y-3.3071
X2.6772Y-3.4055
X2.6772Y-3.5236
X2.6816Y-3.7549
X2.8346Y-3.3071
X2.8346Y-3.4055
X2.8346Y-3.5236
X2.9921Y-3.3071
X2.9921Y-3.4055
X3.1949Y-4.7437
X3.2953Y-4.7457
X3.5098Y-4.3287
X3.5123Y-3.4203
X3.5182Y-3.3317
X3.5245Y-3.5159
X3.587Y-3.3472
X3.595Y-3.2904
X3.6033Y-3.5138
X3.6063Y-3.5709
X3.6112Y-4.125
X3.6678Y-3.2884
X3.7052Y-3.497
X3.7092Y-3.3809
X3.7092Y-3.4144
X3.7092Y-3.4459
X3.811Y-4.0325
X3.877Y-3.8612
X4.0246Y-3.8169
X4.8425Y-4.8425
X4.98Y-4.7035
X4.98Y-4.8416
X5.1163Y-4.5464
X5.1175Y-4.8422
X5.1181Y-4.7047
X5.2559Y-4.3898
X5.2559Y-4.5472
X5.2559Y-4.7047
X5.2559Y-4.8425
T3
X3.9869Y-3.3684
X4.6919Y-3.8034
T4
X3.1969Y-3.6906
X3.1969Y-4.4906
X3.2969Y-3.6906
X3.2969Y-4.4906
X3.3969Y-3.6906
X3.3969Y-4.4906
X3.4969Y-3.6906
X3.4969Y-4.4906
X3.5969Y-3.6906
X3.5969Y-4.4906
X3.6969Y-3.6906
X3.6969Y-4.4906
X3.7969Y-3.6906
X3.7969Y-4.4906
X3.8969Y-3.6906
X3.8969Y-4.4906
X3.9969Y-3.6906
X3.9969Y-4.4906
X4.0969Y-3.6906
X4.0969Y-4.4906
X4.1969Y-3.6906
X4.1969Y-4.4906
X4.2969Y-3.6906
X4.2969Y-4.4906
X4.3969Y-3.6906
X4.4969Y-3.6906
X4.5969Y-3.6906
X4.6969Y-3.6906
T0
M30
