%TF.GenerationSoftware,KiCad,Pcbnew,(6.0.1-0)*%
%TF.CreationDate,2022-02-24T13:14:32-08:00*%
%TF.ProjectId,Dog_Tracker,446f675f-5472-4616-936b-65722e6b6963,rev?*%
%TF.SameCoordinates,Original*%
%TF.FileFunction,Legend,Top*%
%TF.FilePolarity,Positive*%
%FSLAX46Y46*%
G04 Gerber Fmt 4.6, Leading zero omitted, Abs format (unit mm)*
G04 Created by KiCad (PCBNEW (6.0.1-0)) date 2022-02-24 13:14:32*
%MOMM*%
%LPD*%
G01*
G04 APERTURE LIST*
%ADD10C,0.300000*%
%ADD11C,0.150000*%
%ADD12C,0.254000*%
%ADD13C,0.120000*%
%ADD14C,0.250000*%
%ADD15C,0.200000*%
%ADD16C,0.100000*%
G04 APERTURE END LIST*
D10*
X123088571Y-120794761D02*
X123088571Y-118794761D01*
X124231428Y-120794761D02*
X123374285Y-119651904D01*
X124231428Y-118794761D02*
X123088571Y-119937619D01*
X124898095Y-119461428D02*
X125374285Y-120794761D01*
X125850476Y-119461428D02*
X125374285Y-120794761D01*
X125183809Y-121270952D01*
X125088571Y-121366190D01*
X124898095Y-121461428D01*
X126898095Y-120794761D02*
X126707619Y-120699523D01*
X126612380Y-120509047D01*
X126612380Y-118794761D01*
X128421904Y-120699523D02*
X128231428Y-120794761D01*
X127850476Y-120794761D01*
X127660000Y-120699523D01*
X127564761Y-120509047D01*
X127564761Y-119747142D01*
X127660000Y-119556666D01*
X127850476Y-119461428D01*
X128231428Y-119461428D01*
X128421904Y-119556666D01*
X128517142Y-119747142D01*
X128517142Y-119937619D01*
X127564761Y-120128095D01*
X130136190Y-120699523D02*
X129945714Y-120794761D01*
X129564761Y-120794761D01*
X129374285Y-120699523D01*
X129279047Y-120509047D01*
X129279047Y-119747142D01*
X129374285Y-119556666D01*
X129564761Y-119461428D01*
X129945714Y-119461428D01*
X130136190Y-119556666D01*
X130231428Y-119747142D01*
X130231428Y-119937619D01*
X129279047Y-120128095D01*
X134231428Y-120794761D02*
X134136190Y-120794761D01*
X133945714Y-120699523D01*
X133660000Y-120413809D01*
X133183809Y-119842380D01*
X132993333Y-119556666D01*
X132898095Y-119270952D01*
X132898095Y-119080476D01*
X132993333Y-118890000D01*
X133183809Y-118794761D01*
X133279047Y-118794761D01*
X133469523Y-118890000D01*
X133564761Y-119080476D01*
X133564761Y-119175714D01*
X133469523Y-119366190D01*
X133374285Y-119461428D01*
X132802857Y-119842380D01*
X132707619Y-119937619D01*
X132612380Y-120128095D01*
X132612380Y-120413809D01*
X132707619Y-120604285D01*
X132802857Y-120699523D01*
X132993333Y-120794761D01*
X133279047Y-120794761D01*
X133469523Y-120699523D01*
X133564761Y-120604285D01*
X133850476Y-120223333D01*
X133945714Y-119937619D01*
X133945714Y-119747142D01*
X136517142Y-120223333D02*
X137469523Y-120223333D01*
X136326666Y-120794761D02*
X136993333Y-118794761D01*
X137660000Y-120794761D01*
X138326666Y-119461428D02*
X138326666Y-120794761D01*
X138326666Y-119651904D02*
X138421904Y-119556666D01*
X138612380Y-119461428D01*
X138898095Y-119461428D01*
X139088571Y-119556666D01*
X139183809Y-119747142D01*
X139183809Y-120794761D01*
X140993333Y-119461428D02*
X140993333Y-121080476D01*
X140898095Y-121270952D01*
X140802857Y-121366190D01*
X140612380Y-121461428D01*
X140326666Y-121461428D01*
X140136190Y-121366190D01*
X140993333Y-120699523D02*
X140802857Y-120794761D01*
X140421904Y-120794761D01*
X140231428Y-120699523D01*
X140136190Y-120604285D01*
X140040952Y-120413809D01*
X140040952Y-119842380D01*
X140136190Y-119651904D01*
X140231428Y-119556666D01*
X140421904Y-119461428D01*
X140802857Y-119461428D01*
X140993333Y-119556666D01*
X141945714Y-120794761D02*
X141945714Y-119461428D01*
X141945714Y-118794761D02*
X141850476Y-118890000D01*
X141945714Y-118985238D01*
X142040952Y-118890000D01*
X141945714Y-118794761D01*
X141945714Y-118985238D01*
X143660000Y-120699523D02*
X143469523Y-120794761D01*
X143088571Y-120794761D01*
X142898095Y-120699523D01*
X142802857Y-120509047D01*
X142802857Y-119747142D01*
X142898095Y-119556666D01*
X143088571Y-119461428D01*
X143469523Y-119461428D01*
X143660000Y-119556666D01*
X143755238Y-119747142D01*
X143755238Y-119937619D01*
X142802857Y-120128095D01*
X144707619Y-118794761D02*
X144517142Y-119175714D01*
X145469523Y-120699523D02*
X145660000Y-120794761D01*
X146040952Y-120794761D01*
X146231428Y-120699523D01*
X146326666Y-120509047D01*
X146326666Y-120413809D01*
X146231428Y-120223333D01*
X146040952Y-120128095D01*
X145755238Y-120128095D01*
X145564761Y-120032857D01*
X145469523Y-119842380D01*
X145469523Y-119747142D01*
X145564761Y-119556666D01*
X145755238Y-119461428D01*
X146040952Y-119461428D01*
X146231428Y-119556666D01*
X125088571Y-124014761D02*
X125088571Y-122014761D01*
X125564761Y-122014761D01*
X125850476Y-122110000D01*
X126040952Y-122300476D01*
X126136190Y-122490952D01*
X126231428Y-122871904D01*
X126231428Y-123157619D01*
X126136190Y-123538571D01*
X126040952Y-123729047D01*
X125850476Y-123919523D01*
X125564761Y-124014761D01*
X125088571Y-124014761D01*
X127945714Y-124014761D02*
X127945714Y-122967142D01*
X127850476Y-122776666D01*
X127660000Y-122681428D01*
X127279047Y-122681428D01*
X127088571Y-122776666D01*
X127945714Y-123919523D02*
X127755238Y-124014761D01*
X127279047Y-124014761D01*
X127088571Y-123919523D01*
X126993333Y-123729047D01*
X126993333Y-123538571D01*
X127088571Y-123348095D01*
X127279047Y-123252857D01*
X127755238Y-123252857D01*
X127945714Y-123157619D01*
X128707619Y-122681428D02*
X129088571Y-124014761D01*
X129469523Y-123062380D01*
X129850476Y-124014761D01*
X130231428Y-122681428D01*
X131850476Y-122681428D02*
X131850476Y-124300476D01*
X131755238Y-124490952D01*
X131660000Y-124586190D01*
X131469523Y-124681428D01*
X131183809Y-124681428D01*
X130993333Y-124586190D01*
X131850476Y-123919523D02*
X131660000Y-124014761D01*
X131279047Y-124014761D01*
X131088571Y-123919523D01*
X130993333Y-123824285D01*
X130898095Y-123633809D01*
X130898095Y-123062380D01*
X130993333Y-122871904D01*
X131088571Y-122776666D01*
X131279047Y-122681428D01*
X131660000Y-122681428D01*
X131850476Y-122776666D01*
X134040952Y-122014761D02*
X135183809Y-122014761D01*
X134612380Y-124014761D02*
X134612380Y-122014761D01*
X135850476Y-124014761D02*
X135850476Y-122681428D01*
X135850476Y-123062380D02*
X135945714Y-122871904D01*
X136040952Y-122776666D01*
X136231428Y-122681428D01*
X136421904Y-122681428D01*
X137945714Y-124014761D02*
X137945714Y-122967142D01*
X137850476Y-122776666D01*
X137660000Y-122681428D01*
X137279047Y-122681428D01*
X137088571Y-122776666D01*
X137945714Y-123919523D02*
X137755238Y-124014761D01*
X137279047Y-124014761D01*
X137088571Y-123919523D01*
X136993333Y-123729047D01*
X136993333Y-123538571D01*
X137088571Y-123348095D01*
X137279047Y-123252857D01*
X137755238Y-123252857D01*
X137945714Y-123157619D01*
X139755238Y-123919523D02*
X139564761Y-124014761D01*
X139183809Y-124014761D01*
X138993333Y-123919523D01*
X138898095Y-123824285D01*
X138802857Y-123633809D01*
X138802857Y-123062380D01*
X138898095Y-122871904D01*
X138993333Y-122776666D01*
X139183809Y-122681428D01*
X139564761Y-122681428D01*
X139755238Y-122776666D01*
X140612380Y-124014761D02*
X140612380Y-122014761D01*
X140802857Y-123252857D02*
X141374285Y-124014761D01*
X141374285Y-122681428D02*
X140612380Y-123443333D01*
X142993333Y-123919523D02*
X142802857Y-124014761D01*
X142421904Y-124014761D01*
X142231428Y-123919523D01*
X142136190Y-123729047D01*
X142136190Y-122967142D01*
X142231428Y-122776666D01*
X142421904Y-122681428D01*
X142802857Y-122681428D01*
X142993333Y-122776666D01*
X143088571Y-122967142D01*
X143088571Y-123157619D01*
X142136190Y-123348095D01*
X143945714Y-124014761D02*
X143945714Y-122681428D01*
X143945714Y-123062380D02*
X144040952Y-122871904D01*
X144136190Y-122776666D01*
X144326666Y-122681428D01*
X144517142Y-122681428D01*
D11*
%TO.C,R7*%
X85216666Y-119356666D02*
X84883333Y-119590000D01*
X85216666Y-119756666D02*
X84516666Y-119756666D01*
X84516666Y-119490000D01*
X84550000Y-119423333D01*
X84583333Y-119390000D01*
X84650000Y-119356666D01*
X84750000Y-119356666D01*
X84816666Y-119390000D01*
X84850000Y-119423333D01*
X84883333Y-119490000D01*
X84883333Y-119756666D01*
X84516666Y-119123333D02*
X84516666Y-118656666D01*
X85216666Y-118956666D01*
%TO.C,R8*%
X80216666Y-119206666D02*
X79883333Y-119440000D01*
X80216666Y-119606666D02*
X79516666Y-119606666D01*
X79516666Y-119340000D01*
X79550000Y-119273333D01*
X79583333Y-119240000D01*
X79650000Y-119206666D01*
X79750000Y-119206666D01*
X79816666Y-119240000D01*
X79850000Y-119273333D01*
X79883333Y-119340000D01*
X79883333Y-119606666D01*
X79816666Y-118806666D02*
X79783333Y-118873333D01*
X79750000Y-118906666D01*
X79683333Y-118940000D01*
X79650000Y-118940000D01*
X79583333Y-118906666D01*
X79550000Y-118873333D01*
X79516666Y-118806666D01*
X79516666Y-118673333D01*
X79550000Y-118606666D01*
X79583333Y-118573333D01*
X79650000Y-118540000D01*
X79683333Y-118540000D01*
X79750000Y-118573333D01*
X79783333Y-118606666D01*
X79816666Y-118673333D01*
X79816666Y-118806666D01*
X79850000Y-118873333D01*
X79883333Y-118906666D01*
X79950000Y-118940000D01*
X80083333Y-118940000D01*
X80150000Y-118906666D01*
X80183333Y-118873333D01*
X80216666Y-118806666D01*
X80216666Y-118673333D01*
X80183333Y-118606666D01*
X80150000Y-118573333D01*
X80083333Y-118540000D01*
X79950000Y-118540000D01*
X79883333Y-118573333D01*
X79850000Y-118606666D01*
X79816666Y-118673333D01*
%TO.C,R2*%
X58466666Y-112816666D02*
X58133333Y-113050000D01*
X58466666Y-113216666D02*
X57766666Y-113216666D01*
X57766666Y-112950000D01*
X57800000Y-112883333D01*
X57833333Y-112850000D01*
X57900000Y-112816666D01*
X58000000Y-112816666D01*
X58066666Y-112850000D01*
X58100000Y-112883333D01*
X58133333Y-112950000D01*
X58133333Y-113216666D01*
X57833333Y-112550000D02*
X57800000Y-112516666D01*
X57766666Y-112450000D01*
X57766666Y-112283333D01*
X57800000Y-112216666D01*
X57833333Y-112183333D01*
X57900000Y-112150000D01*
X57966666Y-112150000D01*
X58066666Y-112183333D01*
X58466666Y-112583333D01*
X58466666Y-112150000D01*
%TO.C,U3*%
X48266666Y-120435833D02*
X48833333Y-120435833D01*
X48900000Y-120402500D01*
X48933333Y-120369166D01*
X48966666Y-120302500D01*
X48966666Y-120169166D01*
X48933333Y-120102500D01*
X48900000Y-120069166D01*
X48833333Y-120035833D01*
X48266666Y-120035833D01*
X48266666Y-119769166D02*
X48266666Y-119335833D01*
X48533333Y-119569166D01*
X48533333Y-119469166D01*
X48566666Y-119402500D01*
X48600000Y-119369166D01*
X48666666Y-119335833D01*
X48833333Y-119335833D01*
X48900000Y-119369166D01*
X48933333Y-119402500D01*
X48966666Y-119469166D01*
X48966666Y-119669166D01*
X48933333Y-119735833D01*
X48900000Y-119769166D01*
%TO.C,R1*%
X60583333Y-114166666D02*
X60350000Y-113833333D01*
X60183333Y-114166666D02*
X60183333Y-113466666D01*
X60450000Y-113466666D01*
X60516666Y-113500000D01*
X60550000Y-113533333D01*
X60583333Y-113600000D01*
X60583333Y-113700000D01*
X60550000Y-113766666D01*
X60516666Y-113800000D01*
X60450000Y-113833333D01*
X60183333Y-113833333D01*
X61250000Y-114166666D02*
X60850000Y-114166666D01*
X61050000Y-114166666D02*
X61050000Y-113466666D01*
X60983333Y-113566666D01*
X60916666Y-113633333D01*
X60850000Y-113666666D01*
%TO.C,U2*%
X55883333Y-104583333D02*
X55883333Y-104016666D01*
X55850000Y-103950000D01*
X55816666Y-103916666D01*
X55750000Y-103883333D01*
X55616666Y-103883333D01*
X55550000Y-103916666D01*
X55516666Y-103950000D01*
X55483333Y-104016666D01*
X55483333Y-104583333D01*
X55183333Y-104516666D02*
X55150000Y-104550000D01*
X55083333Y-104583333D01*
X54916666Y-104583333D01*
X54850000Y-104550000D01*
X54816666Y-104516666D01*
X54783333Y-104450000D01*
X54783333Y-104383333D01*
X54816666Y-104283333D01*
X55216666Y-103883333D01*
X54783333Y-103883333D01*
X58470666Y-94445238D02*
X58327809Y-94397619D01*
X58089714Y-94397619D01*
X57994476Y-94445238D01*
X57946857Y-94492857D01*
X57899238Y-94588095D01*
X57899238Y-94683333D01*
X57946857Y-94778571D01*
X57994476Y-94826190D01*
X58089714Y-94873809D01*
X58280190Y-94921428D01*
X58375428Y-94969047D01*
X58423047Y-95016666D01*
X58470666Y-95111904D01*
X58470666Y-95207142D01*
X58423047Y-95302380D01*
X58375428Y-95350000D01*
X58280190Y-95397619D01*
X58042095Y-95397619D01*
X57899238Y-95350000D01*
X57565904Y-95397619D02*
X56899238Y-94397619D01*
X56899238Y-95397619D02*
X57565904Y-94397619D01*
X55994476Y-94397619D02*
X56565904Y-94397619D01*
X56280190Y-94397619D02*
X56280190Y-95397619D01*
X56375428Y-95254761D01*
X56470666Y-95159523D01*
X56565904Y-95111904D01*
X55613523Y-95302380D02*
X55565904Y-95350000D01*
X55470666Y-95397619D01*
X55232571Y-95397619D01*
X55137333Y-95350000D01*
X55089714Y-95302380D01*
X55042095Y-95207142D01*
X55042095Y-95111904D01*
X55089714Y-94969047D01*
X55661142Y-94397619D01*
X55042095Y-94397619D01*
X54470666Y-94969047D02*
X54565904Y-95016666D01*
X54613523Y-95064285D01*
X54661142Y-95159523D01*
X54661142Y-95207142D01*
X54613523Y-95302380D01*
X54565904Y-95350000D01*
X54470666Y-95397619D01*
X54280190Y-95397619D01*
X54184952Y-95350000D01*
X54137333Y-95302380D01*
X54089714Y-95207142D01*
X54089714Y-95159523D01*
X54137333Y-95064285D01*
X54184952Y-95016666D01*
X54280190Y-94969047D01*
X54470666Y-94969047D01*
X54565904Y-94921428D01*
X54613523Y-94873809D01*
X54661142Y-94778571D01*
X54661142Y-94588095D01*
X54613523Y-94492857D01*
X54565904Y-94445238D01*
X54470666Y-94397619D01*
X54280190Y-94397619D01*
X54184952Y-94445238D01*
X54137333Y-94492857D01*
X54089714Y-94588095D01*
X54089714Y-94778571D01*
X54137333Y-94873809D01*
X54184952Y-94921428D01*
X54280190Y-94969047D01*
X53470666Y-95397619D02*
X53375428Y-95397619D01*
X53280190Y-95350000D01*
X53232571Y-95302380D01*
X53184952Y-95207142D01*
X53137333Y-95016666D01*
X53137333Y-94778571D01*
X53184952Y-94588095D01*
X53232571Y-94492857D01*
X53280190Y-94445238D01*
X53375428Y-94397619D01*
X53470666Y-94397619D01*
X53565904Y-94445238D01*
X53613523Y-94492857D01*
X53661142Y-94588095D01*
X53708761Y-94778571D01*
X53708761Y-95016666D01*
X53661142Y-95207142D01*
X53613523Y-95302380D01*
X53565904Y-95350000D01*
X53470666Y-95397619D01*
%TO.C,AE1*%
X66513333Y-80136666D02*
X66846666Y-80136666D01*
X66446666Y-80336666D02*
X66680000Y-79636666D01*
X66913333Y-80336666D01*
X67146666Y-79970000D02*
X67380000Y-79970000D01*
X67480000Y-80336666D02*
X67146666Y-80336666D01*
X67146666Y-79636666D01*
X67480000Y-79636666D01*
X68146666Y-80336666D02*
X67746666Y-80336666D01*
X67946666Y-80336666D02*
X67946666Y-79636666D01*
X67880000Y-79736666D01*
X67813333Y-79803333D01*
X67746666Y-79836666D01*
%TO.C,R4*%
X55016666Y-126633666D02*
X54683333Y-126867000D01*
X55016666Y-127033666D02*
X54316666Y-127033666D01*
X54316666Y-126767000D01*
X54350000Y-126700333D01*
X54383333Y-126667000D01*
X54450000Y-126633666D01*
X54550000Y-126633666D01*
X54616666Y-126667000D01*
X54650000Y-126700333D01*
X54683333Y-126767000D01*
X54683333Y-127033666D01*
X54550000Y-126033666D02*
X55016666Y-126033666D01*
X54283333Y-126200333D02*
X54783333Y-126367000D01*
X54783333Y-125933666D01*
%TO.C,R3*%
X52366666Y-126066666D02*
X52033333Y-126300000D01*
X52366666Y-126466666D02*
X51666666Y-126466666D01*
X51666666Y-126200000D01*
X51700000Y-126133333D01*
X51733333Y-126100000D01*
X51800000Y-126066666D01*
X51900000Y-126066666D01*
X51966666Y-126100000D01*
X52000000Y-126133333D01*
X52033333Y-126200000D01*
X52033333Y-126466666D01*
X51666666Y-125833333D02*
X51666666Y-125400000D01*
X51933333Y-125633333D01*
X51933333Y-125533333D01*
X51966666Y-125466666D01*
X52000000Y-125433333D01*
X52066666Y-125400000D01*
X52233333Y-125400000D01*
X52300000Y-125433333D01*
X52333333Y-125466666D01*
X52366666Y-125533333D01*
X52366666Y-125733333D01*
X52333333Y-125800000D01*
X52300000Y-125833333D01*
%TO.C,R5*%
X55516666Y-111866666D02*
X55183333Y-112100000D01*
X55516666Y-112266666D02*
X54816666Y-112266666D01*
X54816666Y-112000000D01*
X54850000Y-111933333D01*
X54883333Y-111900000D01*
X54950000Y-111866666D01*
X55050000Y-111866666D01*
X55116666Y-111900000D01*
X55150000Y-111933333D01*
X55183333Y-112000000D01*
X55183333Y-112266666D01*
X54816666Y-111233333D02*
X54816666Y-111566666D01*
X55150000Y-111600000D01*
X55116666Y-111566666D01*
X55083333Y-111500000D01*
X55083333Y-111333333D01*
X55116666Y-111266666D01*
X55150000Y-111233333D01*
X55216666Y-111200000D01*
X55383333Y-111200000D01*
X55450000Y-111233333D01*
X55483333Y-111266666D01*
X55516666Y-111333333D01*
X55516666Y-111500000D01*
X55483333Y-111566666D01*
X55450000Y-111600000D01*
%TO.C,C4*%
X88845833Y-83825000D02*
X88812500Y-83858333D01*
X88712500Y-83891666D01*
X88645833Y-83891666D01*
X88545833Y-83858333D01*
X88479166Y-83791666D01*
X88445833Y-83725000D01*
X88412500Y-83591666D01*
X88412500Y-83491666D01*
X88445833Y-83358333D01*
X88479166Y-83291666D01*
X88545833Y-83225000D01*
X88645833Y-83191666D01*
X88712500Y-83191666D01*
X88812500Y-83225000D01*
X88845833Y-83258333D01*
X89445833Y-83425000D02*
X89445833Y-83891666D01*
X89279166Y-83158333D02*
X89112500Y-83658333D01*
X89545833Y-83658333D01*
%TO.C,C3*%
X93512500Y-84691666D02*
X93545833Y-84725000D01*
X93579166Y-84825000D01*
X93579166Y-84891666D01*
X93545833Y-84991666D01*
X93479166Y-85058333D01*
X93412500Y-85091666D01*
X93279166Y-85125000D01*
X93179166Y-85125000D01*
X93045833Y-85091666D01*
X92979166Y-85058333D01*
X92912500Y-84991666D01*
X92879166Y-84891666D01*
X92879166Y-84825000D01*
X92912500Y-84725000D01*
X92945833Y-84691666D01*
X92879166Y-84458333D02*
X92879166Y-84025000D01*
X93145833Y-84258333D01*
X93145833Y-84158333D01*
X93179166Y-84091666D01*
X93212500Y-84058333D01*
X93279166Y-84025000D01*
X93445833Y-84025000D01*
X93512500Y-84058333D01*
X93545833Y-84091666D01*
X93579166Y-84158333D01*
X93579166Y-84358333D01*
X93545833Y-84425000D01*
X93512500Y-84458333D01*
%TO.C,C1*%
X53050000Y-107916666D02*
X53083333Y-107950000D01*
X53116666Y-108050000D01*
X53116666Y-108116666D01*
X53083333Y-108216666D01*
X53016666Y-108283333D01*
X52950000Y-108316666D01*
X52816666Y-108350000D01*
X52716666Y-108350000D01*
X52583333Y-108316666D01*
X52516666Y-108283333D01*
X52450000Y-108216666D01*
X52416666Y-108116666D01*
X52416666Y-108050000D01*
X52450000Y-107950000D01*
X52483333Y-107916666D01*
X53116666Y-107250000D02*
X53116666Y-107650000D01*
X53116666Y-107450000D02*
X52416666Y-107450000D01*
X52516666Y-107516666D01*
X52583333Y-107583333D01*
X52616666Y-107650000D01*
D12*
%TO.C,IC1*%
X99010238Y-104224523D02*
X99010238Y-102954523D01*
X100340714Y-104103571D02*
X100280238Y-104164047D01*
X100098809Y-104224523D01*
X99977857Y-104224523D01*
X99796428Y-104164047D01*
X99675476Y-104043095D01*
X99615000Y-103922142D01*
X99554523Y-103680238D01*
X99554523Y-103498809D01*
X99615000Y-103256904D01*
X99675476Y-103135952D01*
X99796428Y-103015000D01*
X99977857Y-102954523D01*
X100098809Y-102954523D01*
X100280238Y-103015000D01*
X100340714Y-103075476D01*
X101550238Y-104224523D02*
X100824523Y-104224523D01*
X101187380Y-104224523D02*
X101187380Y-102954523D01*
X101066428Y-103135952D01*
X100945476Y-103256904D01*
X100824523Y-103317380D01*
D11*
%TO.C,U5*%
X64466666Y-108822266D02*
X64466666Y-109388933D01*
X64500000Y-109455600D01*
X64533333Y-109488933D01*
X64600000Y-109522266D01*
X64733333Y-109522266D01*
X64800000Y-109488933D01*
X64833333Y-109455600D01*
X64866666Y-109388933D01*
X64866666Y-108822266D01*
X65533333Y-108822266D02*
X65200000Y-108822266D01*
X65166666Y-109155600D01*
X65200000Y-109122266D01*
X65266666Y-109088933D01*
X65433333Y-109088933D01*
X65500000Y-109122266D01*
X65533333Y-109155600D01*
X65566666Y-109222266D01*
X65566666Y-109388933D01*
X65533333Y-109455600D01*
X65500000Y-109488933D01*
X65433333Y-109522266D01*
X65266666Y-109522266D01*
X65200000Y-109488933D01*
X65166666Y-109455600D01*
%TO.C,U6*%
X87616666Y-88666666D02*
X87616666Y-89000000D01*
X86916666Y-89000000D01*
X87583333Y-88466666D02*
X87616666Y-88366666D01*
X87616666Y-88200000D01*
X87583333Y-88133333D01*
X87550000Y-88100000D01*
X87483333Y-88066666D01*
X87416666Y-88066666D01*
X87350000Y-88100000D01*
X87316666Y-88133333D01*
X87283333Y-88200000D01*
X87250000Y-88333333D01*
X87216666Y-88400000D01*
X87183333Y-88433333D01*
X87116666Y-88466666D01*
X87050000Y-88466666D01*
X86983333Y-88433333D01*
X86950000Y-88400000D01*
X86916666Y-88333333D01*
X86916666Y-88166666D01*
X86950000Y-88066666D01*
X87616666Y-87766666D02*
X86916666Y-87766666D01*
X87416666Y-87533333D01*
X86916666Y-87300000D01*
X87616666Y-87300000D01*
X86916666Y-86666666D02*
X86916666Y-86800000D01*
X86950000Y-86866666D01*
X86983333Y-86900000D01*
X87083333Y-86966666D01*
X87216666Y-87000000D01*
X87483333Y-87000000D01*
X87550000Y-86966666D01*
X87583333Y-86933333D01*
X87616666Y-86866666D01*
X87616666Y-86733333D01*
X87583333Y-86666666D01*
X87550000Y-86633333D01*
X87483333Y-86600000D01*
X87316666Y-86600000D01*
X87250000Y-86633333D01*
X87216666Y-86666666D01*
X87183333Y-86733333D01*
X87183333Y-86866666D01*
X87216666Y-86933333D01*
X87250000Y-86966666D01*
X87316666Y-87000000D01*
X87616666Y-86300000D02*
X86916666Y-86300000D01*
X86916666Y-86133333D01*
X86950000Y-86033333D01*
X87016666Y-85966666D01*
X87083333Y-85933333D01*
X87216666Y-85900000D01*
X87316666Y-85900000D01*
X87450000Y-85933333D01*
X87516666Y-85966666D01*
X87583333Y-86033333D01*
X87616666Y-86133333D01*
X87616666Y-86300000D01*
X87583333Y-85633333D02*
X87616666Y-85533333D01*
X87616666Y-85366666D01*
X87583333Y-85300000D01*
X87550000Y-85266666D01*
X87483333Y-85233333D01*
X87416666Y-85233333D01*
X87350000Y-85266666D01*
X87316666Y-85300000D01*
X87283333Y-85366666D01*
X87250000Y-85500000D01*
X87216666Y-85566666D01*
X87183333Y-85600000D01*
X87116666Y-85633333D01*
X87050000Y-85633333D01*
X86983333Y-85600000D01*
X86950000Y-85566666D01*
X86916666Y-85500000D01*
X86916666Y-85333333D01*
X86950000Y-85233333D01*
X86916666Y-84800000D02*
X86916666Y-84666666D01*
X86950000Y-84600000D01*
X87016666Y-84533333D01*
X87150000Y-84500000D01*
X87383333Y-84500000D01*
X87516666Y-84533333D01*
X87583333Y-84600000D01*
X87616666Y-84666666D01*
X87616666Y-84800000D01*
X87583333Y-84866666D01*
X87516666Y-84933333D01*
X87383333Y-84966666D01*
X87150000Y-84966666D01*
X87016666Y-84933333D01*
X86950000Y-84866666D01*
X86916666Y-84800000D01*
X86916666Y-84266666D02*
X86916666Y-83833333D01*
X87183333Y-84066666D01*
X87183333Y-83966666D01*
X87216666Y-83900000D01*
X87250000Y-83866666D01*
X87316666Y-83833333D01*
X87483333Y-83833333D01*
X87550000Y-83866666D01*
X87583333Y-83900000D01*
X87616666Y-83966666D01*
X87616666Y-84166666D01*
X87583333Y-84233333D01*
X87550000Y-84266666D01*
X86983333Y-83566666D02*
X86950000Y-83533333D01*
X86916666Y-83466666D01*
X86916666Y-83300000D01*
X86950000Y-83233333D01*
X86983333Y-83200000D01*
X87050000Y-83166666D01*
X87116666Y-83166666D01*
X87216666Y-83200000D01*
X87616666Y-83600000D01*
X87616666Y-83166666D01*
%TO.C,C2*%
X54450000Y-112766666D02*
X54483333Y-112800000D01*
X54516666Y-112900000D01*
X54516666Y-112966666D01*
X54483333Y-113066666D01*
X54416666Y-113133333D01*
X54350000Y-113166666D01*
X54216666Y-113200000D01*
X54116666Y-113200000D01*
X53983333Y-113166666D01*
X53916666Y-113133333D01*
X53850000Y-113066666D01*
X53816666Y-112966666D01*
X53816666Y-112900000D01*
X53850000Y-112800000D01*
X53883333Y-112766666D01*
X53883333Y-112500000D02*
X53850000Y-112466666D01*
X53816666Y-112400000D01*
X53816666Y-112233333D01*
X53850000Y-112166666D01*
X53883333Y-112133333D01*
X53950000Y-112100000D01*
X54016666Y-112100000D01*
X54116666Y-112133333D01*
X54516666Y-112533333D01*
X54516666Y-112100000D01*
%TO.C,R6*%
X57083333Y-127266666D02*
X56850000Y-126933333D01*
X56683333Y-127266666D02*
X56683333Y-126566666D01*
X56950000Y-126566666D01*
X57016666Y-126600000D01*
X57050000Y-126633333D01*
X57083333Y-126700000D01*
X57083333Y-126800000D01*
X57050000Y-126866666D01*
X57016666Y-126900000D01*
X56950000Y-126933333D01*
X56683333Y-126933333D01*
X57683333Y-126566666D02*
X57550000Y-126566666D01*
X57483333Y-126600000D01*
X57450000Y-126633333D01*
X57383333Y-126733333D01*
X57350000Y-126866666D01*
X57350000Y-127133333D01*
X57383333Y-127200000D01*
X57416666Y-127233333D01*
X57483333Y-127266666D01*
X57616666Y-127266666D01*
X57683333Y-127233333D01*
X57716666Y-127200000D01*
X57750000Y-127133333D01*
X57750000Y-126966666D01*
X57716666Y-126900000D01*
X57683333Y-126866666D01*
X57616666Y-126833333D01*
X57483333Y-126833333D01*
X57416666Y-126866666D01*
X57383333Y-126900000D01*
X57350000Y-126966666D01*
%TO.C,C6*%
X62661833Y-110160000D02*
X62628500Y-110193333D01*
X62528500Y-110226666D01*
X62461833Y-110226666D01*
X62361833Y-110193333D01*
X62295166Y-110126666D01*
X62261833Y-110060000D01*
X62228500Y-109926666D01*
X62228500Y-109826666D01*
X62261833Y-109693333D01*
X62295166Y-109626666D01*
X62361833Y-109560000D01*
X62461833Y-109526666D01*
X62528500Y-109526666D01*
X62628500Y-109560000D01*
X62661833Y-109593333D01*
X63261833Y-109526666D02*
X63128500Y-109526666D01*
X63061833Y-109560000D01*
X63028500Y-109593333D01*
X62961833Y-109693333D01*
X62928500Y-109826666D01*
X62928500Y-110093333D01*
X62961833Y-110160000D01*
X62995166Y-110193333D01*
X63061833Y-110226666D01*
X63195166Y-110226666D01*
X63261833Y-110193333D01*
X63295166Y-110160000D01*
X63328500Y-110093333D01*
X63328500Y-109926666D01*
X63295166Y-109860000D01*
X63261833Y-109826666D01*
X63195166Y-109793333D01*
X63061833Y-109793333D01*
X62995166Y-109826666D01*
X62961833Y-109860000D01*
X62928500Y-109926666D01*
%TO.C,U1*%
X48616665Y-108810333D02*
X49183332Y-108810333D01*
X49249999Y-108777000D01*
X49283332Y-108743666D01*
X49316665Y-108677000D01*
X49316665Y-108543666D01*
X49283332Y-108477000D01*
X49249999Y-108443666D01*
X49183332Y-108410333D01*
X48616665Y-108410333D01*
X49316665Y-107710333D02*
X49316665Y-108110333D01*
X49316665Y-107910333D02*
X48616665Y-107910333D01*
X48716665Y-107977000D01*
X48783332Y-108043666D01*
X48816665Y-108110333D01*
%TO.C,C5*%
X61233333Y-123350000D02*
X61200000Y-123383333D01*
X61100000Y-123416666D01*
X61033333Y-123416666D01*
X60933333Y-123383333D01*
X60866666Y-123316666D01*
X60833333Y-123250000D01*
X60800000Y-123116666D01*
X60800000Y-123016666D01*
X60833333Y-122883333D01*
X60866666Y-122816666D01*
X60933333Y-122750000D01*
X61033333Y-122716666D01*
X61100000Y-122716666D01*
X61200000Y-122750000D01*
X61233333Y-122783333D01*
X61866666Y-122716666D02*
X61533333Y-122716666D01*
X61500000Y-123050000D01*
X61533333Y-123016666D01*
X61600000Y-122983333D01*
X61766666Y-122983333D01*
X61833333Y-123016666D01*
X61866666Y-123050000D01*
X61900000Y-123116666D01*
X61900000Y-123283333D01*
X61866666Y-123350000D01*
X61833333Y-123383333D01*
X61766666Y-123416666D01*
X61600000Y-123416666D01*
X61533333Y-123383333D01*
X61500000Y-123350000D01*
D13*
%TO.C,R7*%
X84080000Y-119046359D02*
X84080000Y-119353641D01*
X83320000Y-119046359D02*
X83320000Y-119353641D01*
%TO.C,R8*%
X81530000Y-118996359D02*
X81530000Y-119303641D01*
X80770000Y-118996359D02*
X80770000Y-119303641D01*
%TO.C,R2*%
X59680000Y-112353641D02*
X59680000Y-112046359D01*
X58920000Y-112353641D02*
X58920000Y-112046359D01*
D11*
%TO.C,U3*%
X49449999Y-124527000D02*
X50949999Y-124527000D01*
X59449999Y-124527000D02*
X57949999Y-124527000D01*
X59449999Y-114527000D02*
X59449999Y-115927000D01*
X59449999Y-114527000D02*
X57949999Y-114527000D01*
X49449999Y-114527000D02*
X49449999Y-115927000D01*
X49449999Y-114527000D02*
X50949999Y-114527000D01*
X49449999Y-124527000D02*
X49449999Y-123127000D01*
X59449999Y-124527000D02*
X59449999Y-123127000D01*
D14*
X57114999Y-113727001D02*
G75*
G03*
X57114999Y-113727001I-125000J0D01*
G01*
D13*
%TO.C,R1*%
X61030000Y-112056359D02*
X61030000Y-112363641D01*
X60270000Y-112056359D02*
X60270000Y-112363641D01*
%TO.C,U2*%
X62550000Y-102850000D02*
X48550000Y-102850000D01*
X48550000Y-102850000D02*
X48550000Y-86850000D01*
X48550000Y-86850000D02*
X62550000Y-86850000D01*
X62550000Y-86850000D02*
X62550000Y-102850000D01*
D15*
%TO.C,AE1*%
X52080000Y-80520000D02*
X52080000Y-80520000D01*
X52080000Y-80720000D02*
X52080000Y-80720000D01*
D16*
X60980000Y-81420000D02*
X54980000Y-81420000D01*
X60980000Y-78220000D02*
X54980000Y-78220000D01*
D15*
X52080000Y-80520000D02*
G75*
G03*
X52080000Y-80720000I0J-100000D01*
G01*
X52080000Y-80720000D02*
G75*
G03*
X52080000Y-80520000I0J100000D01*
G01*
D13*
%TO.C,R4*%
X55369999Y-126363359D02*
X55369999Y-126670641D01*
X56129999Y-126363359D02*
X56129999Y-126670641D01*
%TO.C,R3*%
X53629999Y-126323359D02*
X53629999Y-126630641D01*
X52869999Y-126323359D02*
X52869999Y-126630641D01*
%TO.C,R5*%
X55720000Y-112013641D02*
X55720000Y-111706359D01*
X56480000Y-112013641D02*
X56480000Y-111706359D01*
%TO.C,C4*%
X89902500Y-84232836D02*
X89902500Y-84017164D01*
X90622500Y-84232836D02*
X90622500Y-84017164D01*
%TO.C,C3*%
X92572500Y-84102836D02*
X92572500Y-83887164D01*
X91852500Y-84102836D02*
X91852500Y-83887164D01*
%TO.C,C1*%
X51440000Y-108687836D02*
X51440000Y-108472164D01*
X52160000Y-108687836D02*
X52160000Y-108472164D01*
D16*
%TO.C,IC1*%
X74850000Y-91200000D02*
X125650000Y-91200000D01*
X125650000Y-91200000D02*
X125650000Y-116600000D01*
X74850000Y-116600000D02*
X74850000Y-91200000D01*
D15*
X81250000Y-90800000D02*
X81250000Y-90800000D01*
X81050000Y-90800000D02*
X81050000Y-90800000D01*
D16*
X125650000Y-116600000D02*
X74850000Y-116600000D01*
D15*
X81050000Y-90800000D02*
G75*
G03*
X81250000Y-90800000I100000J0D01*
G01*
X81250000Y-90800000D02*
G75*
G03*
X81050000Y-90800000I-100000J0D01*
G01*
D13*
%TO.C,U5*%
X63672800Y-110297600D02*
G75*
G03*
X63672800Y-110297600I0J0D01*
G01*
X63799800Y-110297600D02*
G75*
G03*
X63799800Y-110297600I-127000J0D01*
G01*
D11*
%TO.C,U6*%
X93487500Y-88725000D02*
X89787500Y-88725000D01*
X89787500Y-85525000D02*
X93487500Y-85525000D01*
X93487500Y-85525000D02*
X93487500Y-88725000D01*
X89787500Y-88725000D02*
X89787500Y-85525000D01*
D14*
X94212500Y-88050000D02*
G75*
G03*
X94212500Y-88050000I-125000J0D01*
G01*
D13*
%TO.C,C2*%
X52840000Y-112877836D02*
X52840000Y-112662164D01*
X53560000Y-112877836D02*
X53560000Y-112662164D01*
%TO.C,R6*%
X57406359Y-125520000D02*
X57713641Y-125520000D01*
X57406359Y-126280000D02*
X57713641Y-126280000D01*
%TO.C,C6*%
X62886336Y-109110000D02*
X62670664Y-109110000D01*
X62886336Y-108390000D02*
X62670664Y-108390000D01*
D15*
%TO.C,U1*%
X52249999Y-111452000D02*
X52249999Y-112102000D01*
X52299999Y-109952000D02*
X52299999Y-111102000D01*
X49349999Y-111452000D02*
X52249999Y-111452000D01*
X52249999Y-112102000D02*
X49349999Y-112102000D01*
X49349999Y-112102000D02*
X49349999Y-111452000D01*
D13*
%TO.C,C5*%
X61242164Y-121590000D02*
X61457836Y-121590000D01*
X61242164Y-122310000D02*
X61457836Y-122310000D01*
%TD*%
M02*
